<svg width="181" height="60" viewBox="0 0 181 60" fill="none" xmlns="http://www.w3.org/2000/svg">
<path d="M4.33011 30.3627C3.5875 33.3319 2.16195 35.5274 1.14459 35.2684C0.1288 35.0079 -0.0941545 32.3898 0.648455 29.4207C1.39107 26.4515 2.81661 24.256 3.83397 24.5165C4.84976 24.7755 5.07272 27.3936 4.33011 30.3627Z" fill="#D60606"/>
<path d="M45.6776 13.1498C46.7248 14.9307 46.1487 17.2342 44.3887 18.2955C42.6287 19.3567 40.3522 18.772 39.3034 16.9912L37.4053 13.7662C36.3581 11.9854 36.9343 9.68187 38.6943 8.62066C40.4542 7.55946 42.7308 8.14405 43.7795 9.92491L45.6776 13.1498Z" fill="#070000"/>
<path d="M78.2709 15.2167C79.3196 16.9975 78.7419 19.3011 76.9819 20.3623C75.2219 21.4235 72.9454 20.8388 71.8967 19.058L69.9985 15.833C68.9498 14.0522 69.5276 11.7487 71.2875 10.6875C73.0475 9.62627 75.324 10.2109 76.3727 11.9917L78.2709 15.2167Z" fill="#070000"/>
<path d="M178.409 48.6114C177.814 48.4144 177.897 46.6844 177.945 44.0202C179.773 44.7558 181.045 33.0999 179.429 29.2475C176.575 22.4386 151.4 15.0626 124.818 15.0626C113.563 8.37124 100.961 1.97378 91.1229 0.00864031C90.5766 -0.100976 87.3706 0.82523 91.8796 3.19706C99.8207 7.37518 116.436 15.0546 102.912 15.0546C55.1401 15.0546 45.0984 14.8545 43.913 12.4556C38.9738 4.46003 23.4292 14.1761 16.2575 16.9181C7.08239 20.4258 1.36442 21.9477 2.59687 26.8217C3.57341 30.6884 2.49954 32.3898 0.703459 32.9967C-1.30928 33.6766 1.20741 48.8306 5.57986 49.9951C8.81406 50.8577 14.2431 51.7664 19.1117 52.1986C26.7105 52.8721 101.595 52.7355 125.837 51.992C146.023 51.374 188.398 51.9126 178.409 48.6114Z" fill="#861E29"/>
<path d="M178.409 48.6114C178.099 48.5097 177.975 47.9855 177.933 47.1388C167.907 48.2349 141.426 48.084 126.617 48.5288C101.818 49.2723 25.2174 49.4105 17.4427 48.7353C12.4627 48.3032 6.90807 47.3945 3.60008 46.5335C3.05215 46.3905 2.53404 46.033 2.04891 45.5231C2.97992 47.8218 4.1841 49.6265 5.57983 49.9983C8.81403 50.8609 14.2431 51.768 19.1117 52.2017C26.7105 52.8753 101.595 52.7387 125.839 51.9952C146.023 51.374 188.398 51.9126 178.409 48.6114Z" fill="#540C16"/>
<path d="M177.945 35.6259C177.897 38.2885 177.814 40.02 178.409 40.217C178.996 40.4108 179.388 40.5904 179.628 40.7604C180.194 37.8357 180.377 33.6226 179.869 30.8552C179.486 33.7354 178.776 35.9595 177.945 35.6259Z" fill="#191919"/>
<path d="M31.3435 26.6168C40.9143 26.6168 48.6748 34.4678 48.6748 44.1537C48.6748 44.7017 48.7831 48.3731 48.8977 52.7418C34.5228 52.7037 22.9974 52.5433 19.1117 52.1986C17.2701 52.0349 15.543 51.8554 13.9307 51.6505C13.9668 47.9092 14.0139 44.8479 14.0139 44.1537C14.0139 34.4678 21.7728 26.6168 31.3435 26.6168Z" fill="#191919"/>
<path d="M137.254 26.6168C146.825 26.6168 154.585 34.4678 154.585 44.1537C154.585 44.6398 154.622 47.9474 154.72 51.6489C145.53 51.9285 135.048 51.7109 125.836 51.9936C124.204 52.0429 122.179 52.0937 119.835 52.143C119.871 48.1809 119.923 44.8781 119.923 44.1537C119.925 34.4678 127.683 26.6168 137.254 26.6168Z" fill="#191919"/>
<path d="M137.435 59.3966C145.6 59.3966 152.219 52.6987 152.219 44.4365C152.219 36.1742 145.6 29.4763 137.435 29.4763C129.269 29.4763 122.65 36.1742 122.65 44.4365C122.65 52.6987 129.269 59.3966 137.435 59.3966Z" fill="#070000"/>
<path d="M131.021 48.7559C134.089 51.8601 133.675 46.408 136.742 43.3038C139.81 40.1996 145.197 40.619 142.131 37.5148C139.063 34.4106 134.089 34.4106 131.021 37.5148C127.953 40.619 127.953 45.6517 131.021 48.7559Z" fill="#D60606"/>
<path d="M126.016 44.4365C126.016 50.818 131.13 55.9922 137.436 55.9922C143.743 55.9922 148.856 50.818 148.856 44.4365C148.856 38.0549 143.743 32.8807 137.436 32.8807C131.128 32.8807 126.016 38.0549 126.016 44.4365ZM128.112 47.941L129.558 47.7074L128.368 48.5796C128.275 48.3715 128.192 48.157 128.112 47.941ZM127.661 46.3238C127.547 45.7122 127.481 45.0814 127.481 44.4365C127.481 43.8058 127.545 43.191 127.655 42.5921L132.51 43.3752L133.987 44.4587L132.51 45.5422L127.661 46.3238ZM146.437 48.7146L145.065 47.7074L146.745 47.9791C146.652 48.2301 146.55 48.4748 146.437 48.7146ZM142.113 45.5422L140.636 44.4587L142.113 43.3752L147.21 42.5539C147.324 43.164 147.39 43.7931 147.39 44.4381C147.39 45.0973 147.323 45.7407 147.203 46.3635L142.113 45.5422ZM146.759 40.9351L145.065 41.2084L146.453 40.19C146.566 40.4331 146.666 40.6825 146.759 40.9351ZM128.354 40.3251L129.558 41.2084L128.098 40.9732C128.176 40.754 128.26 40.5364 128.354 40.3251ZM131.748 36.1756L134.673 40.2568L134.96 42.0805L133.158 41.7898L129.153 38.8508C129.845 37.8023 130.728 36.8952 131.748 36.1756ZM133.186 35.3368C133.405 35.2319 133.627 35.135 133.854 35.0461L134.1 36.6124L133.186 35.3368ZM137.435 34.3629C138.031 34.3629 138.612 34.4249 139.181 34.5265L138.381 39.5991L137.311 41.094L136.24 39.5991L135.447 34.5647C136.091 34.4328 136.755 34.3629 137.435 34.3629ZM140.784 34.9602C141.027 35.0476 141.267 35.1414 141.501 35.2478L140.523 36.6124L140.784 34.9602ZM145.635 38.7301L141.465 41.7898L139.663 42.0805L139.95 40.2583L142.96 36.0596C144.01 36.7681 144.917 37.6768 145.635 38.7301ZM142.938 52.8293L139.95 48.6606L139.663 46.8369L141.465 47.1276L145.614 50.1715C144.895 51.22 143.986 52.1223 142.938 52.8293ZM141.477 53.6363C141.248 53.7395 141.014 53.8301 140.777 53.9159L140.523 52.305L141.477 53.6363ZM137.435 54.51C136.756 54.51 136.094 54.4401 135.453 54.3098L136.238 49.3183L137.309 47.8235L138.38 49.3183L139.171 54.348C138.609 54.4481 138.03 54.51 137.435 54.51ZM133.86 53.8285C133.638 53.7427 133.422 53.6474 133.21 53.5473L134.1 52.305L133.86 53.8285ZM129.172 50.0539L133.16 47.1276L134.96 46.8369L134.673 48.6606L131.769 52.7132C130.75 51.9968 129.866 51.096 129.172 50.0539Z" fill="#F9EFF0"/>
<path d="M134.807 52.3606L133.56 51.8379L135.263 49.4629L134.807 52.3606ZM139.816 52.3606L139.361 49.4629L141.065 51.8379L139.816 52.3606ZM135.651 48.5161L136.096 45.6883L133.304 46.1379L135.592 44.4587L133.303 42.7779L136.094 43.2291L135.65 40.4029L137.311 42.7208L138.97 40.4045L138.524 43.2307L141.32 42.7811L139.028 44.4619L141.319 46.1411L138.526 45.6915L138.972 48.5177L137.312 46.1999L135.651 48.5161ZM130.018 48.254L129.503 46.9926L132.367 46.5319L130.018 48.254ZM144.605 48.254L142.258 46.5319L145.12 46.9926L144.605 48.254ZM142.258 42.3856L144.606 40.6619L145.123 41.9232L142.258 42.3856ZM132.365 42.3856L129.503 41.9248L130.018 40.6651L132.365 42.3856ZM135.263 39.4545L133.56 37.0795L134.807 36.5568L135.263 39.4545ZM139.36 39.4545L139.816 36.5568L141.061 37.0779L139.36 39.4545Z" fill="#999999"/>
<path d="M137.435 31.5987C129.841 31.5987 123.655 37.6276 123.254 45.2101C123.24 44.9528 123.215 44.697 123.215 44.4349C123.215 36.4885 129.582 30.0482 137.433 30.0482C145.285 30.0482 151.651 36.4901 151.651 44.4349C151.651 44.697 151.626 44.9512 151.612 45.2101C151.215 37.6292 145.029 31.5987 137.435 31.5987Z" fill="#262626"/>
<path d="M137.435 56.0478C143.58 56.0478 148.585 51.1691 148.908 45.0338C148.919 45.2435 148.94 45.45 148.94 45.6613C148.94 52.0905 143.789 57.3028 137.435 57.3028C131.081 57.3028 125.93 52.0905 125.93 45.6613C125.93 45.45 125.95 45.2435 125.961 45.0338C126.285 51.1691 131.29 56.0478 137.435 56.0478Z" fill="#262626"/>
<path d="M15.9246 44.4365C15.9246 52.699 22.5437 59.3966 30.7093 59.3966C38.8748 59.3966 45.4939 52.699 45.4939 44.4365C45.4939 36.174 38.8748 29.4763 30.7093 29.4763C22.5437 29.4763 15.9246 36.174 15.9246 44.4365Z" fill="#070000"/>
<path d="M24.2942 48.7559C27.362 51.8601 26.9476 46.408 30.0153 43.3038C33.0831 40.1996 38.4698 40.619 35.4035 37.5148C32.3358 34.4106 27.362 34.4106 24.2942 37.5148C21.228 40.619 21.228 45.6517 24.2942 48.7559Z" fill="#D60606"/>
<path d="M19.2891 44.4365C19.2891 50.818 24.4026 55.9922 30.7093 55.9922C37.016 55.9922 42.1294 50.818 42.1294 44.4365C42.1294 38.0549 37.016 32.8807 30.7093 32.8807C24.4026 32.8807 19.2891 38.0549 19.2891 44.4365ZM21.385 47.941L22.831 47.7074L21.6425 48.5796C21.5499 48.3715 21.4651 48.157 21.385 47.941ZM20.9344 46.3238C20.8198 45.7122 20.7539 45.0814 20.7539 44.4365C20.7539 43.8058 20.8183 43.191 20.9282 42.5921L25.7826 43.3752L27.26 44.4587L25.7826 45.5422L20.9344 46.3238ZM39.7117 48.7146L38.3394 47.7074L40.0194 47.9791C39.9252 48.2301 39.8231 48.4748 39.7117 48.7146ZM35.3863 45.5422L33.9089 44.4587L35.3863 43.3752L40.4825 42.5539C40.5971 43.164 40.6631 43.7931 40.6631 44.4381C40.6631 45.0973 40.5956 45.7407 40.4763 46.3635L35.3863 45.5422ZM40.0335 40.9351L38.3394 41.2084L39.7273 40.19C39.8388 40.4331 39.9409 40.6825 40.0335 40.9351ZM21.6268 40.3251L22.831 41.2084L21.3709 40.9732C21.451 40.754 21.5326 40.5364 21.6268 40.3251ZM25.0227 36.1756L27.9476 40.2568L28.235 42.0805L26.4326 41.7898L22.4275 38.8508C23.1183 37.8023 24.0022 36.8952 25.0227 36.1756ZM26.4593 35.3368C26.6775 35.2319 26.8989 35.135 27.1265 35.0461L27.373 36.6124L26.4593 35.3368ZM30.7093 34.3629C31.3059 34.3629 31.8868 34.4249 32.4551 34.5265L31.656 39.5991L30.5852 41.094L29.5145 39.5991L28.7217 34.5647C29.3638 34.4328 30.0279 34.3629 30.7093 34.3629ZM34.0565 34.9602C34.2998 35.0476 34.5401 35.1414 34.774 35.2478L33.7959 36.6124L34.0565 34.9602ZM38.9078 38.7301L34.7379 41.7898L32.9355 42.0805L33.2229 40.2583L36.2325 36.0596C37.2829 36.7681 38.1919 37.6768 38.9078 38.7301ZM36.2105 52.8293L33.2229 48.6606L32.9355 46.8369L34.7379 47.1276L38.8874 50.1715C38.1683 51.22 37.2609 52.1223 36.2105 52.8293ZM34.752 53.6363C34.5228 53.7395 34.2889 53.8301 34.0502 53.9159L33.7959 52.305L34.752 53.6363ZM30.7093 54.51C30.031 54.51 29.3685 54.4401 28.7279 54.3098L29.5145 49.3183L30.5852 47.8235L31.656 49.3183L32.4472 54.348C31.882 54.4481 31.3027 54.51 30.7093 54.51ZM27.1344 53.8285C26.913 53.7427 26.6963 53.6474 26.4844 53.5473L27.3746 52.305L27.1344 53.8285ZM22.4448 50.0539L26.4326 47.1276L28.2334 46.8369L27.9461 48.6606L25.0415 52.7132C24.0226 51.9968 23.1387 51.096 22.4448 50.0539Z" fill="#F9EFF0"/>
<path d="M28.0811 52.3606L26.8345 51.8379L28.538 49.4629L28.0811 52.3606ZM33.0894 52.3606L32.6341 49.4629L34.3375 51.8379L33.0894 52.3606ZM28.9258 48.5161L29.3701 45.6883L26.5786 46.1379L28.8676 44.4587L26.5786 42.7779L29.3701 43.2291L28.9258 40.4029L30.5868 42.7208L32.2463 40.4045L31.8004 43.2307L34.5966 42.7811L32.3044 44.4619L34.595 46.1411L31.802 45.6915L32.2479 48.5177L30.5884 46.1999L28.9258 48.5161ZM23.291 48.254L22.776 46.9926L25.6397 46.5319L23.291 48.254ZM37.8794 48.254L35.5323 46.5319L38.3944 46.9926L37.8794 48.254ZM35.5307 42.3856L37.8794 40.6619L38.396 41.9232L35.5307 42.3856ZM25.6397 42.3856L22.7776 41.9248L23.2926 40.6651L25.6397 42.3856ZM28.5364 39.4545L26.8329 37.0795L28.0795 36.5568L28.5364 39.4545ZM32.6341 39.4545L33.091 36.5568L34.336 37.0779L32.6341 39.4545Z" fill="#999999"/>
<path d="M30.7093 31.5987C23.1152 31.5987 16.9294 37.6276 16.529 45.2101C16.5149 44.9528 16.4898 44.697 16.4898 44.4349C16.4898 36.4885 22.8561 30.0482 30.7077 30.0482C38.5593 30.0482 44.9256 36.4901 44.9256 44.4349C44.9256 44.697 44.9005 44.9512 44.8864 45.2101C44.4876 37.6292 38.3034 31.5987 30.7093 31.5987Z" fill="#262626"/>
<path d="M30.7093 56.0478C36.8542 56.0478 41.8594 51.1691 42.1828 45.0338C42.1938 45.2435 42.2142 45.45 42.2142 45.6613C42.2142 52.0905 37.0631 57.3028 30.7093 57.3028C24.3555 57.3028 19.2043 52.0905 19.2043 45.6613C19.2043 45.45 19.2247 45.2435 19.2357 45.0338C19.5591 51.1691 24.5643 56.0478 30.7093 56.0478Z" fill="#262626"/>
<path d="M167.459 43.6326L169.731 39.7389C170.128 39.0589 170.918 38.4886 171.497 38.4632L177.247 38.5093C178.179 38.5093 179.049 43.6326 178.175 43.6326H167.459Z" fill="#2B2B2B"/>
<path d="M159.751 48.7591L162.793 45.5962C163.191 44.9162 164.048 44.616 164.627 44.5906L177.217 44.1728C178.15 44.1728 178.182 48.2953 177.306 48.2953L159.751 48.7591Z" fill="#2B2B2B"/>
<path d="M91.1935 0.0944672C103.129 2.8444 114.94 9.1465 124.941 15.0673L120.692 15.007C107.138 4.85878 89.8794 1.04924 91.1935 0.0944672Z" fill="#80C2DC"/>
<path d="M74.9927 49.8267H112.381C116.359 49.8267 116.397 44.643 116.449 37.4671C116.463 35.5798 116.477 33.6274 116.562 31.5733C116.973 21.5649 116.959 19.7618 114.012 14.7544L113.838 14.8593C116.753 19.8158 116.767 21.6094 116.358 31.5637C116.273 33.6226 116.259 35.5766 116.244 37.4655C116.193 44.5222 116.157 49.6202 112.381 49.6202H74.9927C70.6815 49.6202 66.6654 46.2539 63.056 39.6149C59.9238 33.8514 58.1293 27.4444 57.6552 25.6175C56.7462 22.1209 56.9723 19.4456 58.3287 17.6648C59.5533 16.0587 61.7121 15.2103 64.5726 15.2103V15.0038C61.6461 15.0038 59.4309 15.8807 58.167 17.5393C56.7697 19.3725 56.5311 22.1098 57.4574 25.6699C57.9346 27.5016 59.7339 33.9292 62.877 39.7135C66.5257 46.4254 70.6014 49.8267 74.9927 49.8267Z" fill="#231F20"/>
<g opacity="0.5">
<path d="M149.238 20.9024C98.0529 20.9199 68.8163 20.0636 34.0141 24.372C28.1737 21.0486 16.7488 22.3782 16.7488 22.3782C84.9355 11.5946 149.238 20.9024 149.238 20.9024Z" fill="white"/>
</g>
<g opacity="0.5">
<path d="M135.389 23.3299C142.843 22.8072 157.499 26.5516 162.307 41.5086L154.79 40.028C149.841 26.6151 141.171 26.0798 135.648 26.4658C126.955 27.0743 121.03 34.2724 119.907 41.4339C119.226 32.5106 126.696 23.9383 135.389 23.3299Z" fill="white"/>
</g>
<g opacity="0.5">
<path d="M118.783 42.0424L45.0198 29.2269L62.8817 35.0651L118.783 42.0424Z" fill="white"/>
</g>
<g opacity="0.5">
<path d="M166.411 43.4658L154.722 41.1273L155.102 44.5842L166.411 43.4658Z" fill="white"/>
</g>
<g opacity="0.5">
<path d="M178.409 48.6114L154.714 49.2437L160.702 50.7561L179.687 49.1865L178.409 48.6114Z" fill="white"/>
</g>
<path d="M63.3747 23.7715C66.3375 23.7715 68.7394 23.2814 68.7394 22.6769C68.7394 22.0724 66.3375 21.5824 63.3747 21.5824C60.4119 21.5824 58.01 22.0724 58.01 22.6769C58.01 23.2814 60.4119 23.7715 63.3747 23.7715Z" fill="#231F20"/>
<path d="M58.6552 22.4434C58.6552 22.8453 60.7685 23.171 63.3763 23.171C65.984 23.171 68.0972 22.8453 68.0972 22.4434C68.0972 22.0415 65.984 21.7158 63.3763 21.7158C60.7685 21.7142 58.6552 22.0415 58.6552 22.4434Z" fill="#540C16"/>
<path d="M116.588 16.5035C116.171 18.6465 111.72 19.5632 109.614 19.1438C107.509 18.7244 106.141 16.648 106.558 14.505C106.975 12.3619 109.019 10.9655 111.125 11.3849C113.23 11.8043 117.006 14.3604 116.588 16.5035Z" fill="#200000"/>
<g opacity="0.5">
<path d="M107.743 13.1149C108.153 14.1522 109.049 14.9672 110.209 15.1976C111.522 15.4597 113.88 15.1181 115.238 14.2174C114.24 12.9862 112.39 11.9234 111.175 11.6804C109.814 11.4087 108.481 12.0155 107.743 13.1149Z" fill="white"/>
</g>
<g opacity="0.5">
<path d="M90.5687 2.40273C90.9188 2.08977 91.5468 1.96424 91.754 2.00237C100.642 3.68791 109.448 9.52774 120.363 15.6567C160.661 19.4551 172.472 25.4379 176.861 32.2484C178.077 34.1357 178.294 38.935 179.426 41.6945C179.925 38.8333 180.72 33.4685 179.338 29.373C177.181 22.9771 152.866 15.258 124.817 15.0642C113.563 8.37441 100.959 1.97537 91.1213 0.0102233C90.6409 -0.0850949 88.1101 0.61869 90.5687 2.40273Z" fill="white"/>
<path d="M1.52296 34.7553C3.51686 34.0786 5.02878 32.2453 4.96284 28.1863C4.8812 23.1996 10.8817 21.6173 20.5639 18.0714C27.9696 15.3596 34.7881 11.1863 43.913 14.6575C51.8038 17.0801 58.1591 15.976 103.052 15.6361C106.503 15.6091 107.803 15.0578 107.733 14.1968C107.148 14.7369 105.661 15.0578 102.914 15.0578C55.1416 15.0578 45.0999 14.8576 43.9145 12.4588C38.9753 4.46319 23.4307 14.1793 16.259 16.9213C7.08387 20.429 1.36595 21.9509 2.5984 26.8232C3.57494 30.69 2.50107 32.3914 0.704992 32.9983C0.0157625 33.2318 -0.131828 35.1763 0.135072 37.6609C0.504022 36.0532 0.989156 34.9364 1.52296 34.7553Z" fill="white"/>
</g>
<path d="M177.843 33.1079C178.881 34.6632 178.437 35.977 176.806 35.977H167.445C165.814 35.977 163.963 34.6632 163.337 33.1079L162.704 31.5367C162.132 30.1165 162.88 29.0076 164.351 29.0076H172.441C173.914 29.0076 175.846 30.1165 176.795 31.5367L177.843 33.1079Z" fill="#540C16"/>
<path d="M166.982 35.6036C165.612 35.6036 163.998 34.4725 163.459 33.1333L162.826 31.5621C162.632 31.0776 162.632 30.6503 162.825 30.358C163.015 30.072 163.393 29.9131 163.888 29.9131H171.978C173.262 29.9131 174.98 30.9204 175.807 32.1611L176.856 33.7322C177.341 34.4582 177.371 34.9889 177.236 35.2446C177.073 35.556 176.605 35.6036 176.341 35.6036H166.982Z" fill="white"/>
<path d="M168.43 46.5795C169.034 45.8472 168.937 45.253 168.211 45.253H165.79C165.067 45.253 163.99 45.8472 163.385 46.5795C162.781 47.3119 162.878 47.906 163.603 47.906H166.024C166.75 47.906 167.827 47.3119 168.43 46.5795Z" fill="white"/>
<path d="M177.303 34.992C177.325 34.7013 177.219 34.2724 176.857 33.7338L175.809 32.1627C174.981 30.922 173.262 29.9147 171.979 29.9147H163.889C163.395 29.9147 163.018 30.072 162.826 30.3596C162.651 30.6233 162.657 31.0046 162.798 31.4303C168.182 30.7996 173.761 31.0776 177.303 34.992Z" fill="#DEFCFF"/>
<path d="M164.01 34.0373C164.753 34.9444 165.937 35.6052 166.982 35.6052H172.81C169.926 34.795 166.992 34.2851 164.01 34.0373Z" fill="#DEFCFF"/>
</svg>
