<svg width="187" height="64" viewBox="0 0 187 64" fill="none" xmlns="http://www.w3.org/2000/svg">
<path d="M185.36 50.1071C184.765 49.9101 184.848 48.1801 184.897 45.5175C186.724 46.2531 184.967 37.1232 183.353 33.2707C180.499 26.4619 176.624 18.0039 131.769 16.5599C115.459 6.86283 96.2922 -3.03913 75.0878 0.880033C53.8833 4.7992 27.377 14.9093 18.2019 18.417C9.02686 21.9247 6.37669 19.8611 4.54136 28.3205C2.70603 36.78 -1.37126 40.6992 0.464071 45.8575C2.2994 51.0158 9.43506 52.6664 21.0578 53.6974C32.6789 54.7285 112.604 54.1105 132.79 53.4909C152.972 52.8697 195.35 53.4083 185.36 50.1071Z" fill="#E05A01"/>
<path d="M33.2897 28.1125C42.862 28.1125 50.6209 35.9636 50.6209 45.6495C50.6209 46.1976 50.7292 49.8689 50.8438 54.2377C36.4689 54.1995 24.9436 54.0391 21.0578 53.6943C19.2162 53.5307 17.4892 53.3512 15.8768 53.1463C15.9129 49.405 15.96 46.3437 15.96 45.6495C15.9585 35.9636 23.7174 28.1125 33.2897 28.1125Z" fill="#191919"/>
<path d="M144.205 28.1125C153.776 28.1125 161.537 35.9636 161.537 45.6495C161.537 46.1356 161.574 49.4431 161.673 53.1447C152.483 53.4243 142.001 53.2066 132.788 53.4894C131.157 53.5386 129.132 53.5895 126.786 53.6387C126.822 49.6767 126.874 46.3755 126.874 45.6495C126.874 35.9636 134.635 28.1125 144.205 28.1125Z" fill="#191919"/>
<path d="M158.771 49.4023C160.655 41.3631 155.742 33.3008 147.797 31.3947C139.852 29.4886 131.884 34.4605 130 42.4997C128.117 50.5389 133.03 58.6011 140.975 60.5072C148.92 62.4133 156.888 57.4415 158.771 49.4023Z" fill="#070000"/>
<path d="M137.973 50.2518C141.04 53.356 140.626 47.9038 143.694 44.8012C146.761 41.697 152.148 42.1164 149.082 39.0122C146.014 35.908 141.04 35.908 137.973 39.0122C134.905 42.1164 134.905 47.1476 137.973 50.2518Z" fill="#E05A01"/>
<path d="M132.966 45.9323C132.966 52.3138 138.079 57.488 144.386 57.488C150.693 57.488 155.806 52.3138 155.806 45.9323C155.806 39.5507 150.693 34.3765 144.386 34.3765C138.079 34.3765 132.966 39.5507 132.966 45.9323ZM135.063 49.4368L136.509 49.2033L135.321 50.0754C135.227 49.8673 135.142 49.6528 135.063 49.4368ZM134.611 47.8196C134.497 47.2079 134.431 46.5773 134.431 45.9323C134.431 45.3016 134.495 44.6868 134.605 44.0878L139.459 44.8711L140.937 45.9545L139.459 47.038L134.611 47.8196ZM153.388 50.2105L152.016 49.2033L153.696 49.4749C153.602 49.7243 153.5 49.9706 153.388 50.2105ZM149.065 47.038L147.587 45.9545L149.065 44.8711L154.161 44.0497C154.275 44.6613 154.341 45.2889 154.341 45.9338C154.341 46.5931 154.274 47.2365 154.155 47.8593L149.065 47.038ZM153.71 42.4309L152.016 42.7041L153.404 41.6858C153.516 41.9289 153.618 42.1783 153.71 42.4309ZM135.304 41.8209L136.508 42.7041L135.048 42.469C135.128 42.2498 135.211 42.0321 135.304 41.8209ZM138.699 37.6713L141.624 41.7525L141.912 43.5763L140.109 43.2856L136.104 40.3466C136.795 39.2965 137.679 38.391 138.699 37.6713ZM140.138 36.8325C140.356 36.7277 140.577 36.6308 140.805 36.5418L141.051 38.1082L140.138 36.8325ZM144.386 35.8587C144.983 35.8587 145.563 35.9207 146.132 36.0223L145.333 41.0949L144.262 42.5898L143.191 41.0949L142.398 36.0605C143.041 35.9286 143.705 35.8587 144.386 35.8587ZM147.735 36.456C147.978 36.5434 148.218 36.6387 148.452 36.7436L147.474 38.1082L147.735 36.456ZM152.585 40.2259L148.415 43.2856L146.612 43.5763L146.9 41.7541L149.909 37.5554C150.96 38.2639 151.869 39.1726 152.585 40.2259ZM149.887 54.325L146.9 50.1564L146.612 48.3327L148.415 48.6234L152.564 51.6672C151.845 52.7157 150.938 53.6181 149.887 54.325ZM148.429 55.1321C148.2 55.2353 147.966 55.3259 147.727 55.4117L147.473 53.8008L148.429 55.1321ZM144.386 56.0058C143.708 56.0058 143.045 55.9359 142.405 55.8056L143.191 50.8141L144.262 49.3192L145.333 50.8141L146.124 55.8438C145.559 55.9423 144.981 56.0058 144.386 56.0058ZM140.811 55.3243C140.59 55.2385 140.373 55.1432 140.161 55.0431L141.051 53.8008L140.811 55.3243ZM136.123 51.5497L140.111 48.6234L141.912 48.3327L141.624 50.1564L138.72 54.2091C137.699 53.4926 136.815 52.5918 136.123 51.5497Z" fill="#757575"/>
<path d="M141.758 53.8564L140.511 53.3337L142.215 50.9587L141.758 53.8564ZM146.766 53.8564L146.311 50.9587L148.014 53.3337L146.766 53.8564ZM142.602 50.0103L143.047 47.1825L140.255 47.6321L142.544 45.9529L140.255 44.2721L143.047 44.7217L142.602 41.8955L144.264 44.2134L145.923 41.8971L145.477 44.7233L148.273 44.2737L145.981 45.9545L148.272 47.6337L145.477 47.1841L145.923 50.0103L144.264 47.6924L142.602 50.0103ZM136.969 49.7498L136.454 48.4884L139.318 48.0261L136.969 49.7498ZM151.556 49.7498L149.209 48.0277L152.071 48.49L151.556 49.7498ZM149.207 43.8813L151.556 42.1576L152.073 43.419L149.207 43.8813ZM139.316 43.8813L136.454 43.419L136.969 42.1592L139.316 43.8813ZM142.213 40.9503L140.51 38.5753L141.756 38.0526L142.213 40.9503ZM146.311 40.9503L146.768 38.0526L148.013 38.5737L146.311 40.9503Z" fill="#999999"/>
<path d="M144.386 33.0945C136.792 33.0945 130.606 39.1234 130.206 46.7059C130.192 46.4486 130.166 46.1928 130.166 45.9307C130.166 37.9859 136.533 31.544 144.384 31.544C152.236 31.544 158.602 37.9859 158.602 45.9307C158.602 46.1928 158.577 46.447 158.563 46.7059C158.166 39.1234 151.98 33.0945 144.386 33.0945Z" fill="#262626"/>
<path d="M144.386 57.5436C150.531 57.5436 155.536 52.6649 155.86 46.5296C155.871 46.7393 155.891 46.9442 155.891 47.1571C155.891 53.5863 150.74 58.7986 144.386 58.7986C138.032 58.7986 132.881 53.5863 132.881 47.1571C132.881 46.9458 132.901 46.7393 132.912 46.5296C133.236 52.6649 138.241 57.5436 144.386 57.5436Z" fill="#262626"/>
<path d="M47.0375 49.3992C48.9212 41.36 44.0077 33.2978 36.0628 31.3917C28.1179 29.4856 20.1502 34.4574 18.2665 42.4966C16.3827 50.5358 21.2962 58.5981 29.2411 60.5042C37.186 62.4103 45.1537 57.4384 47.0375 49.3992Z" fill="#070000"/>
<path d="M26.2403 50.2517C29.3081 53.3559 28.8936 47.9037 31.9614 44.8011C35.0292 41.6969 40.4159 42.1163 37.3497 39.0121C34.2819 35.9079 29.3081 35.9079 26.2403 39.0121C23.1726 42.1163 23.1726 47.1475 26.2403 50.2517Z" fill="#E05A01"/>
<path d="M21.2336 45.9322C21.2336 52.3138 26.3471 57.488 32.6538 57.488C38.9605 57.488 44.074 52.3138 44.074 45.9322C44.074 39.5507 38.9605 34.3765 32.6538 34.3765C26.3471 34.3765 21.2336 39.5507 21.2336 45.9322ZM23.3311 49.4368L24.7771 49.2032L23.587 50.0754C23.4944 49.8673 23.4112 49.6528 23.3311 49.4368ZM22.8805 47.8195C22.7659 47.2079 22.7 46.5772 22.7 45.9322C22.7 45.3016 22.7644 44.6867 22.8743 44.0878L27.7287 44.871L29.2061 45.9545L27.7287 47.0379L22.8805 47.8195ZM41.6562 50.2104L40.284 49.2032L41.9639 49.4749C41.8713 49.7243 41.7692 49.9705 41.6562 50.2104ZM37.3324 47.0379L35.855 45.9545L37.3324 44.871L42.4286 44.0497C42.5432 44.6613 42.6092 45.2888 42.6092 45.9338C42.6092 46.5931 42.5417 47.2365 42.4223 47.8593L37.3324 47.0379ZM41.978 42.4309L40.284 42.7041L41.6703 41.6858C41.7833 41.9289 41.8854 42.1783 41.978 42.4309ZM23.5729 41.8208L24.7771 42.7041L23.317 42.469C23.3955 42.2498 23.4787 42.0321 23.5729 41.8208ZM26.9672 37.6713L29.8922 41.7525L30.1795 43.5763L28.3771 43.2856L24.372 40.3466C25.0644 39.2965 25.9467 38.391 26.9672 37.6713ZM28.4054 36.8325C28.6236 36.7277 28.8465 36.6308 29.0726 36.5418L29.3191 38.1082L28.4054 36.8325ZM32.6538 35.8587C33.2504 35.8587 33.8313 35.9206 34.3996 36.0223L33.6005 41.0948L32.5297 42.5897L31.459 41.0948L30.6662 36.0604C31.3099 35.9286 31.974 35.8587 32.6538 35.8587ZM36.0026 36.456C36.2459 36.5434 36.4862 36.6387 36.7201 36.7435L35.742 38.1082L36.0026 36.456ZM40.8539 40.2258L36.684 43.2856L34.8816 43.5763L35.1689 41.7541L38.1786 37.5553C39.229 38.2639 40.1364 39.1726 40.8539 40.2258ZM38.1551 54.325L35.1674 50.1564L34.8801 48.3326L36.6824 48.6234L40.8319 51.6672C40.1144 52.7157 39.2054 53.618 38.1551 54.325ZM36.6965 55.132C36.4673 55.2353 36.2334 55.3258 35.9963 55.4116L35.742 53.8007L36.6965 55.132ZM32.6538 56.0058C31.9756 56.0058 31.313 55.9359 30.6724 55.8056L31.459 50.8141L32.5297 49.3192L33.6005 50.8141L34.3918 55.8437C33.8281 55.9422 33.2488 56.0058 32.6538 56.0058ZM29.0789 55.3242C28.8575 55.2385 28.6424 55.1432 28.4289 55.0431L29.3191 53.8007L29.0789 55.3242ZM24.3909 51.5496L28.3787 48.6234L30.1795 48.3326L29.8922 50.1564L26.9877 54.209C25.9687 53.4925 25.0848 52.5918 24.3909 51.5496Z" fill="#757575"/>
<path d="M30.0256 53.8564L28.779 53.3337L30.4825 50.9587L30.0256 53.8564ZM35.0355 53.8564L34.5802 50.9587L36.2836 53.3337L35.0355 53.8564ZM30.8703 50.0103L31.3146 47.1825L28.5231 47.6321L30.8122 45.9529L28.5231 44.2721L31.3146 44.7217L30.8703 41.8955L32.5313 44.2134L34.1908 41.8971L33.7449 44.7233L36.5411 44.2737L34.2489 45.9545L36.5395 47.6337L33.7465 47.1841L34.1924 50.0103L32.5329 47.6924L30.8703 50.0103ZM25.2371 49.7498L24.7222 48.4884L27.5859 48.0261L25.2371 49.7498ZM39.824 49.7498L37.4768 48.0277L40.339 48.49L39.824 49.7498ZM37.4753 43.8813L39.824 42.1576L40.3405 43.419L37.4753 43.8813ZM27.5843 43.8813L24.7222 43.419L25.2371 42.1592L27.5843 43.8813ZM30.4825 40.9503L28.779 38.5753L30.0256 38.0526L30.4825 40.9503ZM34.5786 40.9503L35.0355 38.0526L36.2805 38.5737L34.5786 40.9503Z" fill="#999999"/>
<path d="M32.6538 33.0945C25.0597 33.0945 18.8739 39.1233 18.4751 46.7059C18.461 46.4485 18.4359 46.1928 18.4359 45.9306C18.4359 37.9859 24.8007 31.5439 32.6538 31.5439C40.5069 31.5439 46.8717 37.9859 46.8717 45.9306C46.8717 46.1928 46.8466 46.447 46.8325 46.7059C46.4337 39.1233 40.2479 33.0945 32.6538 33.0945Z" fill="#262626"/>
<path d="M32.6538 57.5436C38.7988 57.5436 43.8039 52.6649 44.1274 46.5296C44.1383 46.7393 44.1588 46.9442 44.1588 47.1571C44.1588 53.5863 39.0076 58.7986 32.6538 58.7986C26.3 58.7986 21.1488 53.5863 21.1488 47.1571C21.1488 46.9458 21.1693 46.7393 21.1802 46.5296C21.5037 52.6649 26.5088 57.5436 32.6538 57.5436Z" fill="#262626"/>
<path d="M179.678 35.29C178.383 29.331 173.299 26.4349 164.14 26.4349C161.585 26.4349 159.062 26.651 157.035 26.8241L156.423 26.8765L156.379 27.2785C161.546 28.8878 165.606 35.1756 165.647 35.2391L165.708 35.336L165.823 35.3329C165.845 35.3329 168.096 35.2804 170.889 35.2804C173.467 35.2804 177.045 35.3249 179.46 35.5378L179.736 35.5616L179.678 35.29Z" fill="#191919"/>
<path d="M179.479 35.3345C174.789 34.9214 165.818 35.1279 165.818 35.1279C165.818 35.1279 161.741 28.7321 156.439 27.0815C163.779 26.4619 177.235 25.0179 179.479 35.3345Z" fill="#96BCBB"/>
<path d="M170.64 35.0755C168.011 32.2366 165.297 29.4661 162.628 26.6701C163.697 26.6383 164.788 26.6335 165.881 26.6796C168.884 29.3231 171.737 32.1381 174.428 35.1073C173.136 35.0819 171.831 35.0755 170.64 35.0755Z" fill="#FFF48D"/>
<path d="M167.777 26.8146C173.189 27.3611 178.188 29.4009 179.479 35.3345C178.474 35.2455 177.273 35.1867 176.007 35.147C173.411 32.2239 170.669 29.4343 167.777 26.8146Z" fill="#FFF48D"/>
<path d="M178.981 33.8428C179.001 33.8475 179.022 33.8459 179.041 33.8491C179.212 34.3162 179.363 34.807 179.479 35.3345C174.789 34.9214 165.818 35.1279 165.818 35.1279C165.818 35.1279 161.741 28.7321 156.439 27.0815C157.591 26.9846 158.896 26.867 160.282 26.7781C165.974 30.3112 172.42 32.5417 178.981 33.8428Z" fill="#EDF1F4"/>
<path d="M173.396 45.5176H184.897C185.054 47.0459 185.193 48.5805 185.36 50.1072L171.403 50.6902C170.823 50.7141 170.676 50.1835 171.073 49.5019L173.396 45.5176Z" fill="#2B2B2B"/>
<path d="M173.61 44.3849L175.882 40.4912C176.279 39.8113 177.069 39.2393 177.648 39.2155L184.04 38.9486C184.014 40.7755 184.143 42.5834 184.325 44.3833H173.61V44.3849Z" fill="#2B2B2B"/>
<path d="M48.1733 16.9031C48.1701 16.8427 44.5623 16.7236 44.5026 16.7236C39.2117 16.7236 65.4354 3.01205 85.96 3.01205C98.3285 3.01205 119.534 15.1159 121.572 16.2851C121.624 16.3153 121.566 16.4059 121.563 16.4646L48.1733 16.9031Z" fill="#2B2B2B"/>
<path d="M66.7448 7.2982C66.6349 7.0043 66.5218 6.71039 66.4104 6.41649C72.7673 4.55302 79.7428 3.18204 86.1516 3.18204C98.2154 3.18204 118.895 14.9856 120.883 16.1262C120.933 16.1548 120.877 16.2438 120.874 16.3026L70.5787 16.6028C69.2175 13.5368 67.9317 10.4548 66.7448 7.2982Z" fill="#80C2DC"/>
<path d="M64.7807 3.13916C64.6645 3.34092 64.6049 3.63483 64.3882 3.70949C56.5335 6.44989 41.3092 11.184 29.2124 16.1898H24.0816C33.7607 12.5709 49.6695 6.89787 64.7807 3.13916Z" fill="#80C2DC"/>
<path d="M98.1448 1.59024C110.08 4.34017 121.889 10.6423 131.892 16.5631L127.645 16.5028C114.09 6.35455 96.8307 2.54501 98.1448 1.59024Z" fill="#80C2DC"/>
<path d="M81.0004 51.3225H119.332C123.31 51.3225 123.346 46.1372 123.4 38.9629C123.414 37.0756 123.428 35.1232 123.513 33.0691C123.924 23.0607 123.91 21.2576 120.963 16.2502L120.787 16.355C123.703 21.3116 123.717 23.1051 123.307 33.0595C123.222 35.1184 123.208 37.0724 123.194 38.9613C123.142 46.0181 123.106 51.116 119.33 51.116H80.9988C76.6861 51.116 72.67 47.7497 69.0621 41.1108C65.93 35.3472 64.1355 28.9402 63.6613 27.1133C62.7523 23.6167 62.9784 20.9414 64.3349 19.1606C65.5579 17.5545 67.7166 16.7061 70.5787 16.7061V16.4996C67.6523 16.4996 65.437 17.3765 64.1732 19.0351C62.7759 20.8684 62.5372 23.604 63.4635 27.1657C63.9408 28.9974 65.74 35.425 68.8832 41.2092C72.5318 47.9212 76.6075 51.3225 81.0004 51.3225Z" fill="#231F20"/>
<path d="M10.8607 20.8922L25.7443 26.6684L16.7733 32.4447L4.13162 30.5876C4.13162 30.5876 4.74551 21.0987 10.8607 20.8922Z" fill="#BE5041"/>
<path d="M8.3031 27.4707C7.10362 27.431 5.9073 27.4056 4.71567 27.3277C5.33739 25.0417 6.59809 22.225 9.11323 21.248C11.1401 23.4197 13.0963 25.6771 14.9301 28.0267C12.7258 27.7932 10.5137 27.5422 8.3031 27.4707Z" fill="#711814"/>
<path d="M8.84007 28.6431C11.1951 28.7797 13.5454 29.0451 15.8957 29.2818C16.5252 30.119 17.1391 30.9673 17.7326 31.8299L16.7764 32.4463L4.13477 30.5892C4.13477 30.5892 4.19286 29.6964 4.45034 28.4525C5.90416 28.5446 7.36898 28.5589 8.84007 28.6431Z" fill="#D77C7B"/>
<path d="M23.9105 26.2554L10.2389 20.9493C10.4399 20.9207 10.6471 20.8985 10.8607 20.8922L25.7443 26.6684L17.6069 31.9078L23.9105 26.2554Z" fill="#1C171D"/>
<g opacity="0.5">
<path d="M183.352 35.9238C180.497 29.9776 174.9 19.8373 127.282 20.8445C127.282 17.591 99.1464 -0.687861 77.9419 2.73724C56.7375 6.16075 47.115 11.748 33.4937 18.004C24.6954 22.0455 16.5942 21.1051 9.0268 27.4945C4.56015 31.266 0.36981 40.65 0.0354001 43.9512C-0.37751 39.6365 2.93832 35.711 4.54129 28.319C6.37662 19.8611 9.02679 21.9232 18.2019 18.4155C27.377 14.9078 53.8833 4.79929 75.0877 0.878538C96.2921 -3.04063 115.459 6.86133 131.769 16.5584C176.624 18.0024 180.499 26.4619 183.353 33.2692C184.959 37.0994 186.317 44.5692 185.437 45.3635C185.374 42.3372 184.782 38.9025 183.352 35.9238Z" fill="white"/>
</g>
<g opacity="0.5">
<path d="M126.888 21.0479C126.888 21.0479 74.7596 21.0637 35.9586 25.8678C30.1182 22.5443 18.6934 23.874 18.6934 23.874C18.6934 23.874 43.862 14.1293 123.551 17.7355C124.384 19.3877 126.888 21.0479 126.888 21.0479Z" fill="white"/>
</g>
<g opacity="0.5">
<path d="M142.34 24.8256C149.795 24.303 164.451 28.0474 169.258 43.0044L161.741 41.5238C156.792 28.1109 148.123 27.5756 142.599 27.9616C133.906 28.5701 127.981 35.7682 126.859 42.9298C126.177 34.0048 133.647 25.4341 142.34 24.8256Z" fill="white"/>
</g>
<g opacity="0.5">
<path d="M125.651 46.269L51.2316 41.3173L72.6417 47.1555L125.651 46.269Z" fill="white"/>
</g>
<g opacity="0.5">
<path d="M173.362 44.9616L161.672 42.6231L162.052 46.08L173.362 44.9616Z" fill="white"/>
</g>
<g opacity="0.5">
<path d="M185.36 50.1072L161.665 50.7379L167.653 52.2518L186.636 50.6823L185.36 50.1072Z" fill="white"/>
</g>
<g opacity="0.5">
<path d="M184.561 44.4199L172.285 44.4008L175.134 45.3842L185.413 45.0442L184.561 44.4199Z" fill="white"/>
</g>
<path d="M69.3824 25.2673C72.3452 25.2673 74.7471 24.7772 74.7471 24.1727C74.7471 23.5682 72.3452 23.0781 69.3824 23.0781C66.4196 23.0781 64.0177 23.5682 64.0177 24.1727C64.0177 24.7772 66.4196 25.2673 69.3824 25.2673Z" fill="#231F20"/>
<path d="M64.6614 23.9392C64.6614 24.3411 66.7746 24.6668 69.3824 24.6668C71.9901 24.6668 74.1034 24.3411 74.1034 23.9392C74.1034 23.5372 71.9901 23.2116 69.3824 23.2116C66.7746 23.21 64.6614 23.5372 64.6614 23.9392Z" fill="#E05A01"/>
<path d="M123.54 17.9992C123.122 20.1423 118.671 21.059 116.566 20.6396C114.46 20.2202 113.093 18.1422 113.51 16.0008C113.928 13.8577 115.972 12.4613 118.078 12.8807C120.181 13.3001 123.957 15.8562 123.54 17.9992Z" fill="#200000"/>
<g opacity="0.5">
<path d="M114.694 14.6107C115.104 15.6481 116 16.4631 117.161 16.6934C118.473 16.9555 120.831 16.614 122.189 15.7132C121.191 14.482 119.341 13.4192 118.126 13.1762C116.763 12.9045 115.432 13.5114 114.694 14.6107Z" fill="white"/>
</g>
<path opacity="0.7" d="M99.0428 16.4329L110.551 16.3646L114.294 12.5772C112.041 11.4302 109.367 10.1339 106.508 8.88046L99.0428 16.4329Z" fill="white"/>
<path opacity="0.7" d="M84.8218 16.5187L89.2193 16.4916L99.5076 6.08132C98.4054 5.68892 97.3033 5.32354 96.2106 4.9931C92.4159 8.83443 88.618 12.6758 84.8218 16.5187Z" fill="white"/>
<path opacity="0.7" d="M86.1515 3.18204C83.0131 3.18204 79.7381 3.51246 76.4662 4.06689L68.6099 12.0165C69.2458 13.5543 69.9036 15.0809 70.5803 16.6028L77.7348 16.5599L90.5366 3.6062C88.9917 3.33613 87.5159 3.18204 86.1515 3.18204Z" fill="white"/>
<path d="M7.78971 44.4119C7.5652 43.7288 6.83358 43.1744 6.15848 43.1744H0.00252478C-0.000615223 44.0513 0.135961 44.9346 0.464091 45.856C1.64316 49.1715 5.0171 51.0366 10.363 52.2217L7.78971 44.4119Z" fill="#191919"/>
<g opacity="0.5">
<path d="M6.15848 43.1728C6.83358 43.1728 7.5652 43.7272 7.78971 44.4103L10.363 52.2201C10.7225 52.3106 8.5543 43.6367 8.5543 43.6367C8.32979 42.9536 7.59817 42.3991 6.92307 42.3991C6.92307 42.3991 0.150095 42.9139 0.173645 43.1728H6.15848Z" fill="white"/>
</g>
</svg>
