<svg width="186" height="68" viewBox="0 0 186 68" fill="none" xmlns="http://www.w3.org/2000/svg">
<path d="M184.215 55.1499C183.62 54.9529 183.703 53.2229 183.751 50.5603C185.579 51.2959 183.076 37.3667 181.486 33.5047C180.169 30.3068 175.479 23.0467 130.624 21.6026C114.314 11.9056 94.9067 -0.738353 73.3648 0.0337246C41.5142 1.17595 29.6403 7.41293 21.2722 12.3345C12.7926 17.3213 9.6071 23.8982 9.09528 25.9936C5.88463 26.3797 3.55003 30.4164 2.98954 35.6319C1.94549 36.3881 2.14331 43.5846 2.14331 43.5846C-0.819281 43.5846 -0.0358811 52.0949 0.562289 53.6788C1.84655 57.0769 8.28985 57.7076 19.9126 58.7386C31.5337 59.7696 111.459 59.1516 131.645 58.5321C151.829 57.9125 194.206 58.4511 184.215 55.1499Z" fill="#E3E3E3"/>
<path d="M32.1444 33.1552C41.7152 33.1552 49.4757 41.0062 49.4757 50.6921C49.4757 51.2402 49.584 54.9116 49.6986 59.2803C35.3237 59.2422 23.7983 59.0817 19.9125 58.737C18.0709 58.5734 16.344 58.3939 14.7316 58.1889C14.7677 54.4477 14.8147 51.3864 14.8147 50.6921C14.8147 41.0062 22.5737 33.1552 32.1444 33.1552Z" fill="#191919"/>
<path d="M143.062 33.1552C152.632 33.1552 160.393 41.0062 160.393 50.6921C160.393 51.1783 160.431 54.4858 160.528 58.1873C151.337 58.4669 140.856 58.2493 131.643 58.5321C130.012 58.5813 127.987 58.6322 125.641 58.6814C125.677 54.7193 125.729 51.4181 125.729 50.6921C125.731 41.0062 133.489 33.1552 143.062 33.1552Z" fill="#191919"/>
<path d="M157.949 52.799C158.949 44.5987 153.19 37.1305 145.086 36.1184C136.982 35.1062 129.601 40.9334 128.601 49.1337C127.601 57.334 133.36 64.8022 141.464 65.8144C149.568 66.8265 156.948 60.9993 157.949 52.799Z" fill="#070000"/>
<path d="M131.822 50.9749C131.822 57.3565 136.936 62.5307 143.242 62.5307C149.549 62.5307 154.663 57.3565 154.663 50.9749C154.663 44.5934 149.549 39.4192 143.242 39.4192C136.934 39.4192 131.822 44.5934 131.822 50.9749ZM133.918 54.4795L135.364 54.2459L134.174 55.1181C134.081 54.91 133.998 54.6955 133.918 54.4795ZM133.468 52.8622C133.353 52.2506 133.287 51.6199 133.287 50.9749C133.287 50.3442 133.351 49.7294 133.461 49.1305L138.316 49.9137L139.793 50.9972L138.316 52.0806L133.468 52.8622ZM152.245 55.2531L150.873 54.2459L152.552 54.5176C152.458 54.767 152.356 55.0132 152.245 55.2531ZM147.919 52.0806L146.442 50.9972L147.919 49.9137L153.016 49.0924C153.13 49.704 153.196 50.3315 153.196 50.9765C153.196 51.6358 153.129 52.2792 153.009 52.9019L147.919 52.0806ZM152.567 47.4736L150.873 47.7468L152.26 46.7285C152.372 46.9716 152.472 47.221 152.567 47.4736ZM134.16 46.8635L135.364 47.7468L133.904 47.5117C133.982 47.2925 134.066 47.0748 134.16 46.8635ZM137.556 42.714L140.481 46.7952L140.768 48.619L138.966 48.3283L134.961 45.3893C135.651 44.3392 136.534 43.4337 137.556 42.714ZM138.992 41.8752C139.211 41.7704 139.432 41.6735 139.66 41.5845L139.906 43.1509L138.992 41.8752ZM143.241 40.9014C143.837 40.9014 144.418 40.9633 144.987 41.065L144.187 46.1375L143.117 47.6324L142.046 46.1375L141.253 41.1031C141.897 40.9713 142.561 40.9014 143.241 40.9014ZM146.59 41.4987C146.833 41.5861 147.073 41.6814 147.307 41.7862L146.329 43.1509L146.59 41.4987ZM151.441 45.2685L147.271 48.3283L145.469 48.619L145.756 46.7968L148.766 42.598C149.816 43.3066 150.723 44.2153 151.441 45.2685ZM148.744 59.3677L145.756 55.1991L145.469 53.3753L147.271 53.6661L151.42 56.7099C150.701 57.7584 149.794 58.6607 148.744 59.3677ZM147.283 60.1747C147.054 60.278 146.82 60.3685 146.583 60.4543L146.329 58.8434L147.283 60.1747ZM143.241 61.0485C142.563 61.0485 141.9 60.9786 141.259 60.8483L142.046 55.8568L143.117 54.3619L144.187 55.8568L144.979 60.8864C144.415 60.9849 143.836 61.0485 143.241 61.0485ZM139.666 60.3669C139.444 60.2811 139.228 60.1858 139.016 60.0858L139.906 58.8434L139.666 60.3669ZM134.978 56.5923L138.966 53.6661L140.766 53.3753L140.479 55.1991L137.575 59.2517C136.556 58.5352 135.672 57.6345 134.978 56.5923Z" fill="#757575"/>
<path d="M140.613 58.8991L139.366 58.3764L141.069 56.0014L140.613 58.8991ZM145.622 58.8991L145.167 56.0014L146.871 58.3764L145.622 58.8991ZM141.457 55.053L141.902 52.2252L139.11 52.6748L141.399 50.9956L139.11 49.3148L141.902 49.7644L141.457 46.9382L143.118 49.256L144.778 46.9398L144.332 49.766L147.128 49.3164L144.836 50.9972L147.127 52.6764L144.333 52.2268L144.779 55.053L143.12 52.7351L141.457 55.053ZM135.824 54.7924L135.309 53.5311L138.173 53.0688L135.824 54.7924ZM150.411 54.7924L148.064 53.0704L150.926 53.5327L150.411 54.7924ZM148.064 48.924L150.413 47.2003L150.929 48.4617L148.064 48.924ZM138.171 48.924L135.309 48.4617L135.824 47.2019L138.171 48.924ZM141.069 45.993L139.366 43.618L140.613 43.0953L141.069 45.993ZM145.167 45.993L145.624 43.0953L146.869 43.6164L145.167 45.993Z" fill="#999999"/>
<path d="M143.241 38.1372C135.647 38.1372 129.461 44.1661 129.062 51.7486C129.048 51.4913 129.023 51.2355 129.023 50.9734C129.023 43.0286 135.389 36.5867 143.241 36.5867C151.094 36.5867 157.459 43.0286 157.459 50.9734C157.459 51.2355 157.434 51.4897 157.419 51.7486C157.021 44.1661 150.835 38.1372 143.241 38.1372Z" fill="#262626"/>
<path d="M143.241 62.5863C149.386 62.5863 154.391 57.7076 154.714 51.5723C154.725 51.782 154.746 51.9869 154.746 52.1998C154.746 58.629 149.595 63.8413 143.241 63.8413C136.887 63.8413 131.736 58.629 131.736 52.1998C131.736 51.9885 131.756 51.782 131.767 51.5723C132.092 57.7076 137.096 62.5863 143.241 62.5863Z" fill="#262626"/>
<path d="M16.7255 50.9749C16.7255 59.2374 23.3446 65.9351 31.5101 65.9351C39.6757 65.9351 46.2949 59.2374 46.2949 50.9749C46.2949 42.7124 39.6757 36.0147 31.5101 36.0147C23.3446 36.0147 16.7255 42.7124 16.7255 50.9749Z" fill="#070000"/>
<path d="M20.09 50.9749C20.09 57.3565 25.2034 62.5307 31.5101 62.5307C37.8168 62.5307 42.9303 57.3565 42.9303 50.9749C42.9303 44.5934 37.8168 39.4192 31.5101 39.4192C25.2034 39.4192 20.09 44.5934 20.09 50.9749ZM22.1859 54.4795L23.6319 54.2459L22.4418 55.1181C22.3492 54.91 22.266 54.6955 22.1859 54.4795ZM21.7353 52.8622C21.6207 52.2506 21.5547 51.6199 21.5547 50.9749C21.5547 50.3442 21.6192 49.7294 21.7291 49.1305L26.5835 49.9137L28.0608 50.9972L26.5835 52.0806L21.7353 52.8622ZM40.5125 55.2531L39.1403 54.2459L40.8203 54.5176C40.7261 54.767 40.624 55.0132 40.5125 55.2531ZM36.1872 52.0806L34.7098 50.9972L36.1872 49.9137L41.2834 49.0924C41.398 49.704 41.4639 50.3315 41.4639 50.9765C41.4639 51.6358 41.3964 52.2792 41.2771 52.9019L36.1872 52.0806ZM40.8343 47.4736L39.1403 47.7468L40.5282 46.7285C40.6397 46.9716 40.7417 47.221 40.8343 47.4736ZM22.4277 46.8635L23.6319 47.7468L22.1718 47.5117C22.2518 47.2925 22.3335 47.0748 22.4277 46.8635ZM25.8236 42.714L28.7485 46.7952L29.0358 48.619L27.2334 48.3283L23.2284 45.3893C23.9192 44.3392 24.8031 43.4337 25.8236 42.714ZM27.2601 41.8752C27.4784 41.7704 27.6998 41.6735 27.9274 41.5845L28.1739 43.1509L27.2601 41.8752ZM31.5101 40.9014C32.1067 40.9014 32.6876 40.9633 33.256 41.065L32.4568 46.1375L31.3861 47.6324L30.3154 46.1375L29.5225 41.1031C30.1646 40.9713 30.8287 40.9014 31.5101 40.9014ZM34.8574 41.4987C35.1007 41.5861 35.341 41.6814 35.5749 41.7862L34.5967 43.1509L34.8574 41.4987ZM39.7087 45.2685L35.5388 48.3283L33.7364 48.619L34.0237 46.7968L37.0334 42.598C38.0837 43.3066 38.9912 44.2153 39.7087 45.2685ZM37.0114 59.3677L34.0237 55.1991L33.7364 53.3753L35.5388 53.6661L39.6883 56.7099C38.9692 57.7584 38.0617 58.6607 37.0114 59.3677ZM35.5529 60.1747C35.3237 60.278 35.0898 60.3685 34.8511 60.4543L34.5967 58.8434L35.5529 60.1747ZM31.5101 61.0485C30.8319 61.0485 30.1694 60.9786 29.5288 60.8483L30.3154 55.8568L31.3861 54.3619L32.4568 55.8568L33.2481 60.8864C32.6829 60.9849 32.1036 61.0485 31.5101 61.0485ZM27.9337 60.3669C27.7123 60.2811 27.4957 60.1858 27.2837 60.0858L28.1739 58.8434L27.9337 60.3669ZM23.2457 56.5923L27.2334 53.6661L29.0342 53.3753L28.747 55.1991L25.8424 59.2517C24.8235 58.5352 23.9396 57.6345 23.2457 56.5923Z" fill="#757575"/>
<path d="M28.8804 58.8991L27.6338 58.3764L29.3372 56.0014L28.8804 58.8991ZM33.8903 58.8991L33.435 56.0014L35.1384 58.3764L33.8903 58.8991ZM29.7266 55.053L30.1709 52.2252L27.3795 52.6748L29.6685 50.9956L27.3795 49.3148L30.1709 49.7644L29.7266 46.9382L31.3877 49.256L33.0472 46.9398L32.6013 49.766L35.3975 49.3164L33.1053 50.9972L35.3959 52.6764L32.6029 52.2268L33.0488 55.053L31.3893 52.7351L29.7266 55.053ZM24.0935 54.7924L23.5785 53.5311L26.4422 53.0688L24.0935 54.7924ZM38.6803 54.7924L36.3332 53.0704L39.1953 53.5327L38.6803 54.7924ZM36.3316 48.924L38.6803 47.2003L39.1968 48.4617L36.3316 48.924ZM26.4406 48.924L23.5785 48.4617L24.0935 47.2019L26.4406 48.924ZM29.3372 45.993L27.6338 43.618L28.8804 43.0953L29.3372 45.993ZM33.435 45.993L33.8918 43.0953L35.1368 43.6164L33.435 45.993Z" fill="#999999"/>
<path d="M31.5102 38.1371C23.9161 38.1371 17.7303 44.166 17.33 51.7486C17.3158 51.4912 17.2907 51.2355 17.2907 50.9733C17.2907 43.0286 23.6571 36.5866 31.5086 36.5866C39.3602 36.5866 45.7265 43.0286 45.7265 50.9733C45.7265 51.2355 45.7014 51.4896 45.6873 51.7486C45.2885 44.166 39.1043 38.1371 31.5102 38.1371Z" fill="#262626"/>
<path d="M31.5102 62.5863C37.6551 62.5863 42.6603 57.7076 42.9837 51.5723C42.9947 51.782 43.0151 51.9869 43.0151 52.1998C43.0151 58.629 37.8639 63.8413 31.5102 63.8413C25.1564 63.8413 20.0052 58.629 20.0052 52.1998C20.0052 51.9885 20.0256 51.782 20.0366 51.5723C20.36 57.7076 25.3652 62.5863 31.5102 62.5863Z" fill="#262626"/>
<path d="M178.533 40.3327C177.238 34.3737 172.154 31.4776 162.995 31.4776C160.44 31.4776 157.917 31.6937 155.89 31.8668L155.278 31.9192L155.236 32.3212C160.402 33.9305 164.462 40.2183 164.503 40.2818L164.565 40.3787L164.679 40.3755C164.701 40.3755 166.952 40.3231 169.745 40.3231C172.323 40.3231 175.901 40.3676 178.316 40.5805L178.592 40.6043L178.533 40.3327Z" fill="#191919"/>
<path d="M178.333 40.3772C173.644 39.9641 164.673 40.1706 164.673 40.1706C164.673 40.1706 160.596 33.7748 155.294 32.1242C162.635 31.5046 176.091 30.0606 178.333 40.3772Z" fill="white"/>
<path d="M169.496 40.1182C166.868 37.2793 164.153 34.5087 161.484 31.7127C162.553 31.6809 163.644 31.6762 164.739 31.7222C167.742 34.3657 170.595 37.1808 173.286 40.1499C171.992 40.1245 170.686 40.1182 169.496 40.1182Z" fill="#C3EAE8"/>
<path d="M166.634 31.8573C172.046 32.4038 177.044 34.4436 178.335 40.3771C177.33 40.2882 176.129 40.2294 174.864 40.1897C172.265 37.2666 169.524 34.4769 166.634 31.8573Z" fill="#C3EAE8"/>
<path d="M177.837 38.8854C177.858 38.8902 177.877 38.8886 177.897 38.8918C178.068 39.3588 178.219 39.8497 178.333 40.3771C173.644 39.9641 164.673 40.1706 164.673 40.1706C164.673 40.1706 160.596 33.7748 155.294 32.1242C156.446 32.0273 157.751 31.9097 159.137 31.8207C164.83 35.3539 171.275 37.5843 177.837 38.8854Z" fill="#FFF48D"/>
<path d="M172.251 50.5603H183.751C183.908 52.0886 184.048 53.6232 184.215 55.1499L170.257 55.7329C169.678 55.7567 169.53 55.2261 169.928 54.5446L172.251 50.5603Z" fill="#2B2B2B"/>
<path d="M37.1826 21.9458C34.8605 21.9458 32.27 21.9458 32.1947 21.9458C23.5267 21.9458 24.9601 4.60581 74.9395 2.40714C90.8216 1.70814 117.804 19.647 120.424 21.1515C120.491 21.1896 120.416 21.3056 120.411 21.3834L37.1826 21.9458Z" fill="#757575"/>
<path d="M32.1931 21.3055C30.1458 21.3055 28.7988 20.2618 28.7642 18.6462C28.6826 14.8763 36.8262 4.72336 74.9646 3.04576C75.2582 3.03305 75.5565 3.0267 75.8579 3.0267C85.2685 3.0267 99.6356 8.99203 118.559 20.7543L37.1763 21.3071H37.1794L32.1931 21.3055Z" fill="#2B2B2B"/>
<path d="M110.497 15.9423C95.5191 7.37639 83.8807 3.02512 75.858 3.02512C75.5565 3.02512 75.2582 3.03146 74.9646 3.04417C72.7949 3.13949 70.7335 3.26657 68.7537 3.41272C71.1841 9.33516 74.0666 15.0654 76.3604 21.0386L108.762 20.8178C109.355 19.2006 109.94 17.577 110.497 15.9423Z" fill="#80C2DC"/>
<path d="M39.7746 21.2881L74.525 21.053C72.2014 15.1416 69.3346 9.45274 66.9529 3.5589C52.3315 4.79645 43.0198 7.41133 37.2548 10.2026C38.0523 13.9089 38.9158 17.5977 39.7746 21.2881Z" fill="#80C2DC"/>
<path d="M90.5217 2.07034C102.457 4.82027 120.746 15.685 130.747 21.6058L126.5 21.5454C112.946 11.3972 89.2076 3.02511 90.5217 2.07034Z" fill="#80C2DC"/>
<path d="M120.438 21.2928L120.303 21.3977C122.559 26.3542 122.57 28.1478 122.253 38.1022C122.187 40.1611 122.176 42.1151 122.167 44.004C122.127 51.0607 122.098 56.1587 119.177 56.1587H89.5248C86.1885 56.1587 83.0815 52.7923 80.2916 46.1534C77.8675 40.3898 76.4812 33.9829 76.1138 32.1559C75.4748 28.9771 74.7369 23.9189 75.3963 21.6852H75.2315C74.6035 24.0205 75.321 29.0232 75.9616 32.2084C76.3305 34.0401 77.7215 40.4677 80.155 46.2519C82.9763 52.9623 86.1289 56.3652 89.5279 56.3652H119.18C122.258 56.3652 122.288 51.1799 122.327 44.0056C122.338 42.1183 122.349 40.1659 122.413 38.1117C122.729 28.1033 122.716 26.3002 120.438 21.2928Z" fill="#231F20"/>
<path d="M9.71701 25.9348L24.6006 31.7111L15.6296 37.4874L2.98798 35.6303C2.98798 35.6303 3.60029 26.1414 9.71701 25.9348Z" fill="#BE5041"/>
<path d="M7.15948 32.5134C5.96 32.4737 4.76208 32.4483 3.57202 32.3704C4.19374 30.0844 5.45444 27.2677 7.96958 26.2907C9.99645 28.4624 11.9527 30.7198 13.7864 33.0694C11.5821 32.8359 9.37004 32.5849 7.15948 32.5134Z" fill="#711814"/>
<path d="M7.69487 33.6858C10.0499 33.8224 12.4001 34.0877 14.7504 34.3245C15.38 35.1617 15.9938 36.01 16.5873 36.8726L15.6312 37.489L2.98956 35.6319C2.98956 35.6319 3.04764 34.7391 3.30512 33.4952C4.76051 33.5873 6.22535 33.6016 7.69487 33.6858Z" fill="#D77C7B"/>
<path d="M22.7668 31.2981L9.09528 25.992C9.29624 25.9634 9.50343 25.9412 9.71852 25.9348L24.6021 31.7111L16.4649 36.9505L22.7668 31.2981Z" fill="#1C171D"/>
<g opacity="0.5">
<path d="M163.834 28.491C163.834 28.491 73.616 26.1064 34.815 30.9104C22.3916 28.1907 23.7732 27.0914 13.3044 26.2923C102.298 16.5984 163.834 28.491 163.834 28.491Z" fill="white"/>
</g>
<g opacity="0.5">
<path d="M141.195 29.8683C148.649 29.3456 163.305 33.0901 168.113 48.0471L160.596 46.5665C155.647 33.1536 146.977 32.6182 141.454 33.0043C132.761 33.6127 126.836 40.8108 125.713 47.9724C125.032 39.0475 132.502 30.4768 141.195 29.8683Z" fill="white"/>
</g>
<g opacity="0.5">
<path d="M124.508 51.3117L50.088 46.36L71.4964 52.1982L124.508 51.3117Z" fill="white"/>
</g>
<g opacity="0.5">
<path d="M172.217 50.0043L160.528 47.6658L160.908 51.1227L172.217 50.0043Z" fill="white"/>
</g>
<g opacity="0.5">
<path d="M184.215 55.1499L160.52 55.7806L166.508 57.2945L185.493 55.725L184.215 55.1499Z" fill="white"/>
</g>
<g opacity="0.5">
<path d="M183.415 49.4625L171.14 49.4435L173.989 50.4269L184.27 50.0869L183.415 49.4625Z" fill="white"/>
</g>
<path d="M77.7576 26.2923C77.7576 26.8674 79.6479 27.3344 81.9794 27.3344C84.3108 27.3344 86.2011 26.8674 86.2011 26.2923C86.2011 25.7156 84.3108 25.2501 81.9794 25.2501C79.6479 25.2485 77.7576 25.7156 77.7576 26.2923Z" fill="#231F20"/>
<path d="M78.2647 26.0683C78.2647 26.4511 79.9273 26.7625 81.9793 26.7625C84.0313 26.7625 85.694 26.4527 85.694 26.0683C85.694 25.6854 84.0313 25.3741 81.9793 25.3741C79.9289 25.3741 78.2647 25.6854 78.2647 26.0683Z" fill="#757575"/>
<path d="M37.4149 26.2923C37.4149 26.8674 39.3052 27.3344 41.6366 27.3344C43.9681 27.3344 45.8584 26.8674 45.8584 26.2923C45.8584 25.7156 43.9681 25.2501 41.6366 25.2501C39.3052 25.2485 37.4149 25.7156 37.4149 26.2923Z" fill="#231F20"/>
<path d="M37.922 26.0683C37.922 26.4511 39.5846 26.7625 41.6366 26.7625C43.6886 26.7625 45.3512 26.4527 45.3512 26.0683C45.3512 25.6854 43.6886 25.3741 41.6366 25.3741C39.5846 25.3741 37.922 25.6854 37.922 26.0683Z" fill="#757575"/>
<path d="M122.394 23.0419C121.977 25.185 117.526 26.1016 115.42 25.6822C113.315 25.2628 111.948 23.1849 112.364 21.0434C112.781 18.9003 114.825 17.5039 116.931 17.9233C119.036 18.3427 122.812 20.8988 122.394 23.0419Z" fill="#200000"/>
<g opacity="0.5">
<path d="M113.551 19.6534C113.96 20.6908 114.857 21.5057 116.017 21.7361C117.33 21.9982 119.688 21.6566 121.046 20.7559C120.047 19.5247 118.198 18.4619 116.983 18.2188C115.62 17.9472 114.287 18.554 113.551 19.6534Z" fill="white"/>
</g>
<g opacity="0.5">
<path d="M14.8839 45.2828C14.8839 45.2828 5.20486 44.0834 3.03041 43.8833C0.857531 43.6831 0.461875 46.4823 0.659695 50.3792C1.45098 48.2806 2.53741 44.8825 14.8839 45.2828Z" fill="white"/>
</g>
<path d="M90.9174 56.3572H53.6471C53.3724 56.3572 53.3567 55.8044 53.3206 54.4668C53.2483 51.7708 53.1117 46.7523 50.5181 41.8911C47.5147 36.2626 42.7655 34.2784 39.9285 33.0948C39.4119 32.8772 38.9661 32.6913 38.594 32.5102C37.2689 31.8668 35.3723 27.0675 36.016 24.2064C36.3473 22.7353 37.0444 21.3071 39.7636 21.2436L39.9112 21.8965C37.214 21.8965 36.487 22.8306 36.1714 24.2398C35.5403 27.0453 37.3757 31.7381 38.6615 32.3656C39.0289 32.5436 39.4748 32.7295 39.9882 32.9455C42.8456 34.1386 47.6262 36.1355 50.6563 41.8149C53.2688 46.7079 53.4053 51.7518 53.4776 54.462C53.498 55.2356 53.5247 56.1968 53.6471 56.1968H90.9174V56.3572Z" fill="#231F20"/>
<path d="M41.6005 3.93542C31.7755 6.39305 25.9696 9.5703 21.2706 12.3345C17.9673 14.2774 15.471 16.4586 13.6231 18.5223C12.0531 20.2745 23.1797 10.201 41.6005 3.93542Z" fill="#80C2DC"/>
<path d="M183.185 47.6801C183.356 48.306 183.844 48.8319 184.381 49.0432C184.472 45.6355 182.902 37.4636 181.692 34.0607H180.72C180.013 34.0607 179.621 34.7184 179.844 35.5302L183.185 47.6801Z" fill="#2B2B2B"/>
<path opacity="0.7" d="M47.2149 6.70122L38.4605 15.5595C38.7777 16.9511 39.0964 18.3412 39.4182 19.7312L53.6974 5.28256C51.3298 5.71626 49.1836 6.19445 47.2149 6.70122Z" fill="white"/>
<path opacity="0.7" d="M54.5295 21.188L57.4261 21.1689C61.3967 17.1513 65.3672 13.1336 69.3377 9.11597C69.0378 8.44398 68.7537 7.76404 68.4663 7.08569L54.5295 21.188Z" fill="white"/>
<path opacity="0.7" d="M63.8898 3.85599C62.4093 4.01009 60.968 4.17372 59.6006 4.35641C54.0286 9.99289 48.4583 15.631 42.8864 21.269L46.7078 21.2436C52.4351 15.4467 58.1625 9.65133 63.8898 3.85599Z" fill="white"/>
<path opacity="0.7" d="M72.0742 15.2958C71.4195 13.7945 70.7633 12.2932 70.0897 10.7983L59.8565 21.153L66.328 21.1086L72.0742 15.2958Z" fill="white"/>
<path opacity="0.7" d="M74.9662 3.04418C74.0619 3.08389 73.189 3.13156 72.3255 3.1824L69.7664 5.77186C70.0537 6.4502 70.3379 7.12855 70.6362 7.80213L75.3462 3.03622C75.219 3.0394 75.0902 3.03941 74.9662 3.04418Z" fill="white"/>
<path opacity="0.7" d="M83.2008 4.03709C81.2305 3.56209 79.3763 3.23006 77.6933 3.10455L71.3882 9.48453C72.057 10.9778 72.7227 12.4743 73.3836 13.9708L83.2008 4.03709Z" fill="white"/>
<path opacity="0.7" d="M83.4128 20.9926C87.5482 16.8081 91.6835 12.6237 95.8189 8.43919C92.7684 7.09521 89.9095 5.98953 87.264 5.14755L74.9646 17.5929C75.445 18.7352 75.916 19.8822 76.3603 21.0403L83.4128 20.9926Z" fill="white"/>
<path opacity="0.7" d="M106.365 13.6483C105.04 12.935 103.743 12.2567 102.474 11.6133L93.2708 20.9259L99.2133 20.8862L106.365 13.6483Z" fill="white"/>
<path opacity="0.7" d="M109.131 15.1845C108.731 14.9637 108.324 14.735 107.925 14.5141L101.645 20.8687L103.526 20.856L109.131 15.1845Z" fill="white"/>
</svg>
