<svg width="184" height="62" viewBox="0 0 184 62" fill="none" xmlns="http://www.w3.org/2000/svg">
<path d="M97.2298 23.9682C96.9943 24.4654 96.404 24.6751 95.9126 24.4368C95.4211 24.1969 95.2139 23.6012 95.4494 23.1023L100.326 12.8318C100.561 12.3346 101.152 12.1248 101.645 12.3647C102.136 12.603 102.343 13.2003 102.106 13.6992L97.2298 23.9682Z" fill="#070000"/>
<path d="M90.0188 2.29276C89.9952 2.18632 89.8979 2.07986 89.7283 1.97501C86.4439 -0.0600303 52.5507 -4.28577 29.8077 13.0256C37.6514 11.7722 40.0535 9.82768 42.936 14.6889C45.8186 15.9042 50.3826 17.6056 56.3878 17.1195C56.3878 7.30651 75.4664 1.9099 89.6467 4.97756L90.0188 2.29276Z" fill="#262626"/>
<path d="M5.24037 32.3212C4.49776 35.2904 3.0722 37.4858 2.05484 37.2253C1.03905 36.9648 0.816109 34.3467 1.55872 31.3775C2.30133 28.4084 3.72689 26.2129 4.74425 26.4734C5.76004 26.734 5.98298 29.352 5.24037 32.3212Z" fill="#D60606"/>
<path d="M44.0445 15.3943C45.0932 17.1752 44.5155 19.4787 42.7555 20.5399C40.9955 21.6011 38.719 21.0165 37.6703 19.2356L35.7721 16.0107C34.7234 14.2299 35.3011 11.9263 37.0611 10.8651C38.8211 9.80389 41.0976 10.3885 42.1463 12.1694L44.0445 15.3943Z" fill="#070000"/>
<path d="M76.6377 17.4595C77.6865 19.2404 77.1087 21.5439 75.3487 22.6052C73.5888 23.6664 71.3123 23.0817 70.2635 21.3009L68.3654 18.0759C67.3166 16.2951 67.8944 13.9915 69.6543 12.9303C71.4143 11.8691 73.6908 12.4537 74.7396 14.2346L76.6377 17.4595Z" fill="#070000"/>
<path d="M107.545 20.122C106.315 21.7806 103.99 22.1158 102.351 20.8719C100.712 19.628 100.381 17.2752 101.61 15.6167L103.836 12.6142C105.066 10.9556 107.391 10.6204 109.03 11.8643C110.669 13.1082 111 15.461 109.771 17.1195L107.545 20.122Z" fill="#070000"/>
<path d="M180.729 50.8558C180.729 50.8558 180.57 49.2449 180.402 46.5808C181.339 45.1574 178.341 38.5439 176.413 34.6915C173.004 27.8842 150.991 17.3086 124.41 17.3086C112.611 10.6173 99.4875 4.21985 89.4897 2.2547C88.9339 2.14509 85.8033 3.07124 90.5071 5.44308C98.7888 9.62119 116.027 17.3006 102.505 17.3006C54.733 17.3006 44.6741 17.1005 43.294 14.7017C37.7048 6.70605 22.95 16.4221 16.0011 19.1641C7.1118 22.6718 1.51789 24.1938 3.14598 29.0677C4.43809 32.9344 3.50237 34.6359 1.75496 35.2427C-0.202835 35.9226 -0.581205 47.7818 1.09084 49.2418C3.67349 51.4992 16.8222 54.0125 21.7254 54.4446C29.3791 55.1197 104.252 54.9815 128.435 54.238C148.567 53.6185 190.989 54.157 180.729 50.8558Z" fill="#F4CC25"/>
<path d="M181.748 50.8829C181.438 50.7812 182.228 49.0003 180.666 48.0757C176.165 48.5682 173.216 47.9105 163.702 48.4459C161.661 48.5603 153.037 39.5082 150.949 39.6162C141.091 40.131 131.916 50.9687 125.18 51.172C122.946 51.2387 120.293 51.3007 117.307 51.3579C104.738 51.5978 86.2853 51.7471 68.5208 51.7964C61.6661 51.8154 51.9102 39.4844 45.638 39.4733C29.1562 39.4415 18.9951 51.6375 16.0058 51.3785C11.0258 50.9464 16.3795 44.3552 13.0715 43.4941C12.5236 43.3511 0.588447 41.6164 0.103317 41.1064C-0.631443 51.3912 2.74562 52.2681 4.14292 52.6399C7.37712 53.5009 12.8062 54.4096 17.6748 54.8418C25.2736 55.5169 100.158 55.3787 124.402 54.6352C144.587 54.0188 191.737 54.1841 181.748 50.8829Z" fill="#191919"/>
<path d="M174.237 37.8735C175.689 40.4995 178.597 45.4846 179.223 45.4735C179.842 45.4624 180.27 45.5037 180.551 45.5831C180.142 42.633 177.863 37.3651 176.49 34.9171C176.325 36.9537 174.237 37.8735 174.237 37.8735Z" fill="#191919"/>
<path d="M29.7104 28.8611C39.2811 28.8611 47.0416 36.7122 47.0416 46.3981C47.0416 46.9462 47.15 50.6175 47.2646 54.9863C32.8896 54.9482 21.3643 54.7877 17.4785 54.443C15.6369 54.2793 13.9099 54.0998 12.2975 53.8949C12.3336 50.1536 12.3823 47.0923 12.3823 46.3981C12.3807 36.7122 20.1397 28.8611 29.7104 28.8611Z" fill="#191919"/>
<path d="M135.621 28.8611C145.193 28.8611 152.952 36.7122 152.952 46.3981C152.952 46.8842 152.99 50.1917 153.087 53.8933C143.896 54.1729 133.415 53.9552 124.202 54.2364C122.57 54.2873 120.546 54.3365 118.2 54.3857C118.236 50.4237 118.288 47.1209 118.288 46.3965C118.291 36.7122 126.05 28.8611 135.621 28.8611Z" fill="#191919"/>
<path d="M135.802 61.6411C143.967 61.6411 150.586 54.9432 150.586 46.6809C150.586 38.4186 143.967 31.7207 135.802 31.7207C127.636 31.7207 121.017 38.4186 121.017 46.6809C121.017 54.9432 127.636 61.6411 135.802 61.6411Z" fill="#070000"/>
<path d="M129.388 51.0004C132.456 54.1046 132.041 48.6524 135.109 45.5482C138.177 42.444 143.564 42.8633 140.496 39.7591C137.428 36.655 132.454 36.655 129.388 39.7591C126.32 42.8633 126.32 47.8962 129.388 51.0004Z" fill="#F2A927"/>
<path d="M124.383 46.6809C124.383 53.0624 129.495 58.2366 135.803 58.2366C142.11 58.2366 147.223 53.0624 147.223 46.6809C147.223 40.2993 142.11 35.1251 135.803 35.1251C129.495 35.1251 124.383 40.2993 124.383 46.6809ZM126.479 50.1854L127.925 49.9519L126.735 50.8241C126.642 50.6159 126.559 50.4015 126.479 50.1854ZM126.028 48.5682C125.914 47.9565 125.848 47.3275 125.848 46.6809C125.848 46.0502 125.912 45.4354 126.022 44.8365L130.876 45.6197L132.354 46.7031L130.876 47.7866L126.028 48.5682ZM144.804 50.9591L143.432 49.9519L145.112 50.2235C145.019 50.4729 144.917 50.7192 144.804 50.9591ZM140.48 47.7866L139.003 46.7031L140.48 45.6197L145.576 44.7984C145.691 45.41 145.757 46.0375 145.757 46.6824C145.757 47.3417 145.689 47.9851 145.57 48.6095L140.48 47.7866ZM145.127 43.1795L143.433 43.4528L144.82 42.4345C144.933 42.6775 145.033 42.9269 145.127 43.1795ZM126.721 42.5695L127.925 43.4528L126.465 43.2176C126.543 42.9984 126.626 42.7808 126.721 42.5695ZM130.117 38.42L133.041 42.5012L133.329 44.3249L131.526 44.0342L127.521 41.0952C128.212 40.0467 129.095 39.1396 130.117 38.42ZM131.553 37.5812C131.771 37.4763 131.993 37.3794 132.22 37.2904L132.467 38.8568L131.553 37.5812ZM135.802 36.6073C136.398 36.6073 136.979 36.6693 137.547 36.7726L136.748 41.8451L135.678 43.34L134.607 41.8451L133.814 36.8107C134.458 36.6772 135.122 36.6073 135.802 36.6073ZM139.15 37.2047C139.394 37.2921 139.634 37.3874 139.868 37.4922L138.89 38.8568L139.15 37.2047ZM144.002 40.9745L139.832 44.0342L138.029 44.3249L138.317 42.5028L141.326 38.304C142.377 39.0125 143.284 39.9212 144.002 40.9745ZM141.304 55.0736L138.317 50.9051L138.029 49.0813L139.832 49.372L143.981 52.4158C143.262 53.4643 142.355 54.3667 141.304 55.0736ZM139.844 55.8807C139.615 55.9839 139.381 56.0745 139.144 56.1603L138.89 54.5494L139.844 55.8807ZM135.802 56.7544C135.123 56.7544 134.461 56.6845 133.82 56.5543L134.607 51.5628L135.678 50.0678L136.748 51.5628L137.54 56.5924C136.976 56.6909 136.397 56.7544 135.802 56.7544ZM132.227 56.0729C132.005 55.9871 131.789 55.8918 131.577 55.7901L132.467 54.5478L132.227 56.0729ZM127.539 52.2983L131.526 49.372L133.327 49.0813L133.04 50.9051L130.135 54.9577C129.117 54.2412 128.233 53.3404 127.539 52.2983Z" fill="#F9EFF0"/>
<path d="M133.173 54.605L131.927 54.084L133.63 51.7074L133.173 54.605ZM138.183 54.605L137.728 51.7074L139.431 54.0824L138.183 54.605ZM134.018 50.7589L134.462 47.9311L131.671 48.3823L133.96 46.7031L131.671 45.0224L134.462 45.4735L134.018 42.6474L135.679 44.9652L137.339 42.6489L136.893 45.4751L139.689 45.0255L137.397 46.7063L139.687 48.3855L136.894 47.9343L137.34 50.7621L135.681 48.4443L134.018 50.7589ZM128.385 50.4984L127.87 49.237L130.734 48.7763L128.385 50.4984ZM142.972 50.4984L140.625 48.7763L143.487 49.237L142.972 50.4984ZM140.625 44.63L142.973 42.9063L143.49 44.1677L140.625 44.63ZM130.732 44.63L127.87 44.1692L128.385 42.9079L130.732 44.63ZM133.63 41.6989L131.927 39.3239L133.173 38.8012L133.63 41.6989ZM137.726 41.6989L138.183 38.8012L139.428 39.3223L137.726 41.6989Z" fill="#999999"/>
<path d="M135.802 33.8431C128.207 33.8431 122.022 39.872 121.623 47.4561C121.609 47.1972 121.584 46.943 121.584 46.6809C121.584 38.7346 127.948 32.2942 135.802 32.2942C143.655 32.2942 150.019 38.7361 150.019 46.6809C150.019 46.943 149.994 47.1972 149.98 47.4561C149.581 39.872 143.396 33.8431 135.802 33.8431Z" fill="#262626"/>
<path d="M135.802 58.2922C141.947 58.2922 146.952 53.4135 147.275 47.2782C147.286 47.4879 147.307 47.6945 147.307 47.9057C147.307 54.335 142.155 59.5473 135.802 59.5473C129.448 59.5473 124.297 54.335 124.297 47.9057C124.297 47.6945 124.317 47.4879 124.328 47.2782C124.653 53.4135 129.658 58.2922 135.802 58.2922Z" fill="#262626"/>
<path d="M14.2914 46.6809C14.2914 54.9434 20.9105 61.6411 29.0761 61.6411C37.2417 61.6411 43.8608 54.9434 43.8608 46.6809C43.8608 38.4184 37.2417 31.7207 29.0761 31.7207C20.9105 31.7207 14.2914 38.4184 14.2914 46.6809Z" fill="#070000"/>
<path d="M22.6627 51.0004C25.7304 54.1046 25.316 48.6524 28.3837 45.5482C31.4515 42.444 36.8398 42.8633 33.772 39.7591C30.7042 36.655 25.7304 36.655 22.6642 39.7591C19.5949 42.8633 19.5949 47.8962 22.6627 51.0004Z" fill="#F2A927"/>
<path d="M17.6559 46.6809C17.6559 53.0624 22.7694 58.2366 29.0761 58.2366C35.3828 58.2366 40.4963 53.0624 40.4963 46.6809C40.4963 40.2993 35.3828 35.1251 29.0761 35.1251C22.7694 35.1251 17.6559 40.2993 17.6559 46.6809ZM19.7534 50.1854L21.1994 49.9519L20.0109 50.8241C19.9167 50.6159 19.8319 50.4015 19.7534 50.1854ZM19.3013 48.5682C19.1867 47.9565 19.1207 47.3275 19.1207 46.6809C19.1207 46.0502 19.1851 45.4354 19.295 44.8365L24.1494 45.6197L25.6268 46.7031L24.1494 47.7866L19.3013 48.5682ZM38.0785 50.9591L36.7063 49.9519L38.3862 50.2235C38.292 50.4729 38.1899 50.7192 38.0785 50.9591ZM33.7531 47.7866L32.2757 46.7031L33.7531 45.6197L38.8493 44.7984C38.964 45.41 39.0299 46.0375 39.0299 46.6824C39.0299 47.3417 38.9624 47.9851 38.8431 48.6095L33.7531 47.7866ZM38.4003 43.1795L36.7063 43.4528L38.0926 42.4345C38.2056 42.6775 38.3077 42.9269 38.4003 43.1795ZM19.9936 42.5695L21.1978 43.4528L19.7377 43.2176C19.8178 42.9984 19.901 42.7808 19.9936 42.5695ZM23.3895 38.42L26.3145 42.5012L26.6018 44.3249L24.7994 44.0342L20.7943 41.0952C21.4851 40.0467 22.369 39.1396 23.3895 38.42ZM24.8261 37.5812C25.0443 37.4763 25.2657 37.3794 25.4933 37.2904L25.7398 38.8568L24.8261 37.5812ZM29.0761 36.6073C29.6727 36.6073 30.2536 36.6693 30.8219 36.7726L30.0228 41.8451L28.9521 43.34L27.8813 41.8451L27.0885 36.8107C27.7306 36.6772 28.3947 36.6073 29.0761 36.6073ZM32.4249 37.2047C32.6683 37.2921 32.9085 37.3874 33.1424 37.4922L32.1643 38.8568L32.4249 37.2047ZM37.2746 40.9745L33.1047 44.0342L31.3024 44.3249L31.5897 42.5028L34.5994 38.304C35.6497 39.0125 36.5587 39.9212 37.2746 40.9745ZM34.5774 55.0736L31.5897 50.9051L31.3024 49.0813L33.1047 49.372L37.2542 52.4158C36.5352 53.4643 35.6277 54.3667 34.5774 55.0736ZM33.1188 55.8807C32.8896 55.9839 32.6557 56.0745 32.417 56.1603L32.1627 54.5494L33.1188 55.8807ZM29.0761 56.7544C28.3979 56.7544 27.7353 56.6845 27.0948 56.5543L27.8813 51.5628L28.9521 50.0678L30.0228 51.5628L30.8157 56.5924C30.2489 56.6909 29.6711 56.7544 29.0761 56.7544ZM25.4996 56.0729C25.2783 55.9871 25.0632 55.8918 24.8496 55.7901L25.7398 54.5478L25.4996 56.0729ZM20.8116 52.2983L24.7994 49.372L26.6002 49.0813L26.3129 50.9051L23.4084 54.9577C22.3895 54.2412 21.5056 53.3404 20.8116 52.2983Z" fill="#F9EFF0"/>
<path d="M26.4479 54.605L25.2013 54.084L26.9048 51.7074L26.4479 54.605ZM31.4562 54.605L31.0009 51.7074L32.7044 54.0824L31.4562 54.605ZM27.2926 50.7589L27.7369 47.9311L24.9454 48.3823L27.2345 46.7031L24.9454 45.0224L27.7369 45.4735L27.2926 42.6474L28.9536 44.9652L30.6131 42.6489L30.1673 45.4751L32.9634 45.0255L30.6712 46.7063L32.9619 48.3855L30.1673 47.9343L30.6131 50.7621L28.9536 48.4443L27.2926 50.7589ZM21.6594 50.4984L21.1445 49.237L24.0081 48.7763L21.6594 50.4984ZM36.2463 50.4984L33.8991 48.7763L36.7613 49.237L36.2463 50.4984ZM33.8976 44.63L36.2463 42.9063L36.7628 44.1677L33.8976 44.63ZM24.0066 44.63L21.1445 44.1692L21.6594 42.9079L24.0066 44.63ZM26.9032 41.6989L25.1998 39.3239L26.4464 38.8012L26.9032 41.6989ZM31.0009 41.6989L31.4578 38.8012L32.7028 39.3223L31.0009 41.6989Z" fill="#999999"/>
<path d="M29.0761 33.8431C21.482 33.8431 15.2962 39.872 14.8959 47.4561C14.8817 47.1972 14.8566 46.943 14.8566 46.6809C14.8566 38.7346 21.223 32.2942 29.0745 32.2942C36.9261 32.2942 43.2925 38.7361 43.2925 46.6809C43.2925 46.943 43.2674 47.1972 43.2532 47.4561C42.856 39.872 36.6702 33.8431 29.0761 33.8431Z" fill="#262626"/>
<path d="M29.0761 58.2922C35.2211 58.2922 40.2262 53.4135 40.5497 47.2782C40.5606 47.4879 40.5811 47.6945 40.5811 47.9057C40.5811 54.335 35.4299 59.5473 29.0761 59.5473C22.7223 59.5473 17.5711 54.335 17.5711 47.9057C17.5711 47.6945 17.5915 47.4879 17.6025 47.2782C17.926 53.4135 22.9311 58.2922 29.0761 58.2922Z" fill="#262626"/>
<path d="M162.622 51.0036L165.665 47.8406C166.062 47.1607 166.919 46.8604 167.498 46.835L180.088 46.4172C181.021 46.4172 181.054 50.5397 180.178 50.5397L162.622 51.0036Z" fill="#2B2B2B"/>
<path d="M89.5619 2.33887C101.497 5.0888 113.308 11.3909 123.309 17.3118L119.062 17.2514C105.505 7.10159 88.2463 3.29364 89.5619 2.33887Z" fill="#80C2DC"/>
<path d="M73.3595 52.0711H110.748C114.726 52.0711 114.764 46.8874 114.815 39.7115C114.83 37.8242 114.844 35.8718 114.928 33.8177C115.34 23.8093 115.326 22.0062 112.38 16.9988L112.204 17.1036C115.12 22.0602 115.134 23.8538 114.724 33.8082C114.64 35.8671 114.625 37.8211 114.611 39.71C114.561 46.7667 114.523 51.8646 110.748 51.8646H73.3595C69.0467 51.8646 65.0307 48.4983 61.4228 41.8594C58.2907 36.0958 56.4962 29.6888 56.022 27.8619C55.113 24.3653 55.3391 21.69 56.6955 19.9092C57.9186 18.3031 60.0773 17.4547 62.9394 17.4547V17.2482C60.013 17.2482 57.7977 18.1252 56.5338 19.7837C55.1365 21.6186 54.8979 24.3542 55.8242 27.9143C56.3015 29.746 58.1007 36.1736 61.2438 41.9578C64.891 48.6698 68.9682 52.0711 73.3595 52.0711Z" fill="#231F20"/>
<g opacity="0.5">
<path d="M147.605 23.1468C96.4197 23.1643 67.1831 22.308 32.3809 26.6164C26.5405 23.293 15.1157 24.6227 15.1157 24.6227C83.3023 13.839 147.605 23.1468 147.605 23.1468Z" fill="white"/>
</g>
<g opacity="0.5">
<path d="M133.545 24.8975C141 24.3748 151.536 25.4408 155.229 40.0419L151.772 39.3413C146.923 30.1956 139.54 28.3242 134.016 28.7102C125.323 29.3187 119.397 36.5168 118.276 43.6783C117.593 34.755 124.852 25.5059 133.545 24.8975Z" fill="white"/>
</g>
<g opacity="0.5">
<path d="M118.137 36.6915L40.5669 31.4936L46.2299 38.5566L118.137 36.6915Z" fill="white"/>
</g>
<g opacity="0.5">
<path d="M177.402 45.0859L153.802 40.7219L160.424 46.3219L177.402 45.0859Z" fill="white"/>
</g>
<g opacity="0.5">
<path d="M176.775 50.8558L153.081 51.4865L159.077 52.8146L176.179 51.4023L176.775 50.8558Z" fill="white"/>
</g>
<path d="M61.7415 26.0159C64.7044 26.0159 67.1062 25.5258 67.1062 24.9213C67.1062 24.3168 64.7044 23.8268 61.7415 23.8268C58.7787 23.8268 56.3768 24.3168 56.3768 24.9213C56.3768 25.5258 58.7787 26.0159 61.7415 26.0159Z" fill="#231F20"/>
<path d="M57.0221 24.6878C57.0221 25.0897 59.1353 25.4154 61.7431 25.4154C64.3509 25.4154 66.4641 25.0897 66.4641 24.6878C66.4641 24.2859 64.3509 23.9586 61.7431 23.9586C59.1353 23.9586 57.0221 24.2859 57.0221 24.6878Z" fill="#540C16"/>
<g opacity="0.5">
<path d="M88.9355 4.64715C89.2856 4.33419 89.9136 4.20871 90.1208 4.24684C99.0086 5.93238 107.815 11.7722 118.729 17.9012C159.028 21.6996 169.547 30.758 173.937 37.5669C175.154 39.4542 179.531 47.1368 180.664 49.8947C180.966 42.8332 177.796 38.787 176.414 34.6915C174.257 28.2956 151.235 17.5008 123.185 17.3086C111.93 10.6172 99.3273 4.21983 89.4897 2.25469C89.0077 2.15778 86.4769 2.86311 88.9355 4.64715Z" fill="white"/>
<path d="M2.3594 37.1062C4.30777 36.4294 5.78357 34.5961 5.7192 30.5371C5.63913 25.5504 11.4999 23.9681 20.9576 20.4223C28.1906 17.7105 34.8521 13.5372 43.7634 17.0083C51.4721 19.431 57.6783 18.3269 101.527 17.9869C104.898 17.9599 106.168 17.4087 106.1 16.5476C105.529 17.0878 104.077 17.4086 101.392 17.4086C54.7315 17.4086 44.9221 17.2085 43.7634 14.8097C38.9388 6.81405 23.7554 16.5301 16.75 19.2721C7.78846 22.7798 1.97004 23.7028 3.17423 28.5768C4.12879 32.4435 3.31239 34.7438 1.55713 35.3491C0.883598 35.5826 0.0656257 39.7608 0.243036 41.297C0.607276 39.6909 1.83816 37.2873 2.3594 37.1062Z" fill="white"/>
</g>
<path d="M172.923 49.0066C173.527 48.2743 173.43 47.6801 172.704 47.6801H170.283C169.56 47.6801 168.483 48.2743 167.878 49.0066C167.274 49.739 167.371 50.3331 168.095 50.3331H170.516C171.243 50.3331 172.318 49.739 172.923 49.0066Z" fill="white"/>
<path d="M158.315 24.8626C161.4 20.9005 165.931 19.5041 165.931 19.5041C165.931 19.5041 166.961 24.6513 165.643 28.5673C163.382 28.6991 158.315 24.8626 158.315 24.8626Z" fill="#F9EFF0"/>
<path d="M158.315 24.8626C161.4 20.9005 165.931 19.5041 165.931 19.5041C165.931 19.5041 165.338 23.1309 165.643 28.5673C163.382 28.6991 158.315 24.8626 158.315 24.8626Z" fill="#F4CC25"/>
<path d="M114.955 18.7479C114.537 20.891 110.087 21.8076 107.981 21.3882C105.876 20.9688 104.508 18.8909 104.924 16.7494C105.342 14.6063 107.386 13.2099 109.491 13.6293C111.597 14.0471 115.373 16.6048 114.955 18.7479Z" fill="#FFE161"/>
<g opacity="0.5">
<path d="M106.11 15.3593C106.519 16.3967 107.416 17.2117 108.576 17.442C109.889 17.7041 112.247 17.3626 113.605 16.4618C112.606 15.2306 110.757 14.1678 109.542 13.9247C108.181 13.6531 106.848 14.26 106.11 15.3593Z" fill="white"/>
</g>
<g opacity="0.5">
<path d="M57.8197 45.2193C71.1239 48.2568 106.02 49.4833 117.346 45.3528C106.812 48.9511 68.3559 56.2794 57.8197 45.2193Z" fill="white"/>
</g>
</svg>
