<svg width="191" height="71" viewBox="0 0 191 71" fill="none" xmlns="http://www.w3.org/2000/svg">
<path d="M188.99 44.1257C189.532 47.5731 190.312 51.9974 190.312 51.9974C192.846 53.0411 187.398 64.0281 180.894 64.0281C180.894 64.0281 79.1907 63.7374 15.5052 63.7374C13.6589 63.7374 7.71327 63.4467 4.59682 62.762C3.02211 62.4157 -2.27037 46.6643 1.10356 45.8398C1.79436 40.699 1.19934 31.639 2.00946 26.406C1.36419 24.3472 4.56385 20.2565 5.90306 18.2484C6.44314 17.1602 9.60983 10.9597 14.2272 5.52182C14.2617 5.48052 14.301 5.43446 14.3434 5.38045C15.3812 4.10478 18.4332 0.353996 28.9177 0.0346802L29.6587 0.0124515C33.747 -0.113051 76.3961 0.867127 80.4294 0.825823C80.8015 0.822646 81.15 0.819472 81.4703 0.819472C88.5573 0.811529 98.464 1.94262 105.479 5.20568L146.676 23.386C150.985 25.4052 163.536 27.8993 166.264 28.6111C187.376 34.1173 188.416 40.6355 188.99 44.1257Z" fill="#4A7ECA"/>
<path d="M132.893 27.7612C132.626 27.7612 132.326 27.75 132.002 27.7278L15.926 20.984C13.6008 20.8268 11.6603 19.6893 10.8549 18.018C10.252 16.7646 10.3666 15.3936 11.1767 14.1466C11.4562 13.5143 13.4878 9.03908 16.9857 4.84508C17.014 4.81013 17.047 4.77043 17.0831 4.72436C17.8696 3.73623 20.2639 0.727335 29.3793 0.53511C29.5175 0.531933 29.6996 0.530334 29.9241 0.530334C33.6937 0.530334 49.5083 0.940221 62.2158 1.26907C70.3877 1.48036 77.4449 1.66305 78.9458 1.67575C86.0186 1.73295 95.5532 2.85292 101.105 5.82367L125.846 19.1841C135.1 24.182 135.631 25.545 135.368 26.6031C135.08 27.7612 133.491 27.7612 132.893 27.7612Z" fill="#BCBCBC"/>
<path d="M125.46 19.9133C132.654 23.7975 137.948 27.3084 132.057 26.9081L15.9731 20.1643C12.4359 19.9244 10.1358 17.1602 11.8926 14.5469C11.8926 14.5469 13.9493 9.76668 17.6074 5.37887C18.2197 4.64492 20.1728 1.55503 29.3966 1.36122C33.3592 1.27861 74.9752 2.47007 78.9395 2.50184C85.579 2.55585 95.2 3.59799 100.725 6.55444L125.46 19.9133Z" fill="#232122"/>
<path d="M30.0779 2.1698L29.4107 2.18408C22.4839 2.33023 19.8996 4.1127 18.8383 5.19615C19.6155 10.1686 20.9782 15.0044 22.6942 19.7306L35.1899 20.4566C35.4458 19.1269 35.7252 17.802 36.0329 16.4818C36.9718 12.4467 38.132 8.45921 39.5937 4.58611C39.8779 3.8331 40.1934 3.09598 40.5263 2.36521C35.1899 2.23176 31.1361 2.14597 30.0779 2.1698Z" fill="#80C2DC"/>
<path d="M42.0602 5.52183C40.6582 9.28372 39.4948 13.1362 38.5842 17.0506C38.3095 18.2325 38.0583 19.4193 37.8259 20.6107L76.4118 22.8221C76.2815 15.0457 75.3285 9.58084 74.3849 3.11667C67.2399 2.93875 52.923 2.68297 43.3868 2.43832C42.9064 3.4487 42.4511 4.47175 42.0602 5.52183Z" fill="#80C2DC"/>
<path d="M100.342 7.28044C95.0493 4.4479 85.8114 3.37875 78.9301 3.32315C78.6161 3.31997 78.2738 3.32 77.908 3.32C77.5971 3.32 77.0633 3.31206 76.3474 3.29935C77.4323 9.79687 77.9629 16.3738 78.2204 22.9571L115.888 25.1447C116.981 22.579 118.059 20.007 119.179 17.4541L100.342 7.28044Z" fill="#80C2DC"/>
<path d="M1.18053 55.1493C2.27796 58.9922 3.85267 62.5984 4.59685 62.762C7.7133 63.4467 13.6589 63.7374 15.5052 63.7374C79.1907 63.7374 180.894 64.0281 180.894 64.0281C183.519 64.0281 185.505 62.4188 187.508 60.4728C189.906 55.6481 187.976 55.3558 187.976 55.3558C158.857 55.3399 1.18053 55.1493 1.18053 55.1493Z" fill="#2F5C91"/>
<path d="M171.551 61.5101C160.996 61.5101 167.343 59.0589 129.401 59.0589C116.117 59.0589 99.8959 61.086 83.0576 61.0637C78.6224 61.0574 53.4066 57.8515 49.0593 57.8467C37.8589 57.8356 25.3962 60.9954 15.5068 60.9954C13.6605 60.9954 7.71488 60.7047 4.59843 60.02C3.5167 59.7817 2.85415 59.6769 2.60766 59.3544C3.38167 61.2846 4.1447 62.6635 4.59843 62.7636C7.71488 63.4483 13.673 63.909 15.5193 63.909C79.2048 63.909 180.895 64.0297 180.895 64.0297C183.377 64.0297 185.704 62.43 187.494 60.3949C183.536 60.4982 184.486 61.5101 171.551 61.5101Z" fill="#191919"/>
<path d="M31.3167 37.1659C41.0789 37.1659 48.9917 45.1726 48.9917 55.0508C48.9917 55.61 49.1016 59.3544 49.2194 63.8105C34.5587 63.7724 19.1397 63.7358 13.6604 63.7358C13.6824 61.4832 13.6416 57.4051 13.6416 55.0508C13.6416 45.1726 21.5544 37.1659 31.3167 37.1659Z" fill="#191919"/>
<path d="M144.69 38.1921C154.45 38.3653 162.223 46.5118 162.052 56.3884C162.044 56.884 162.022 60.182 162.058 63.9582C152.681 64.0774 141.999 63.7406 132.599 63.8629C130.935 63.8836 128.869 63.8995 126.476 63.9058C126.583 59.8659 126.694 56.4996 126.707 55.7609C126.878 45.8859 134.929 38.019 144.69 38.1921Z" fill="#191919"/>
<path d="M129.547 55.3399C129.547 63.766 136.298 70.5972 144.625 70.5972C152.952 70.5972 159.703 63.766 159.703 55.3399C159.703 46.9138 152.952 40.0826 144.625 40.0826C136.298 40.0826 129.547 46.9122 129.547 55.3399Z" fill="#070000"/>
<path d="M132.977 55.3399C132.977 61.8485 138.191 67.1244 144.624 67.1244C151.056 67.1244 156.271 61.8485 156.271 55.3399C156.271 48.8313 151.056 43.5538 144.624 43.5538C138.193 43.5538 132.977 48.8297 132.977 55.3399ZM135.116 58.9143L136.591 58.6761L135.378 59.5657C135.282 59.3528 135.197 59.1336 135.116 58.9143ZM134.656 57.2637C134.538 56.6394 134.472 55.9976 134.472 55.3383C134.472 54.6949 134.538 54.0674 134.649 53.4574L139.601 54.2564L141.108 55.3622L139.603 56.4678L134.656 57.2637ZM153.807 59.7023L152.408 58.6745L154.12 58.9509C154.025 59.2083 153.921 59.4577 153.807 59.7023ZM149.396 56.4663L147.889 55.3606L149.396 54.2548L154.595 53.4177C154.711 54.0404 154.778 54.6822 154.778 55.3383C154.778 56.0103 154.709 56.6664 154.588 57.3034L149.396 56.4663ZM154.135 51.7687L152.408 52.0467L153.822 51.0077C153.937 51.2571 154.04 51.5097 154.135 51.7687ZM135.362 51.1459L136.59 52.0467L135.1 51.8068C135.182 51.5828 135.266 51.3619 135.362 51.1459ZM138.826 46.9138L141.809 51.076L142.101 52.9363L140.262 52.6408L136.177 49.6431C136.883 48.5723 137.785 47.6478 138.826 46.9138ZM140.29 46.0591C140.513 45.9526 140.739 45.8526 140.97 45.762L141.221 47.3586L140.29 46.0591ZM144.625 45.0662C145.234 45.0662 145.826 45.1297 146.406 45.233L145.591 50.4056L144.498 51.9307L143.405 50.4056L142.597 45.2711C143.253 45.1377 143.931 45.0662 144.625 45.0662ZM148.04 45.6731C148.288 45.7636 148.533 45.8589 148.772 45.967L147.775 47.3586L148.04 45.6731ZM152.987 49.5191L148.734 52.6392L146.895 52.9363L147.189 51.0776L150.258 46.7946C151.331 47.5191 152.255 48.4452 152.987 49.5191ZM150.236 63.8979L147.189 59.6467L146.895 57.7864L148.734 58.0835L152.965 61.1877C152.233 62.2568 151.307 63.1782 150.236 63.8979ZM148.748 64.7224C148.514 64.8273 148.275 64.9194 148.034 65.0067L147.775 63.3641L148.748 64.7224ZM144.625 65.612C143.933 65.612 143.258 65.5405 142.605 65.4071L143.407 60.3155L144.5 58.7904L145.592 60.3155L146.399 65.4452C145.821 65.5485 145.231 65.612 144.625 65.612ZM140.978 64.9178C140.752 64.8304 140.532 64.7335 140.314 64.6302L141.221 63.3625L140.978 64.9178ZM136.196 61.0685L140.264 58.0835L142.101 57.7864L141.807 59.6467L138.844 63.7803C137.805 63.0495 136.904 62.1313 136.196 61.0685Z" fill="#757575"/>
<path d="M141.944 63.4213L140.672 62.8891L142.408 60.4664L141.944 63.4213ZM147.052 63.4213L146.588 60.4649L148.324 62.8875L147.052 63.4213ZM142.805 59.499L143.258 56.6156L140.411 57.0747L142.746 55.3622L140.411 53.648L143.259 54.1071L142.807 51.2237L144.501 53.5876L146.194 51.2253L145.74 54.1071L148.591 53.648L146.253 55.3622L148.589 57.0747L145.74 56.6156L146.194 59.499L144.501 57.1351L142.805 59.499ZM137.061 59.2321L136.535 57.9453L139.455 57.475L137.061 59.2321ZM151.937 59.2321L149.542 57.475L152.463 57.9453L151.937 59.2321ZM149.542 53.2477L151.937 51.4906L152.464 52.7774L149.542 53.2477ZM139.454 53.2477L136.533 52.7774L137.059 51.4922L139.454 53.2477ZM142.41 50.2578L140.673 47.8352L141.945 47.303L142.41 50.2578ZM146.588 50.2578L147.054 47.303L148.324 47.8352L146.588 50.2578Z" fill="#999999"/>
<path d="M144.625 42.2464C136.88 42.2464 130.572 48.396 130.164 56.1295C130.15 55.8658 130.125 55.6068 130.125 55.3399C130.125 47.2363 136.617 40.6673 144.625 40.6673C152.634 40.6673 159.127 47.2363 159.127 55.3399C159.127 55.6068 159.102 55.8673 159.088 56.1295C158.678 48.396 152.37 42.2464 144.625 42.2464Z" fill="#262626"/>
<path d="M144.625 67.1816C150.893 67.1816 155.997 62.206 156.328 55.9484C156.339 56.1612 156.359 56.3725 156.359 56.587C156.359 63.1449 151.106 68.4605 144.625 68.4605C138.144 68.4605 132.891 63.1449 132.891 56.587C132.891 56.371 132.911 56.1612 132.922 55.9484C133.254 62.206 138.358 67.1816 144.625 67.1816Z" fill="#262626"/>
<path d="M30.6698 70.5972C38.9973 70.5972 45.7481 63.7663 45.7481 55.3399C45.7481 46.9136 38.9973 40.0826 30.6698 40.0826C22.3423 40.0826 15.5916 46.9136 15.5916 55.3399C15.5916 63.7663 22.3423 70.5972 30.6698 70.5972Z" fill="#070000"/>
<path d="M19.022 55.3399C19.022 61.8485 24.236 67.1244 30.6698 67.1244C37.1037 67.1244 42.3177 61.8485 42.3177 55.3399C42.3177 48.8313 37.1037 43.5538 30.6698 43.5538C24.236 43.5538 19.022 48.8297 19.022 55.3399ZM21.1603 58.9143L22.6346 58.6761L21.421 59.5657C21.3268 59.3528 21.242 59.1336 21.1603 58.9143ZM20.7003 57.2637C20.5826 56.6394 20.5166 55.9976 20.5166 55.3383C20.5166 54.6949 20.5826 54.0674 20.6941 53.4574L25.6458 54.2564L27.153 55.3622L25.6474 56.4678L20.7003 57.2637ZM39.8512 59.7023L38.4523 58.6745L40.1652 58.9509C40.0694 59.2083 39.9642 59.4577 39.8512 59.7023ZM35.4411 56.4663L33.9354 55.3606L35.4426 54.2548L40.6409 53.4177C40.7571 54.0404 40.8246 54.6822 40.8246 55.3383C40.8246 56.0103 40.7555 56.6664 40.6346 57.3034L35.4411 56.4663ZM40.1793 51.7687L38.4523 52.0467L39.8669 51.0077C39.9799 51.2571 40.0836 51.5097 40.1793 51.7687ZM21.4068 51.1459L22.6346 52.0467L21.1447 51.8068C21.2263 51.5828 21.3111 51.3619 21.4068 51.1459ZM24.8702 46.9138L27.8533 51.076L28.1468 52.9363L26.3084 52.6408L22.2232 49.6431C22.9282 48.5723 23.8278 47.6478 24.8702 46.9138ZM26.3351 46.0591C26.558 45.9526 26.7841 45.8526 27.0149 45.762L27.2661 47.3586L26.3351 46.0591ZM30.6698 45.0662C31.5945 45.0662 31.1879 45.0074 32.4502 45.233L31.6354 50.4056L30.5427 51.9307L29.4499 50.4056L28.6414 45.2711C29.2977 45.1377 29.9743 45.0662 30.6698 45.0662ZM34.0846 45.6731C34.3326 45.7636 34.5776 45.8589 34.8162 45.967L33.8193 47.3586L34.0846 45.6731ZM39.0316 49.5191L34.7785 52.6392L32.94 52.9363L33.2321 51.0776L36.3014 46.7946C37.3737 47.5191 38.3 48.4452 39.0316 49.5191ZM36.281 63.8979L33.2336 59.6467L32.9416 57.7864L34.7801 58.0835L39.0112 61.1877C38.2765 62.2568 37.3517 63.1782 36.281 63.8979ZM34.7927 64.7224C34.5587 64.8273 34.3201 64.9194 34.0783 65.0067L33.8193 63.3641L34.7927 64.7224ZM30.6698 65.612C29.9774 65.612 29.3024 65.5405 28.6492 65.4071L29.4499 60.3155L30.5427 58.7904L31.6354 60.3155L32.4439 65.4452C31.8662 65.5485 31.2758 65.612 30.6698 65.612ZM27.0227 64.9178C26.7966 64.8304 26.5768 64.7335 26.3586 64.6302L27.2676 63.3625L27.0227 64.9178ZM22.2405 61.0685L26.3084 58.0835L28.1453 57.7864L27.8517 59.6467L24.8891 63.7803C23.8498 63.0495 22.9486 62.1313 22.2405 61.0685Z" fill="#757575"/>
<path d="M27.9883 63.4213L26.7166 62.8891L28.453 60.4664L27.9883 63.4213ZM33.0971 63.4213L32.6323 60.4649L34.3687 62.8875L33.0971 63.4213ZM28.8502 59.499L29.3024 56.6156L26.456 57.0747L28.789 55.3622L26.4544 53.648L29.3024 54.1071L28.8502 51.2237L30.5442 53.5876L32.2367 51.2253L31.783 54.1071L34.6341 53.648L32.2964 55.3622L34.6325 57.0747L31.783 56.6156L32.2367 59.499L30.5442 57.1351L28.8502 59.499ZM23.104 59.2321L22.5781 57.9453L25.4983 57.475L23.104 59.2321ZM37.9813 59.2321L35.5871 57.475L38.5073 57.9453L37.9813 59.2321ZM35.5871 53.2477L37.9813 51.4906L38.5073 52.7774L35.5871 53.2477ZM25.4983 53.2477L22.5781 52.7774L23.104 51.4922L25.4983 53.2477ZM28.4546 50.2578L26.7181 47.8352L27.9898 47.303L28.4546 50.2578ZM32.6323 50.2578L33.0971 47.303L34.3672 47.8352L32.6323 50.2578Z" fill="#999999"/>
<path d="M30.6698 42.2464C22.925 42.2464 16.6168 48.396 16.2086 56.1295C16.1944 55.8658 16.1693 55.6068 16.1693 55.3399C16.1693 47.2363 22.6612 40.6673 30.6698 40.6673C38.6784 40.6673 45.1704 47.2363 45.1704 55.3399C45.1704 55.6068 45.1452 55.8673 45.1311 56.1295C44.7229 48.396 38.4146 42.2464 30.6698 42.2464Z" fill="#262626"/>
<path d="M30.6698 67.1816C36.9373 67.1816 42.0413 62.206 42.3726 55.9484C42.3836 56.1612 42.404 56.3725 42.404 56.587C42.404 63.1449 37.1508 68.4605 30.6698 68.4605C24.1889 68.4605 18.9356 63.1449 18.9356 56.587C18.9356 56.371 18.9561 56.1612 18.9671 55.9484C19.2968 62.206 24.4024 67.1816 30.6698 67.1816Z" fill="#262626"/>
<path d="M106.46 7.56644C108.559 8.60382 133.255 21.3034 136.221 22.6235C144.222 26.1853 150.941 26.5903 153.054 25.4751C150.459 24.7809 148.111 24.0565 146.676 23.3845L104.752 4.87844C104.373 4.77677 103.019 5.8666 106.46 7.56644Z" fill="#232122"/>
<path d="M107.419 7.56644C109.518 8.60382 133.682 20.7537 136.62 22.1374C142.454 24.8858 150.196 25.7802 153.053 25.4736C150.458 24.7793 148.109 24.0549 146.674 23.3829L105.477 5.20254C104.386 4.69418 103.979 5.8666 107.419 7.56644Z" fill="#80C2DC"/>
<path d="M135.441 25.8135L135.249 25.8818C135.742 27.2846 135.805 29.2323 134.728 35.4835C124.404 42.885 124.232 50.4151 124.148 54.0372C124.138 54.4995 124.126 54.8951 124.096 55.216C122.815 55.2128 104.047 55.1794 82.7844 55.1461V55.1413C82.7577 55.1413 82.7342 55.1445 82.7075 55.1461C82.2443 55.1461 81.7796 55.1445 81.3149 55.1445C81.1406 55.1016 80.9726 55.0333 80.8156 54.8935C79.4874 53.7036 78.5658 48.3848 77.5045 23.7292L77.3004 23.7387C78.3711 48.6073 79.2786 53.7942 80.6822 55.0476C80.7356 55.0968 80.7952 55.108 80.8518 55.1445C71.325 55.1302 61.4042 55.1159 52.4065 55.1048L52.4143 54.9808C52.5745 52.6471 53.0015 46.4499 49.1911 41.4473C46.8456 38.3669 43.7197 36.6178 40.9612 35.0737C37.7113 33.2563 35.1459 31.8201 35.4128 28.9622L35.4458 28.592C35.5525 27.3942 35.7723 24.9048 36.3768 21.3621L36.1758 21.3272C35.5714 24.8762 35.35 27.3719 35.2433 28.5714L35.2103 28.9415C34.9308 31.9329 37.5496 33.3976 40.8623 35.2532C43.6035 36.7862 46.709 38.5258 49.0294 41.5712C52.7927 46.5118 52.3704 52.6551 52.2118 54.9666L52.1883 55.3113H52.2966C61.4654 55.3224 71.6029 55.3367 81.3055 55.351C81.4421 55.3812 81.5802 55.405 81.7231 55.405C81.8848 55.405 82.0512 55.3923 82.2192 55.378C82.3778 55.3653 82.5442 55.3558 82.7138 55.3526C104.611 55.386 123.911 55.4225 124.192 55.4225V55.3192L124.292 55.3303C124.331 54.9872 124.339 54.5488 124.352 54.042C124.433 50.4501 124.603 42.9771 134.879 35.6281L134.913 35.6027L134.921 35.5613C136.014 29.2322 135.948 27.2528 135.441 25.8135Z" fill="#244D7F"/>
<path d="M90.1038 28.5507C90.1038 29.345 89.4663 29.9487 88.6813 29.8963L81.2285 29.4006C80.4435 29.3482 79.8061 28.6603 79.8061 27.866C79.8061 27.0717 80.4435 26.4696 81.2285 26.5205L88.6813 27.0161C89.4663 27.0685 90.1038 27.7548 90.1038 28.5507Z" fill="#244D7F"/>
<path d="M88.6672 27.221L81.2144 26.7254C81.1861 26.7238 81.1595 26.7222 81.1328 26.7222C80.6571 26.7222 80.2599 27.0082 80.0934 27.4228C80.2442 27.9502 80.7167 28.3601 81.2756 28.3966L88.7284 28.8923C88.7567 28.8939 88.7834 28.8955 88.8101 28.8955C89.2858 28.8955 89.683 28.6095 89.8494 28.1965C89.6987 27.669 89.2261 27.2576 88.6672 27.221Z" fill="#4A7ECA"/>
<path d="M47.2145 25.5672C47.2145 26.3631 46.5771 26.9652 45.7921 26.9128L38.3393 26.4172C37.5527 26.3647 36.9169 25.6784 36.9169 24.8825C36.9169 24.0866 37.5543 23.4845 38.3393 23.5369L45.7921 24.0326C46.5771 24.0866 47.2145 24.7729 47.2145 25.5672Z" fill="#244D7F"/>
<path d="M45.7779 24.2392L38.3252 23.7435C38.2985 23.7419 38.2702 23.7403 38.2435 23.7403C37.7678 23.7403 37.3706 24.0262 37.2026 24.4409C37.3533 24.9683 37.8259 25.3782 38.3848 25.4147L45.8376 25.9104C45.8659 25.912 45.8926 25.9136 45.9193 25.9136C46.395 25.9136 46.7922 25.6276 46.9586 25.213C46.811 24.6872 46.3384 24.2757 45.7779 24.2392Z" fill="#4A7ECA"/>
<path opacity="0.2" d="M189.499 51.9974C189.499 51.9974 168.773 53.0252 167.351 53.0252C165.928 53.0252 162.735 35.215 144.85 35.215C128.975 35.215 125.174 48.7009 126.234 55.316H126.581C127.31 44.7643 135.675 37.2247 145.368 37.984C157.848 38.961 162.363 50.8663 162.025 55.2382C161.953 55.378 177.98 55.1461 187.976 55.3558C189.424 56.193 188.007 59.7769 188.007 59.7769C188.007 59.7769 193.355 52.2166 189.499 51.9974Z" fill="white"/>
<path opacity="0.2" d="M50.0232 52.0339C50.0232 42.1558 41.6457 34.1491 31.3104 34.1491C20.9751 34.1491 12.5976 42.1558 12.5976 52.0339C12.5976 52.8807 12.6023 53.9514 12.6086 55.0793H13.6416C13.6416 55.0698 13.6416 55.0603 13.6416 55.0507C13.6416 45.1726 21.5544 37.1659 31.3167 37.1659C41.0789 37.1659 48.9918 45.1726 48.9918 55.0507C48.9918 55.0841 48.9917 55.1302 48.9933 55.1842H49.9573C50.0609 53.6607 50.0232 52.3262 50.0232 52.0339Z" fill="white"/>
<path opacity="0.2" d="M39.8967 34.3095L130.958 39.2454L50.6701 43.9764C50.6701 43.9764 48.6369 38.629 39.8967 34.3095Z" fill="white"/>
<path opacity="0.2" d="M13.9478 7.6395C13.9478 7.6395 4.00183 19.6146 15.926 20.9856C25.2455 22.0564 147.77 29.0035 147.77 29.0035C147.77 29.0035 134.189 30.8368 111.47 30.6874C74.9313 30.4475 31.155 28.0694 17.2008 28.0694C11.5614 28.071 -2.99095 26.7 13.9478 7.6395Z" fill="white"/>
<path opacity="0.2" d="M2.38313 47.3443C0.528957 47.2776 0.222819 50.369 0.222819 50.369C0.222819 50.369 -0.590457 46.4832 1.10357 45.8383C3.86834 45.9288 11.4059 46.577 13.4375 46.7152C13.1329 47.1394 8.83583 47.5746 2.38313 47.3443Z" fill="white"/>
<path d="M1.2025 35.9029C3.91232 35.9029 5.68171 36.8466 5.68171 33.5549C5.68171 30.2632 4.86845 21.0778 6.62999 17.6495C8.39153 14.2212 12.5929 7.91434 12.5929 7.91434C12.5929 7.91434 11.7796 7.22802 9.61143 10.3831C7.44326 13.5365 1.07376 23.4099 1.07376 24.3694C1.07376 25.3274 0.524262 35.9029 1.2025 35.9029Z" fill="#5C1F24"/>
<path d="M8.07597 13.751C9.43716 11.5015 10.9365 9.1948 11.6414 8.12247C11.1704 8.43384 10.5063 9.08037 9.61143 10.3831C9.21736 10.9566 8.68356 11.7525 8.07597 12.6755V13.751Z" fill="#C7212B"/>
<path d="M5.45407 19.1444V16.7297C3.22624 20.2406 1.07376 23.8118 1.07376 24.3694C1.07376 24.7586 0.982701 26.7317 0.921471 28.9399H5.0129C4.91085 25.7579 4.87003 21.8451 5.45407 19.1444Z" fill="#C7212B"/>
<path d="M5.1385 33.0513C5.13693 32.6415 5.12437 32.149 5.10553 31.5898H0.868095C0.863385 32.0997 0.861815 32.5922 0.868095 33.0513H5.1385Z" fill="#D86B32"/>
<path opacity="0.2" d="M1.10338 50.466C1.79418 45.3267 1.19916 36.2651 2.00928 31.0322C1.36401 28.9733 4.56367 24.8825 5.90288 22.8745C6.44296 21.7863 9.60965 15.5859 14.227 10.148C14.2616 10.1067 14.3008 10.059 14.3432 10.0065C15.381 8.73087 18.433 4.98011 28.9175 4.6608L29.6585 4.63854C33.7468 4.51463 76.3959 5.49327 80.4292 5.45196C80.8013 5.44879 81.1498 5.44557 81.4701 5.44557C88.5571 5.43762 98.4638 6.56876 105.479 9.83182L146.675 28.0122C150.985 30.0313 163.536 32.5255 166.264 33.2372C187.376 38.7466 188.415 45.2632 188.99 48.755C189.42 51.5018 190.003 54.8649 190.222 56.1199C191.095 54.0976 191.24 52.3803 190.312 51.999C190.312 51.999 189.532 47.5762 188.99 44.1273C188.415 40.6354 187.376 34.1189 166.264 28.6095C163.536 27.8978 150.886 25.6006 146.578 23.5831L105.48 5.20413C98.4654 1.94107 88.5587 0.809933 81.4717 0.817876C81.1514 0.817876 80.8029 0.821074 80.4308 0.824252C76.3975 0.865556 33.75 -0.113058 29.6601 0.010856L28.9191 0.033109C18.4331 0.352425 15.3825 4.10318 14.3448 5.37885C14.3008 5.43287 14.2631 5.48056 14.2286 5.52027C9.61121 10.9582 6.44454 17.1586 5.90446 18.2468C4.56525 20.2549 1.36557 24.3456 2.01084 26.4045C1.20072 31.6375 1.79576 40.699 1.10496 45.8383C-0.132202 46.1401 -0.202853 48.4484 0.279137 51.2682C0.454977 50.8425 0.725007 50.5597 1.10338 50.466Z" fill="white"/>
<path d="M189.105 44.1368C189.105 44.1368 183.112 44.0399 181.875 44.0399C180.638 44.0399 179.021 36.6273 171.125 34.6066C178.355 35.4724 186.346 37.1087 188.345 41.1518C189.009 43.4632 189.105 44.1368 189.105 44.1368Z" fill="#2F5C91"/>
<path d="M187.582 41.6347C185.888 38.208 179.889 36.5098 173.697 35.5439C179.399 38.2986 180.785 44.0415 181.873 44.0415C182.819 44.0415 186.538 44.0971 188.241 44.1241C188.142 43.6841 187.949 42.9088 187.582 41.6347Z" fill="white"/>
<path d="M178.729 39.73C178.729 39.73 182.691 37.8125 182.501 37.7362C179.985 36.7242 176.867 36.038 173.697 35.5439C175.981 36.648 177.572 38.2303 178.729 39.73Z" fill="#C7DEF9"/>
<path d="M180.497 42.383C181.096 43.3727 181.503 44.0415 181.873 44.0415C182.819 44.0415 186.538 44.0971 188.241 44.1241C188.163 43.7778 188.026 43.2234 187.792 42.383H180.497Z" fill="#D86B32"/>
<path d="M189.132 45.0121H183.436C182.596 45.0121 181.914 45.7016 181.914 46.5531C181.914 47.403 182.596 48.0941 183.436 48.0941H189.64C189.474 47.1076 189.296 46.0384 189.132 45.0121Z" fill="#2F5C91"/>
<path d="M189.017 46.5515C189.017 45.9145 188.505 45.3966 187.875 45.3966H182.432C182.115 45.6794 181.914 46.0908 181.914 46.5515C181.914 47.0122 182.115 47.4253 182.432 47.7065H187.875C188.505 47.7065 189.017 47.1902 189.017 46.5515Z" fill="white"/>
<path opacity="0.7" d="M20.1194 11.4172C19.5998 9.36632 19.1664 7.29317 18.8383 5.19617C19.8918 4.12066 22.443 2.36045 29.2411 2.18887L20.1194 11.4172ZM39.5199 2.3398C37.358 2.28737 35.4411 2.24289 33.893 2.2127L21.1494 15.1076C21.5952 16.5692 22.0804 18.0212 22.6 19.4621C28.2395 13.7541 33.8789 8.04618 39.5199 2.3398ZM30.4563 20.1817L35.1899 20.4566C35.4458 19.1269 35.7252 17.802 36.0329 16.4818C36.2339 15.6176 36.4474 14.755 36.6704 13.8955C34.598 15.9893 32.5272 18.0863 30.4563 20.1817ZM80.913 3.36765C80.3886 3.35017 79.8721 3.33585 79.3697 3.32949L76.7619 5.96824C76.8294 6.43688 76.8906 6.90715 76.9534 7.37579C78.2722 6.03975 79.5926 4.70369 80.913 3.36765ZM102.378 8.38139L100.342 7.28203C99.1878 6.66405 97.8454 6.13187 96.3822 5.67434L79.2425 23.0175L87.4442 23.4941C92.4226 18.4549 97.4011 13.4174 102.378 8.38139ZM105.733 10.1924L104.793 9.68404L90.9453 23.6958L92.3096 23.7753L105.733 10.1924ZM74.578 4.43201C74.5137 3.99672 74.4493 3.55829 74.3833 3.11506C71.1743 3.03563 66.5208 2.94028 61.5015 2.83702C55.5371 8.87225 49.5742 14.9059 43.6098 20.9412L57.4776 21.7355L74.578 4.43201ZM75.261 9.0883C75.195 8.62283 75.1291 8.1574 75.0616 7.69034L60.9818 21.9372L62.478 22.023L75.261 9.0883ZM54.0597 2.68135C51.9481 2.63686 49.8647 2.5908 47.8849 2.54473C45.431 5.02776 42.9755 7.5124 40.5216 9.99543C39.7853 12.3196 39.1368 14.6724 38.5842 17.049C38.4555 17.6034 38.333 18.1579 38.2137 18.7139C43.4952 13.3713 48.7782 8.02711 54.0597 2.68135Z" fill="white"/>
<path opacity="0.7" d="M105.479 5.20255L112.475 8.28926C112.077 8.69118 111.679 9.09471 111.282 9.49664C109.286 8.4958 107.862 7.78408 107.419 7.56485C103.979 5.8666 104.386 4.69418 105.479 5.20255ZM135.167 18.3056L133.216 17.4446C132.547 18.1213 131.88 18.7965 131.211 19.4733C131.881 19.8069 132.511 20.1198 133.09 20.4074L135.167 18.3056ZM126.581 14.5151L116.516 10.0733L115.163 11.4427C118.128 12.9297 121.571 14.6549 124.832 16.2864C125.415 15.6971 125.999 15.1061 126.581 14.5151Z" fill="white"/>
</svg>
