<svg width="193" height="83" viewBox="0 0 193 83" fill="none" xmlns="http://www.w3.org/2000/svg">
<path d="M87.2465 37.0804V1.371C87.2465 0.614813 86.6404 0 85.8916 0C85.1427 0 84.5367 0.613224 84.5367 1.371V38.553C85.4316 38.0431 86.3327 37.5475 87.2465 37.0804Z" fill="#B2B2B2"/>
<path d="M85.5854 37.97V0.0380859C84.9857 0.179475 84.5382 0.719618 84.5382 1.37096V38.553C84.8852 38.3544 85.2353 38.1622 85.5854 37.97Z" fill="#F2F2F2"/>
<path d="M87.2465 37.0804V1.371C87.2465 0.903941 87.0141 0.494072 86.6609 0.247833V37.3949C86.8556 37.2917 87.0487 37.1805 87.2465 37.0804Z" fill="#939393"/>
<path d="M87.4098 27.5501C87.4098 28.3063 86.8037 28.9211 86.0548 28.9211H5.988C5.24068 28.9211 4.63308 28.3078 4.63308 27.5501C4.63308 26.7923 5.23911 26.1791 5.988 26.1791H86.0548C86.8037 26.1791 87.4098 26.7923 87.4098 27.5501Z" fill="#B2B2B2"/>
<path d="M87.372 27.2388C87.2323 26.6319 86.6969 26.1776 86.0548 26.1776H5.98795C5.34582 26.1776 4.81043 26.6303 4.67227 27.2388H87.372Z" fill="white"/>
<path d="M4.87959 28.327C5.12294 28.6844 5.528 28.9195 5.98958 28.9195H86.0564C86.518 28.9195 86.9231 28.6844 87.1664 28.327H4.87959Z" fill="#939393"/>
<path d="M131.55 63.0387C131.55 64.8958 130.062 66.4018 128.227 66.4018H69.854C68.0187 66.4018 66.5304 64.8958 66.5304 63.0387C66.5304 61.1816 68.0187 59.6755 69.854 59.6755H128.227C130.062 59.6739 131.55 61.18 131.55 63.0387Z" fill="#2D2D2D"/>
<path d="M8.46549 62.7162H190.973C192.03 61.9362 192.732 60.7447 192.732 58.9146C192.732 54.1805 192.978 48.9475 191.008 48.6981V40.6008C191.008 34.6211 186.576 35.7427 186.576 35.7427C186.576 35.7427 186.329 33.9984 183.374 31.258C177.711 30.0125 144.96 27.7694 144.96 27.7694C144.96 27.7694 129.864 9.22521 125.306 2.71816C123.583 -0.0222382 87.3705 0.570339 87.3705 0.570339C86.9278 1.59819 86.9827 27.8377 86.9827 27.8377C79.8188 27.8377 3.28762 29.2659 3.28762 29.2659C1.45072 40.3466 2.11955 50.4424 1.56377 50.4424C0.332892 50.4424 1.81023 60.9067 1.81023 60.9067C1.81023 60.9067 4.67237 61.8488 8.46549 62.7162Z" fill="#D60606"/>
<path opacity="0.7" d="M175.275 35.9413L2.93592 33.0357L3.67382 29.6725L133.905 28.8401L181.969 31.8299L175.275 35.9413Z" fill="white"/>
<path d="M140.708 26.0123C137.133 21.3592 128.387 9.93533 124.391 4.35445L123.944 3.72853L123.19 3.60622C120.921 3.23606 107.821 2.81667 91.0914 2.52118L89.2121 2.48782V58.4332L133.271 58.3649L140.201 42.2562L140.791 26.1188L140.708 26.0123ZM139.495 42.0242L132.786 57.6199L89.95 57.685V3.25036L91.0773 3.26942C107.759 3.56331 120.829 3.97955 123.072 4.34335L123.524 4.41801L123.793 4.79292C127.765 10.342 136.416 21.642 140.042 26.3635L139.495 42.0242Z" fill="#BF0C0C"/>
<path d="M91.0584 4.39099C108.41 4.69601 121.016 5.14559 122.895 5.4522C126.867 11.0013 135.356 22.0947 139.25 27.1609L91.0584 27.2213V4.39099Z" fill="#2D2D2D"/>
<path d="M91.8497 5.20438C109.088 5.51575 119.998 5.92722 122.455 6.19887C126.099 11.2666 133.138 20.4998 137.637 26.3618L91.8497 26.419V5.20438Z" fill="#80C2DC"/>
<path d="M135.483 62.4604C135.855 62.4318 136.088 62.0808 136.105 62.049L140.32 47.4272C140.468 47.1698 142.093 45.4684 142.295 45.2285C142.895 44.7726 145.705 44.145 146.247 43.6287C147.283 42.9933 149.525 43.6287 150.593 43.6287L166.037 45.2094C168.076 45.2094 170.557 46.6583 171.577 48.4471L179.409 62.1729C182.707 61.7297 189.128 64.227 189.128 64.227L159.192 73.0662L129.202 64.3652C129.213 64.316 135.474 62.5129 135.483 62.4604ZM66.5398 62.2476C66.5335 62.2476 66.524 62.246 66.5178 62.246C66.4895 62.2428 66.466 62.2396 66.4424 62.2381C66.3734 62.2301 66.3152 62.2221 66.2697 62.2142C66.2524 62.211 66.2321 62.2078 66.2179 62.2047C66.1693 62.1935 66.1347 62.1824 66.1284 62.1729L58.2973 48.4471C57.2768 46.6599 54.7962 45.2094 52.7567 45.2094L35.4255 43.6287C33.3861 43.6287 29.1361 46.6583 28.1156 48.4471L20.6094 61.0196C20.589 61.0545 23.6631 62.246 23.6097 62.2857C23.5579 62.3254 23.4903 62.3699 23.4103 62.4144L2.6219 63.8457L44.924 73.5634L88.0284 61.6042C88.0064 61.5501 66.5602 62.3032 66.5398 62.2476Z" fill="#2D2D2D"/>
<path d="M22.0978 64.5955L30.0388 48.4486C30.9102 46.6614 33.2699 45.211 35.3109 45.211H50.9732C53.0126 45.211 55.6141 46.6598 56.7822 48.4486L65.7532 62.1745C66.1394 62.7638 136.344 62.7638 136.631 62.1745L143.322 48.4486C144.194 46.6614 146.553 45.211 148.594 45.211H164.257C166.296 45.211 168.897 46.6598 170.066 48.4486L179.037 62.1745C179.423 62.7638 188.926 64.2286 188.926 64.2286C190.501 63.4962 191.571 62.2062 191.381 59.9297C191.353 59.5786 191.325 59.2228 191.298 58.8685H181.994L173.717 46.2071C171.642 43.033 167.506 40.7279 163.883 40.7279H148.221C144.597 40.7279 140.845 43.033 139.297 46.2071L133.125 58.8685H68.7111L60.434 46.2071C58.3585 43.033 54.2231 40.7279 50.5996 40.7279H34.9372C31.3137 40.7279 27.5614 43.033 26.0134 46.2071L19.8417 58.8685H3.05176e-05C0.347001 60.5842 1.09747 64.5955 1.09747 64.5955C1.09747 64.5955 4.06163 65.6933 9.5425 66.6496C9.53936 66.6496 21.8104 65.1849 22.0978 64.5955Z" fill="#D4D6D6"/>
<path d="M19.95 60.1807L26.1216 47.5193C27.6696 44.3452 31.4219 42.0401 35.0455 42.0401H50.7078C54.3314 42.0401 58.4667 44.3452 60.5423 47.5193L68.8193 60.1807H133.233L139.407 47.5193C140.955 44.3452 144.707 42.0401 148.33 42.0401H163.993C167.616 42.0401 171.752 44.3452 173.827 47.5193L182.104 60.1807H191.388C191.385 60.0949 191.391 60.0171 191.383 59.9281C191.355 59.577 191.326 59.2212 191.3 58.8685H181.996L173.719 46.2071C171.643 43.033 167.508 40.7279 163.884 40.7279H148.222C144.599 40.7279 140.846 43.033 139.298 46.2071L133.127 58.8685H68.7126L60.4355 46.2071C58.36 43.033 54.2246 40.7279 50.601 40.7279H34.9387C31.3152 40.7279 27.5629 43.033 26.0149 46.2071L19.8432 58.8685H0.00154877C0.0973188 59.3435 0.1915 59.7851 0.27628 60.1807H19.95Z" fill="white"/>
<path d="M62.1594 65.3438C62.1594 74.9773 54.4429 82.7855 44.9224 82.7855C35.4019 82.7855 27.6853 74.9773 27.6853 65.3438C27.6853 55.7103 35.4019 47.9022 44.9224 47.9022C54.4429 47.9022 62.1594 55.7103 62.1594 65.3438Z" fill="#242424"/>
<path d="M44.9225 52.7602C38.0537 52.7602 32.4865 58.3935 32.4865 65.3438C32.4865 72.2925 38.0537 77.9274 44.9225 77.9274C51.7896 77.9274 57.3584 72.2941 57.3584 65.3438C57.3584 58.3935 51.7896 52.7602 44.9225 52.7602ZM56.3725 65.3438C56.3725 65.8855 56.3222 66.4146 56.2515 66.9356L52.3627 66.7688L50.0532 65.2199L52.358 63.6741L56.2155 63.5089C56.3097 64.1062 56.3725 64.7163 56.3725 65.3438ZM47.7955 67.8078C47.9855 67.9285 48.1582 68.089 48.2885 68.2971L48.8615 69.2105L47.9541 68.6275C47.7532 68.4988 47.5977 68.3304 47.48 68.143C47.4392 67.9634 47.3779 67.7935 47.2979 67.6298C47.458 67.7061 47.6228 67.7665 47.7955 67.8078ZM47.2884 62.8179C47.3654 62.6574 47.4234 62.4906 47.4643 62.3158C47.5836 62.1236 47.7421 61.9489 47.9478 61.817L48.8506 61.2372L48.2744 62.1554C48.1472 62.3588 47.9808 62.516 47.7955 62.6352C47.6181 62.6765 47.4486 62.7384 47.2884 62.8179ZM48.5774 66.4543C48.4533 66.3192 48.3152 66.2032 48.166 66.1016C48.3419 66.0888 48.5146 66.0571 48.6842 66.0046C48.9087 66.0126 49.1363 66.065 49.353 66.1778L50.3013 66.6782L49.2274 66.6322C48.9903 66.6242 48.772 66.5559 48.5774 66.4543ZM49.3435 64.2651C49.1332 64.3763 48.9102 64.4287 48.692 64.4383C48.5177 64.3842 48.3419 64.3525 48.1613 64.3413C48.3074 64.2413 48.4408 64.1269 48.5617 63.995C48.7595 63.8886 48.9825 63.8187 49.2258 63.8076L50.295 63.7615L49.3435 64.2651ZM49.3608 62.6209L50.5917 60.1172L53.8118 58.0472C54.5214 58.9305 55.1007 59.9234 55.5309 60.9957L52.1256 62.7956L49.3608 62.6209ZM49.9574 59.4738L47.4768 60.7225L47.3057 57.9312L49.0515 54.5458C50.1175 54.9637 51.1051 55.534 51.9875 56.2377L49.9574 59.4738ZM47.2178 56.503L47.0623 53.966C47.5914 54.0677 48.1064 54.209 48.6072 54.3806L47.2178 56.503ZM47.2366 73.9526L48.7454 76.2546C48.2022 76.4484 47.6448 76.6088 47.0671 76.72L47.2366 73.9526ZM47.323 72.5244L47.4941 69.7252L49.9684 70.9707L52.0973 74.3625C51.2181 75.0806 50.2306 75.6652 49.1646 76.0957L47.323 72.5244ZM49.3718 67.8189L52.1303 67.6457L55.6063 69.4822C55.1949 70.5657 54.6313 71.5712 53.9358 72.4704L50.6043 70.3289L49.3718 67.8189ZM53.5417 67.5584L56.184 67.3931C56.0835 67.9603 55.9438 68.5131 55.7648 69.0501L53.5417 67.5584ZM53.537 62.883L55.6926 61.4373C55.8779 61.96 56.0365 62.4938 56.1479 63.0466L53.537 62.883ZM53.5025 57.6882L51.2213 58.8367L52.3517 56.538C52.763 56.8923 53.1445 57.2783 53.5025 57.6882ZM46.596 53.8945L46.4375 57.6945L44.9067 60.0314L43.3791 57.7009L43.219 53.8992C43.7763 53.815 44.3416 53.7563 44.9225 53.7563C45.4924 53.7563 46.0481 53.8135 46.596 53.8945ZM45.7954 68.5131C45.8943 68.6609 46.0073 68.7959 46.1376 68.9182C46.2428 69.1184 46.3119 69.344 46.3229 69.5902L46.3684 70.6721L45.8707 69.7078C45.7608 69.4949 45.709 69.2693 45.6996 69.0485C45.7514 68.8737 45.7828 68.6958 45.7954 68.5131ZM45.6823 61.4183C45.6901 61.1911 45.742 60.9607 45.8534 60.7415L46.348 59.782L46.3025 60.8686C46.2931 61.1085 46.2255 61.3293 46.1251 61.5263C45.9916 61.6518 45.877 61.7916 45.7765 61.9425C45.7655 61.7646 45.7341 61.5898 45.6823 61.4183ZM43.5298 69.5918C43.5392 69.3519 43.6068 69.1311 43.7072 68.9341C43.8407 68.8086 43.9553 68.6688 44.0558 68.5179C44.0684 68.6958 44.0997 68.8706 44.1515 69.0421C44.1437 69.2693 44.0919 69.4997 43.9804 69.7189L43.4859 70.6784L43.5298 69.5918ZM43.4655 59.7868L43.9631 60.7495C44.073 60.9623 44.1249 61.1879 44.1343 61.4088C44.0809 61.5851 44.0495 61.763 44.0385 61.9457C43.9396 61.7979 43.8266 61.6629 43.6963 61.5406C43.5911 61.3404 43.5204 61.1149 43.511 60.8686L43.4655 59.7868ZM33.4724 65.3438C33.4724 64.7242 33.5337 64.1205 33.6263 63.528L37.4696 63.6932L39.7791 65.2421L37.4743 66.7879L33.5949 66.9547C33.5226 66.4257 33.4724 65.8903 33.4724 65.3438ZM40.4903 66.1953C40.7007 66.0841 40.9221 66.0317 41.1419 66.0221C41.3161 66.0762 41.492 66.1079 41.6725 66.1191C41.5265 66.2191 41.3931 66.3335 41.2722 66.4654C41.0744 66.5718 40.8514 66.6417 40.6081 66.6528L39.5389 66.6989L40.4903 66.1953ZM40.4809 64.281L39.5326 63.7806L40.6065 63.8267C40.8436 63.8378 41.0618 63.9045 41.2565 64.0061C41.3805 64.1412 41.5186 64.2572 41.6678 64.3588C41.492 64.3716 41.3208 64.4033 41.1497 64.4558C40.9252 64.4478 40.6976 64.3954 40.4809 64.281ZM41.5595 68.305C41.6866 68.1017 41.8531 67.9444 42.0384 67.8253C42.2158 67.784 42.3838 67.722 42.5455 67.641C42.4685 67.8014 42.4104 67.9682 42.3696 68.143C42.2503 68.3352 42.0917 68.5099 41.886 68.6418L40.9833 69.2217L41.5595 68.305ZM42.0368 62.6526C41.8468 62.5319 41.6741 62.3714 41.5438 62.1633L40.9707 61.2499L41.8782 61.8329C42.0791 61.9616 42.2346 62.13 42.3523 62.3174C42.3931 62.497 42.4544 62.6669 42.5344 62.8306C42.3743 62.7527 42.2095 62.6939 42.0368 62.6526ZM42.3382 60.7336L39.8639 59.4881L37.8339 56.2552C38.7162 55.5498 39.7022 54.9763 40.7651 54.5569L42.5093 57.936L42.3382 60.7336ZM40.4621 62.6399L37.7036 62.8131L34.3061 61.018C34.7331 59.9456 35.3109 58.9527 36.019 58.0663L39.228 60.1299L40.4621 62.6399ZM36.2921 62.9021L33.6969 63.0641C33.8052 62.5128 33.9623 61.9807 34.146 61.4612L36.2921 62.9021ZM36.2968 67.5774L34.0847 69.0612C33.9057 68.5274 33.7644 67.9778 33.664 67.4122L36.2968 67.5774ZM37.7067 67.6648L40.473 67.838L39.2406 70.3416L35.9154 72.48C35.2199 71.5824 34.6546 70.5784 34.2433 69.4949L37.7067 67.6648ZM39.8764 70.9866L42.3571 69.7379L42.5282 72.5292L40.685 76.1004C39.619 75.6699 38.6314 75.0869 37.7522 74.3704L39.8764 70.9866ZM42.6161 73.9574L42.7856 76.72C42.2095 76.6104 41.6521 76.4515 41.1105 76.2561L42.6161 73.9574ZM42.5973 56.5078L41.211 54.3917C41.7118 54.2186 42.2236 54.074 42.7527 53.9708L42.5973 56.5078ZM37.4696 56.557L38.5969 58.8494L36.3251 57.7056C36.6815 57.2973 37.063 56.9129 37.4696 56.557ZM36.1995 72.839L38.611 71.6237L37.4068 74.0702C36.9767 73.6905 36.5701 73.2806 36.1995 72.839ZM43.2284 76.7883L43.3964 72.7659L44.9271 70.429L46.4547 72.7595L46.6227 76.7867C46.0669 76.8709 45.5018 76.9281 44.9225 76.9281C44.3447 76.9297 43.7826 76.8725 43.2284 76.7883ZM52.4427 74.0654L51.2354 71.6094L53.6548 72.8279C53.2827 73.2727 52.876 73.6825 52.4427 74.0654Z" fill="#E3E5E5"/>
<path d="M44.9225 51.116C53.413 51.116 60.3697 57.7406 61.0306 66.1588C61.0652 65.7251 61.0872 65.2866 61.0872 64.8434C61.0872 55.8088 53.8495 48.4852 44.9225 48.4852C35.9939 48.4852 28.7561 55.8088 28.7561 64.8434C28.7561 65.2866 28.7781 65.7235 28.8127 66.1588C29.4752 57.7406 36.4319 51.116 44.9225 51.116Z" fill="#383838"/>
<path d="M44.9225 80.9776C35.7018 80.9776 28.1721 73.6524 27.7074 64.4399C27.6917 64.7385 27.6838 65.0404 27.6838 65.3438C27.6838 74.9773 35.4004 82.7855 44.9209 82.7855C54.4414 82.7855 62.1579 74.9773 62.1579 65.3438C62.1579 65.0404 62.15 64.7401 62.1359 64.4399C61.6728 73.6524 54.1431 80.9776 44.9225 80.9776Z" fill="#111111"/>
<path d="M44.9225 52.7602C51.6656 52.7602 57.1418 58.1949 57.3396 64.9689C57.3427 64.8434 57.3584 64.721 57.3584 64.5955C57.3584 57.6468 51.7912 52.012 44.9225 52.012C38.0537 52.012 32.4865 57.6453 32.4865 64.5955C32.4865 64.721 32.5006 64.8434 32.5053 64.9689C32.7031 58.1949 38.1793 52.7602 44.9225 52.7602Z" fill="#111111"/>
<path d="M44.9225 77.9655C51.6656 77.9655 57.1418 72.5308 57.3396 65.7569C57.3427 65.8824 57.3584 66.0047 57.3584 66.1302C57.3584 73.0789 51.7912 78.7137 44.9225 78.7137C38.0537 78.7137 32.4865 73.0805 32.4865 66.1302C32.4865 66.0047 32.5006 65.8824 32.5053 65.7569C32.7031 72.5308 38.1793 77.9655 44.9225 77.9655Z" fill="#383838"/>
<path d="M175.845 65.3438C175.845 74.9773 168.127 82.7855 158.608 82.7855C149.087 82.7855 141.371 74.9773 141.371 65.3438C141.371 55.7103 149.087 47.9022 158.608 47.9022C168.127 47.9022 175.845 55.7103 175.845 65.3438Z" fill="#242424"/>
<path d="M158.606 52.7602C151.739 52.7602 146.172 58.3935 146.172 65.3438C146.172 72.2925 151.739 77.9274 158.606 77.9274C165.475 77.9274 171.042 72.2941 171.042 65.3438C171.042 58.3935 165.475 52.7602 158.606 52.7602ZM170.058 65.3438C170.058 65.8855 170.009 66.4146 169.937 66.9356L166.048 66.7688L163.738 65.2183L166.042 63.6725L169.899 63.5073C169.995 64.1062 170.058 64.7163 170.058 65.3438ZM161.481 67.8078C161.671 67.9285 161.843 68.089 161.974 68.2971L162.547 69.2105L161.639 68.6275C161.438 68.4988 161.283 68.3304 161.165 68.143C161.124 67.9634 161.063 67.7935 160.983 67.6298C161.142 67.7061 161.307 67.7665 161.481 67.8078ZM160.972 62.8179C161.049 62.6574 161.107 62.4906 161.148 62.3158C161.267 62.1236 161.426 61.9489 161.632 61.817L162.534 61.2372L161.958 62.1554C161.831 62.3588 161.665 62.516 161.481 62.6352C161.302 62.6765 161.134 62.7384 160.972 62.8179ZM162.261 66.4543C162.137 66.3192 161.999 66.2032 161.85 66.1016C162.026 66.0888 162.198 66.0571 162.368 66.0046C162.592 66.0126 162.82 66.065 163.037 66.1778L163.985 66.6782L162.911 66.6322C162.674 66.6242 162.456 66.5559 162.261 66.4543ZM163.027 64.2651C162.817 64.3763 162.595 64.4287 162.376 64.4383C162.201 64.3842 162.026 64.3525 161.845 64.3413C161.991 64.2413 162.125 64.1269 162.245 63.995C162.443 63.8886 162.666 63.8187 162.909 63.8076L163.979 63.7615L163.027 64.2651ZM163.045 62.6209L164.275 60.1172L167.495 58.0472C168.205 58.9305 168.786 59.9234 169.215 60.9957L165.809 62.7956L163.045 62.6209ZM163.641 59.4738L161.161 60.7225L160.989 57.9312L162.735 54.5458C163.801 54.9637 164.789 55.534 165.671 56.2377L163.641 59.4738ZM160.901 56.503L160.746 53.966C161.275 54.0677 161.79 54.209 162.291 54.3806L160.901 56.503ZM160.92 73.9526L162.429 76.2546C161.886 76.4484 161.329 76.6088 160.751 76.72L160.92 73.9526ZM161.008 72.5244L161.179 69.7252L163.654 70.9707L165.783 74.3625C164.903 75.0806 163.916 75.6652 162.851 76.0957L161.008 72.5244ZM163.056 67.8189L165.814 67.6457L169.29 69.4822C168.879 70.5657 168.315 71.5712 167.619 72.4704L164.288 70.3289L163.056 67.8189ZM167.225 67.5584L169.868 67.3931C169.767 67.9603 169.628 68.5131 169.449 69.0501L167.225 67.5584ZM167.221 62.883L169.376 61.4373C169.562 61.96 169.722 62.4938 169.832 63.0466L167.221 62.883ZM167.186 57.6882L164.907 58.8367L166.037 56.538C166.447 56.8923 166.828 57.2783 167.186 57.6882ZM160.28 53.8945L160.12 57.6945L158.589 60.0314L157.061 57.7009L156.903 53.8992C157.46 53.815 158.025 53.7563 158.606 53.7563C159.176 53.7563 159.732 53.8135 160.28 53.8945ZM159.479 68.5131C159.578 68.6609 159.691 68.7959 159.821 68.9182C159.927 69.1184 159.996 69.344 160.007 69.5902L160.052 70.6721L159.554 69.7078C159.445 69.4949 159.393 69.2693 159.383 69.0485C159.435 68.8737 159.466 68.6958 159.479 68.5131ZM159.366 61.4183C159.374 61.1911 159.426 60.9607 159.539 60.7415L160.033 59.782L159.988 60.8686C159.978 61.1085 159.912 61.3293 159.81 61.5263C159.677 61.6518 159.562 61.7916 159.462 61.9425C159.449 61.7646 159.418 61.5898 159.366 61.4183ZM157.214 69.5918C157.223 69.3519 157.29 69.1311 157.391 68.9341C157.524 68.8086 157.639 68.6688 157.739 68.5179C157.752 68.6958 157.783 68.8706 157.835 69.0421C157.827 69.2693 157.776 69.4997 157.664 69.7189L157.17 70.6784L157.214 69.5918ZM157.149 59.7868L157.647 60.7495C157.757 60.9623 157.809 61.1879 157.818 61.4088C157.765 61.5851 157.733 61.763 157.722 61.9457C157.623 61.7979 157.51 61.6629 157.38 61.5406C157.275 61.3404 157.206 61.1149 157.195 60.8686L157.149 59.7868ZM147.156 65.3438C147.156 64.7242 147.217 64.1205 147.31 63.528L151.153 63.6932L153.463 65.2421L151.16 66.7879L147.28 66.9547C147.206 66.4257 147.156 65.8903 147.156 65.3438ZM154.174 66.1953C154.384 66.0841 154.606 66.0317 154.826 66.0221C155 66.0762 155.176 66.1079 155.356 66.1191C155.21 66.2191 155.077 66.3335 154.956 66.4654C154.758 66.5718 154.535 66.6417 154.292 66.6528L153.223 66.6989L154.174 66.1953ZM154.165 64.281L153.216 63.7806L154.29 63.8267C154.527 63.8378 154.746 63.9045 154.94 64.0061C155.064 64.1412 155.202 64.2572 155.352 64.3588C155.176 64.3716 155.005 64.4033 154.833 64.4558C154.609 64.4478 154.381 64.3954 154.165 64.281ZM155.245 68.305C155.372 68.1017 155.538 67.9444 155.724 67.8253C155.901 67.784 156.069 67.722 156.231 67.641C156.154 67.8014 156.096 67.9682 156.055 68.143C155.936 68.3352 155.777 68.5099 155.571 68.6418L154.669 69.2217L155.245 68.305ZM155.72 62.6526C155.531 62.5319 155.358 62.3714 155.228 62.1633L154.654 61.2499L155.562 61.8329C155.763 61.9616 155.918 62.13 156.036 62.3174C156.077 62.497 156.138 62.6669 156.218 62.8306C156.06 62.7527 155.895 62.6939 155.72 62.6526ZM156.022 60.7336L153.548 59.4881L151.518 56.2552C152.398 55.5498 153.386 54.9763 154.449 54.5569L156.193 57.936L156.022 60.7336ZM154.146 62.6399L151.387 62.8131L147.99 61.018C148.417 59.9456 148.995 58.9527 149.703 58.0663L152.912 60.1299L154.146 62.6399ZM149.976 62.9021L147.381 63.0641C147.489 62.5128 147.646 61.9807 147.83 61.4612L149.976 62.9021ZM149.981 67.5774L147.77 69.0612C147.591 68.5274 147.45 67.9778 147.349 67.4122L149.981 67.5774ZM151.392 67.6648L154.158 67.838L152.927 70.3416L149.601 72.48C148.905 71.5824 148.34 70.5784 147.929 69.4949L151.392 67.6648ZM153.56 70.9866L156.041 69.7379L156.212 72.5292L154.369 76.1004C153.303 75.6699 152.315 75.0869 151.436 74.3704L153.56 70.9866ZM156.3 73.9574L156.469 76.72C155.893 76.6104 155.336 76.4515 154.793 76.2561L156.3 73.9574ZM156.281 56.5078L154.895 54.3917C155.396 54.2186 155.907 54.074 156.436 53.9708L156.281 56.5078ZM151.155 56.557L152.282 58.8494L150.01 57.7056C150.365 57.2973 150.747 56.9129 151.155 56.557ZM149.883 72.839L152.295 71.6237L151.091 74.0702C150.66 73.6905 150.255 73.2806 149.883 72.839ZM156.912 76.7883L157.08 72.7659L158.611 70.429L160.138 72.7595L160.308 76.7867C159.752 76.8709 159.187 76.9281 158.606 76.9281C158.03 76.9297 157.466 76.8725 156.912 76.7883ZM166.128 74.0654L164.921 71.6094L167.34 72.8279C166.968 73.2727 166.56 73.6825 166.128 74.0654Z" fill="#E3E5E5"/>
<path d="M158.606 51.116C167.097 51.116 174.053 57.7406 174.716 66.1588C174.75 65.7251 174.772 65.2866 174.772 64.8434C174.772 55.8088 167.535 48.4852 158.606 48.4852C149.678 48.4852 142.44 55.8088 142.44 64.8434C142.44 65.2866 142.462 65.7235 142.496 66.1588C143.16 57.7406 150.117 51.116 158.606 51.116Z" fill="#383838"/>
<path d="M158.606 80.9776C149.386 80.9776 141.856 73.6524 141.393 64.4399C141.377 64.7385 141.371 65.0404 141.371 65.3438C141.371 74.9773 149.087 82.7855 158.608 82.7855C168.128 82.7855 175.845 74.9773 175.845 65.3438C175.845 65.0404 175.837 64.7401 175.821 64.4399C175.356 73.6524 167.827 80.9776 158.606 80.9776Z" fill="#111111"/>
<path d="M158.606 52.7602C165.349 52.7602 170.825 58.1949 171.023 64.9689C171.026 64.8434 171.042 64.721 171.042 64.5955C171.042 57.6468 165.475 52.012 158.606 52.012C151.739 52.012 146.172 57.6453 146.172 64.5955C146.172 64.721 146.186 64.8434 146.191 64.9689C146.387 58.1949 151.863 52.7602 158.606 52.7602Z" fill="#111111"/>
<path d="M158.606 77.9655C165.349 77.9655 170.825 72.5308 171.023 65.7569C171.026 65.8824 171.042 66.0047 171.042 66.1302C171.042 73.0789 165.475 78.7137 158.606 78.7137C151.739 78.7137 146.172 73.0805 146.172 66.1302C146.172 66.0047 146.186 65.8824 146.191 65.7569C146.387 72.5308 151.863 77.9655 158.606 77.9655Z" fill="#383838"/>
<path d="M136.725 62.3588C136.725 63.1165 136.119 63.7298 135.37 63.7298H66.4487C65.6998 63.7298 65.0938 63.1165 65.0938 62.3588C65.0938 61.6026 65.6998 60.9878 66.4487 60.9878H135.37C136.119 60.9894 136.725 61.6026 136.725 62.3588Z" fill="#B2B2B2"/>
<path d="M136.687 62.049C136.548 61.4421 136.014 60.9878 135.372 60.9878H66.4502C65.8081 60.9878 65.2727 61.4405 65.133 62.049H136.687Z" fill="white"/>
<path d="M65.3387 63.1372C65.5821 63.4946 65.9871 63.7298 66.4487 63.7298H135.37C135.832 63.7298 136.237 63.4946 136.48 63.1372H65.3387Z" fill="#939393"/>
<path d="M100.835 30.4304C100.819 30.1651 100.607 29.9537 100.342 29.9537H92.283C92.0161 29.9537 91.8011 30.1682 91.7885 30.4351H91.7838V30.4589V31.4789V32.4146C91.7838 32.6942 92.0083 32.9197 92.283 32.9197H100.342C100.618 32.9197 100.841 32.6942 100.841 32.4146V31.4789V30.4589V30.4288C100.838 30.4303 100.835 30.4304 100.835 30.4304ZM92.2815 30.1555H100.34C100.505 30.1555 100.64 30.2921 100.64 30.4589V31.4789C100.64 31.6457 100.505 31.7823 100.34 31.7823H92.2815C92.1166 31.7823 91.9816 31.6457 91.9816 31.4789V30.4589C91.9816 30.2921 92.1166 30.1555 92.2815 30.1555ZM100.34 32.718H92.2815C92.1166 32.718 91.9816 32.5814 91.9816 32.4146V31.8728C92.0664 31.938 92.1669 31.984 92.2815 31.984H100.34C100.455 31.984 100.555 31.938 100.64 31.8728V32.4146C100.64 32.5814 100.505 32.718 100.34 32.718Z" fill="#BF0C0C"/>
<path opacity="0.7" d="M177.413 49.6449C177.413 49.6449 187.017 49.6449 189.479 49.6449C191.942 49.6449 190.94 55.1447 190.94 55.1447L179.875 54.8763L177.413 49.6449Z" fill="white"/>
<path d="M8.08084 50.4726L8.6774 41.16L1.63281 41.3189C1.07075 42.4277 1.04093 47.0141 1.11315 50.6299L8.08084 50.4726Z" fill="#7F374D"/>
<path d="M8.53609 43.3634L8.85011 38.4514L1.8071 38.6102C1.46327 39.2886 1.3188 41.2664 1.27484 43.5271L8.53609 43.3634Z" fill="#70221E"/>
<path d="M181.906 35.954V35.3917C181.906 34.5656 181.246 33.8967 180.429 33.8967H175.011C174.195 33.8967 173.534 34.5656 173.534 35.3917V35.954H181.906Z" fill="#E37333"/>
<path d="M190.039 48.9681L190.766 48.9554C191.835 48.9363 192.641 47.9482 192.567 46.7456L192.072 38.7659C191.998 37.5633 191.071 36.6053 190.003 36.6228L189.276 36.6355L190.039 48.9681Z" fill="#F9F9F9"/>
<path d="M140.521 26.319C140.256 30.2143 137.375 29.2119 135.99 29.1531C134.606 29.0927 134.222 27.8234 134.39 26.1585C134.628 23.8121 135.483 23.075 136.868 23.1337C138.254 23.1925 140.749 22.9812 140.521 26.319Z" fill="#200000"/>
<path d="M134.679 24.8463C134.963 25.5771 135.562 26.0791 136.325 26.1124C137.188 26.149 141.005 27.0354 139.622 24.0742C138.95 23.2704 137.706 23.3832 136.907 23.3498C136.011 23.3117 135.147 23.9312 134.679 24.8463Z" fill="#2D2D2D"/>
<path opacity="0.7" d="M154.351 36.0382L188.249 37.0756L188.917 42.1147L154.351 36.0382Z" fill="white"/>
<path opacity="0.7" d="M91.8497 22.144V5.20438C98.2145 5.31876 103.691 5.44744 108.222 5.57771C102.764 11.0998 97.3071 16.6219 91.8497 22.144ZM91.8497 25.6851V26.419L95.8187 26.4143C102.595 19.5577 109.372 12.7012 116.149 5.84302C114.82 5.78901 113.309 5.73499 111.619 5.68097L91.8497 25.6851ZM130.334 16.7855C128.004 13.7083 125.713 10.655 123.889 8.16877L105.868 26.4032L120.849 26.3841L130.334 16.7855ZM124.352 26.3778L129.048 26.3714C130.663 24.7366 132.279 23.1019 133.894 21.4688C133.227 20.5935 132.543 19.6943 131.853 18.7888L124.352 26.3778Z" fill="white"/>
</svg>
