<svg width="182" height="69" viewBox="0 0 182 69" fill="none" xmlns="http://www.w3.org/2000/svg">
<path d="M179.579 55.8294L180.009 48.6631C179.137 41.7509 172.008 34.7705 167.257 33.077C163.872 31.8696 134.096 24.7922 130.524 24.6763C128.588 24.1043 109.192 12.833 101.024 9.21886C85.1054 2.17484 53.6882 6.46891 48.2261 8.12109C43.9071 9.42695 32.1462 14.2866 21.0934 21.3433C18.6175 22.924 8.77832 24.1314 7.38887 26.006C3.89091 30.7258 1.73373 55.8326 1.73373 55.8326C1.34594 59.1417 3.28175 61.8694 6.06222 61.8694H162.122C164.904 61.8663 180.803 59.1386 179.579 55.8294Z" fill="#F2F2F2"/>
<path d="M112.956 24.6938C115.647 24.7414 115.625 23.3879 111.204 20.1772C107.131 17.2208 101.876 13.4049 98.6012 11.5033C94.7578 9.27445 83.2717 7.94954 73.0965 7.88282C64.35 7.82563 58.7153 8.76293 54.1089 10.2054C50.9218 11.2047 37.0776 16.3105 31.0598 21.0733C30.2355 21.7262 29.361 23.3053 33.5215 23.3784C42.111 23.5277 87.5201 24.2521 112.956 24.6938Z" fill="#2A2A2B"/>
<path d="M181.679 57.2989V54.5061C181.679 48.4995 181.147 47.1253 177.038 47.1253H149.654V51.0048C149.654 53.6117 147.566 55.7246 144.99 55.7246L39.1044 51.1668C36.5281 51.1668 34.5954 53.6117 34.5954 51.0048V47.1253H4.64136C2.07755 47.1253 0.000441379 49.2382 0.000441379 51.8452V57.2974C0.000441379 59.9043 -0.0937558 62.0172 2.47005 62.0172H167.069C175.037 62.0188 181.679 59.9043 181.679 57.2989Z" fill="#327BCC"/>
<path d="M46.3154 54.9668C46.3154 45.5605 38.7527 37.9081 29.4568 37.9081C20.1608 37.9081 12.5981 45.5605 12.5981 54.9668C12.5981 57.372 13.1037 59.6565 13.9986 61.7328H44.915C45.8099 59.6565 46.3154 57.372 46.3154 54.9668Z" fill="#327BCC"/>
<path d="M162.152 54.9668C162.152 45.5605 154.589 37.9081 145.293 37.9081C135.997 37.9081 128.434 45.5605 128.434 54.9668C128.434 57.372 128.94 59.6565 129.835 61.7328H160.751C161.646 59.6565 162.152 57.372 162.152 54.9668Z" fill="#327BCC"/>
<path d="M167.069 58.9305H2.47005C0.116624 58.9305 0.00358138 57.148 0.000441379 54.8382V57.2974C0.000441379 59.9043 -0.0937558 62.0172 2.47005 62.0172H167.069C175.038 62.0172 181.679 59.9043 181.679 57.2974V54.5045C181.679 54.4044 181.678 54.3171 181.678 54.2218C181.657 56.824 175.026 58.9305 167.069 58.9305Z" fill="#1E5384"/>
<path d="M160.271 47.138C157.564 43.643 149.554 38.2893 146.207 37.9319C144.608 37.7619 5.9994 29.3151 5.9994 29.3151C5.07781 32.1127 4.28339 36.0875 3.63812 40.1083L160.271 47.138Z" fill="#327BCC"/>
<path d="M44.6041 54.522C44.6041 46.0705 37.8092 39.1964 29.4584 39.1964C21.1075 39.1964 14.3126 46.0721 14.3126 54.522C14.3126 57.2291 15.0159 59.7693 16.2374 61.9791H42.6793C43.9008 59.7693 44.6041 57.2291 44.6041 54.522Z" fill="#091119"/>
<path d="M43.0483 54.522C43.0483 62.1173 36.963 68.2748 29.4568 68.2748C21.9506 68.2748 15.8653 62.1173 15.8653 54.522C15.8653 46.9267 21.9506 40.7692 29.4568 40.7692C36.9645 40.7692 43.0483 46.9267 43.0483 54.522Z" fill="#2A2A2B"/>
<path d="M40.9489 56.4175C41.978 50.0008 37.6716 43.9549 31.3303 42.9135C24.9889 41.8721 19.0139 46.2297 17.9847 52.6463C16.9555 59.063 21.2619 65.1089 27.6033 66.1503C33.9447 67.1916 39.9197 62.8341 40.9489 56.4175Z" fill="#091119"/>
<path d="M29.4568 44.2038C23.8252 44.2038 19.2596 48.8236 19.2596 54.522C19.2596 60.2205 23.8252 64.8402 29.4568 64.8402C35.0884 64.8402 39.6539 60.2205 39.6539 54.522C39.6539 48.8236 35.09 44.2038 29.4568 44.2038ZM36.5202 47.4891C37.7385 48.7219 37.5658 50.2613 36.5202 50.7458L33.0176 52.3726C32.8763 52.4377 32.5057 52.2169 32.1776 51.8833C31.8495 51.5512 31.6297 51.1763 31.694 51.0333L33.3017 47.4891C33.7806 46.4327 35.3019 46.2563 36.5202 47.4891ZM29.5651 44.5327C31.289 44.5327 32.242 45.7448 31.8416 46.8362L30.5008 50.4916C30.4459 50.6394 30.0298 50.7474 29.5651 50.7474C29.1004 50.7474 28.6828 50.6394 28.6294 50.4916L27.2886 46.8362C26.8883 45.7448 27.8413 44.5327 29.5651 44.5327ZM22.5802 47.4192C23.7985 46.1864 25.3198 46.3612 25.7987 47.4192L27.4064 50.9635C27.4707 51.1065 27.2525 51.4813 26.9228 51.8134C26.5947 52.147 26.2242 52.3678 26.0829 52.3027L22.5802 50.6759C21.5361 50.1914 21.3619 48.652 22.5802 47.4192ZM19.6584 54.4569C19.6584 52.7125 20.8563 51.7483 21.9349 52.1534L25.5491 53.5101C25.6951 53.5657 25.8018 53.9866 25.8018 54.4569C25.8018 54.9271 25.6951 55.3481 25.5491 55.4037L21.9349 56.7604C20.8563 57.1639 19.6584 56.2012 19.6584 54.4569ZM22.5111 61.5247C21.2928 60.2919 21.4655 58.7526 22.5111 58.268L26.0138 56.6412C26.1551 56.5761 26.5256 56.7969 26.8537 57.1306C27.1819 57.4626 27.4017 57.8375 27.3373 57.9805L25.7296 61.5247C25.2508 62.5811 23.7294 62.7575 22.5111 61.5247ZM29.4662 64.4811C27.7424 64.4811 26.7894 63.269 27.1897 62.1777L28.5305 58.5206C28.5854 58.3729 29.0015 58.2648 29.4662 58.2648C29.9309 58.2648 30.347 58.3729 30.4019 58.5206L31.7427 62.1777C32.1415 63.269 31.1901 64.4811 29.4662 64.4811ZM36.4511 61.5946C35.2328 62.8274 33.7115 62.6526 33.2326 61.5946L31.625 58.0504C31.5606 57.9074 31.7788 57.5325 32.1085 57.2005C32.4367 56.8684 32.8072 56.646 32.9485 56.7111L36.4511 58.3379C37.4952 58.8225 37.6695 60.3618 36.4511 61.5946ZM37.0964 56.8605L33.4838 55.5038C33.3378 55.4497 33.2311 55.0272 33.2311 54.557C33.2311 54.0867 33.3378 53.6657 33.4838 53.6101L37.0964 52.2534C38.175 51.8483 39.3729 52.8126 39.3729 54.557C39.3729 56.3013 38.175 57.2656 37.0964 56.8605Z" fill="#2A2A2B"/>
<path d="M160.44 54.522C160.44 46.0705 153.645 39.1964 145.295 39.1964C136.944 39.1964 130.149 46.0721 130.149 54.522C130.149 57.2291 130.852 59.7693 132.075 61.9791H158.515C159.737 59.7693 160.44 57.2291 160.44 54.522Z" fill="#091119"/>
<path d="M158.884 54.522C158.884 62.1173 152.799 68.2748 145.293 68.2748C137.787 68.2748 131.701 62.1173 131.701 54.522C131.701 46.9267 137.787 40.7692 145.293 40.7692C152.801 40.7692 158.884 46.9267 158.884 54.522Z" fill="#2A2A2B"/>
<path d="M156.768 56.4462C157.8 50.0302 153.496 43.9827 147.155 42.9387C140.815 41.8947 134.838 46.2496 133.806 52.6656C132.775 59.0816 137.078 65.1291 143.419 66.1731C149.76 67.2171 155.736 62.8622 156.768 56.4462Z" fill="#091119"/>
<path d="M145.295 44.2038C139.663 44.2038 135.097 48.8236 135.097 54.522C135.097 60.2205 139.663 64.8402 145.295 64.8402C150.926 64.8402 155.492 60.2205 155.492 54.522C155.49 48.8236 150.926 44.2038 145.295 44.2038ZM152.356 47.4891C153.575 48.7219 153.402 50.2613 152.356 50.7458L148.854 52.3726C148.712 52.4377 148.342 52.2169 148.014 51.8833C147.686 51.5512 147.466 51.1763 147.53 51.0333L149.138 47.4891C149.618 46.4327 151.138 46.2563 152.356 47.4891ZM145.401 44.5327C147.125 44.5327 148.077 45.7448 147.678 46.8362L146.337 50.4916C146.282 50.6394 145.866 50.7474 145.401 50.7474C144.937 50.7474 144.521 50.6394 144.466 50.4916L143.125 46.8362C142.726 45.7448 143.677 44.5327 145.401 44.5327ZM138.416 47.4192C139.635 46.1864 141.156 46.3612 141.635 47.4192L143.243 50.9635C143.307 51.1065 143.089 51.4813 142.759 51.8134C142.429 52.147 142.06 52.3678 141.919 52.3027L138.416 50.6759C137.372 50.1914 137.198 48.652 138.416 47.4192ZM135.495 54.4569C135.495 52.7125 136.692 51.7483 137.771 52.1534L141.385 53.5101C141.531 53.5657 141.638 53.9866 141.638 54.4569C141.638 54.9271 141.531 55.3481 141.385 55.4037L137.771 56.7604C136.692 57.1639 135.495 56.2012 135.495 54.4569ZM138.347 61.5247C137.129 60.2919 137.302 58.7526 138.347 58.268L141.85 56.6412C141.991 56.5761 142.362 56.7969 142.69 57.1306C143.02 57.4626 143.238 57.8375 143.173 57.9805L141.566 61.5247C141.087 62.5811 139.566 62.7575 138.347 61.5247ZM145.302 64.4811C143.579 64.4811 142.627 63.269 143.026 62.1777L144.367 58.5206C144.422 58.3729 144.838 58.2648 145.302 58.2648C145.767 58.2648 146.183 58.3729 146.238 58.5206L147.579 62.1777C147.979 63.269 147.026 64.4811 145.302 64.4811ZM152.287 61.5946C151.069 62.8274 149.548 62.6526 149.069 61.5946L147.461 58.0504C147.397 57.9074 147.615 57.5325 147.945 57.2005C148.274 56.8684 148.643 56.646 148.785 56.7111L152.287 58.3379C153.331 58.8225 153.506 60.3618 152.287 61.5946ZM152.933 56.8605L149.32 55.5038C149.174 55.4497 149.067 55.0272 149.067 54.557C149.067 54.0867 149.174 53.6657 149.32 53.6101L152.933 52.2534C154.011 51.8483 155.209 52.8126 155.209 54.557C155.209 56.3013 154.011 57.2656 152.933 56.8605Z" fill="#2A2A2B"/>
<path opacity="0.3" d="M173.57 37.3822L160.593 37.5252C160.087 37.5252 160.034 38.0844 160.443 38.7484L163.23 43.1982C163.524 43.6748 164.116 44.118 164.574 44.207L179.462 46.6773C179.119 44.0084 177.977 40.4197 173.57 37.3822Z" fill="#091119"/>
<path d="M179.47 46.3437C179.203 45.0283 178.681 41.3411 174.446 38.0256H161.688C161.172 38.0177 161.06 38.4974 161.412 39.0773L163.609 42.7057C163.869 43.1378 164.447 43.5461 164.916 43.6335L179.47 46.3437Z" fill="white"/>
<path d="M164.196 38.0685L161.69 38.0256C161.174 38.0177 161.062 38.4974 161.414 39.0773L163.61 42.7057C163.871 43.1378 164.449 43.5461 164.918 43.6335L168.581 44.315L164.196 38.0685Z" fill="#F49625"/>
<path d="M180.139 51.9484C180.139 52.981 179.313 53.8167 178.293 53.8167H172.898C171.879 53.8167 171.052 52.981 171.052 51.9484C171.052 50.9158 171.879 50.0802 172.898 50.0802H178.291C179.312 50.0802 180.139 50.9174 180.139 51.9484Z" fill="#1E5384"/>
<path d="M176.446 51.8753C176.446 52.676 175.804 53.3258 175.013 53.3258H173.652C172.861 53.3258 172.218 52.676 172.218 51.8753C172.218 51.0746 172.861 50.4249 173.652 50.4249H175.013C175.804 50.4249 176.446 51.0746 176.446 51.8753Z" fill="white"/>
<path opacity="0.3" d="M4.21588 36.0732H6.96338C8.68096 36.0732 10.3734 34.6641 10.7455 32.9261L11.328 30.2016C11.6985 28.4636 10.6074 27.0545 8.88977 27.0545H6.59129C5.654 29.1261 4.86115 32.4701 4.21588 36.0732Z" fill="#091119"/>
<path d="M4.34619 35.2868C4.96634 32.0015 5.6226 29.5026 6.29927 27.8424H8.90704C9.47852 27.8424 9.96208 28.0522 10.2682 28.435C10.5932 28.8401 10.6984 29.4025 10.5665 30.0205L9.98406 32.745C9.6889 34.1239 8.29788 35.2868 6.94454 35.2868H4.34619Z" fill="#DB3535"/>
<path d="M4.85016 32.8339C4.6806 33.5965 4.51261 34.4115 4.34619 35.2884H6.94611C8.26962 35.2884 9.62296 34.1731 9.95737 32.8339H4.85016Z" fill="#F49625"/>
<path d="M130.524 24.6763C128.588 24.1044 109.192 12.833 101.024 9.21727C100.741 9.09336 100.444 8.97898 100.152 8.86142L115.493 19.7992C118.264 21.7755 121.269 23.4753 122.205 23.5976C122.205 23.5976 130.921 24.689 130.524 24.6763Z" fill="#2A2A2B"/>
<path opacity="0.3" d="M72.3241 52.5998C72.3319 52.6014 72.3382 52.6029 72.3476 52.6045V23.8756H71.952V52.6029C72.076 52.5934 72.2016 52.5887 72.3241 52.5998Z" fill="#2A2A2B"/>
<path opacity="0.3" d="M113.16 54.2821L114.697 23.8756H114.301L112.764 54.2901C112.898 54.2742 113.029 54.2726 113.16 54.2821Z" fill="#2A2A2B"/>
<path opacity="0.3" d="M33.049 37.8683C33.162 37.8795 33.2468 37.9319 33.3473 37.9621L30.763 22.0789H30.3674L32.9359 37.8699C32.9736 37.8699 33.0113 37.8636 33.049 37.8683Z" fill="#2A2A2B"/>
<path d="M82.5479 2.92945C82.5479 4.25437 81.4866 5.3283 80.1772 5.3283H70.6944C69.385 5.3283 68.3237 4.25437 68.3237 2.92945C68.3237 1.60452 69.385 0.53064 70.6944 0.53064H80.1772C81.4866 0.53064 82.5479 1.60452 82.5479 2.92945Z" fill="#2A2A2B"/>
<path d="M82.4333 2.14942C82.4333 3.33613 81.4819 4.29884 80.3091 4.29884H70.5139C69.3411 4.29884 68.3896 3.33613 68.3896 2.14942C68.3896 0.962709 69.3411 0 70.5139 0H80.3091C81.4819 0 82.4333 0.962709 82.4333 2.14942Z" fill="#2453BD"/>
<path d="M78.7249 0H72.2299V4.30044H78.7249V0Z" fill="#477FE2"/>
<path d="M41.8912 26.2077C41.8912 26.6859 41.5081 27.0735 41.0355 27.0735H34.0553C33.5827 27.0735 33.1996 26.6859 33.1996 26.2077C33.1996 25.7296 33.5827 25.3419 34.0553 25.3419H41.0355C41.5081 25.3419 41.8912 25.7296 41.8912 26.2077Z" fill="#2A2A2B"/>
<path d="M82.0596 26.3412C82.0596 26.8194 81.6765 27.207 81.204 27.207H74.2238C73.7512 27.207 73.3681 26.8194 73.3681 26.3412C73.3681 25.863 73.7512 25.4754 74.2238 25.4754H81.204C81.6765 25.4754 82.0596 25.863 82.0596 26.3412Z" fill="#2A2A2B"/>
<path opacity="0.2" d="M29.4568 39.1329C34.0584 39.1329 38.1985 41.295 41.1093 44.7265C38.7527 40.353 34.418 37.4045 29.4568 37.4045C24.4956 37.4045 20.1624 40.353 17.8042 44.7265C20.7166 41.295 24.8551 39.1329 29.4568 39.1329Z" fill="#F9F9F9"/>
<path opacity="0.2" d="M145.295 37.908C149.896 37.908 154.036 40.0702 156.947 43.5016C154.59 39.1281 150.256 36.1796 145.295 36.1796C140.333 36.1796 136 39.1281 133.642 43.5016C136.553 40.0702 140.693 37.908 145.295 37.908Z" fill="#F9F9F9"/>
<path d="M69.6315 23.7152L37.2989 23.0575C34.9 23.0162 33.7806 20.1296 34.1228 19.8786C39.9507 15.5814 50.9972 11.5145 54.2031 10.512C58.395 9.19822 62.9763 8.30699 70.9236 8.21008L69.6315 23.7152ZM109.166 19.0939C105.418 16.382 101.232 13.4018 98.4442 11.7814C94.7861 9.65895 83.9358 8.38799 74.3918 8.22119L75.2239 23.7755L107.826 24.3125C108.677 24.3125 109.789 19.545 109.166 19.0939ZM122.27 23.3609C122.27 23.3609 127.484 24.0138 129.659 24.303C125.371 22.2409 108.604 12.5868 101.096 9.25064L115.559 19.5625C118.33 21.5387 121.335 23.2386 122.27 23.3609Z" fill="#80C2DC"/>
<path opacity="0.7" d="M63.6922 23.5944L69.6315 23.7152L70.1873 17.0222L63.6922 23.5944Z" fill="white"/>
<path opacity="0.7" d="M42.1738 23.1575L45.1929 23.2195L58.9555 9.29352C57.4813 9.58742 56.1483 9.94008 54.8562 10.3261L42.1738 23.1575Z" fill="white"/>
<path opacity="0.7" d="M37.2974 23.0575L37.3664 23.0591L47.2166 13.0919C42.8222 14.8855 37.5643 17.3384 34.1213 19.8786C33.7806 20.1312 34.9 23.0178 37.2974 23.0575Z" fill="white"/>
<path opacity="0.7" d="M77.6715 23.8168C82.3077 19.1256 86.9455 14.4327 91.5817 9.74149C87.8749 9.0695 83.3031 8.60404 78.736 8.37369C77.3654 9.76057 75.9932 11.149 74.6226 12.5359L75.2239 23.7771L77.6715 23.8168Z" fill="white"/>
<path opacity="0.7" d="M99.6656 12.5232C99.237 12.2547 98.8257 12.0037 98.4426 11.7829C97.7392 11.3746 96.7564 10.9997 95.5805 10.6566L82.4945 23.8979L88.3302 23.9932L99.6656 12.5232Z" fill="white"/>
<path opacity="0.7" d="M107.346 17.7896L101.01 24.2013L107.826 24.3141C108.677 24.3141 109.789 19.5466 109.166 19.0954C108.571 18.6633 107.955 18.2264 107.346 17.7896Z" fill="white"/>
<path opacity="0.7" d="M110.904 14.1897L109.714 15.3939L115.56 19.5624C118.331 21.5387 121.336 23.2386 122.272 23.3609C122.272 23.3609 127.486 24.0138 129.66 24.303C126.801 22.9288 118.41 18.1883 110.904 14.1897Z" fill="white"/>
<path opacity="0.6" d="M29.8367 25.6088C21.6664 20.9763 51.3583 9.94167 55.6773 8.87887C61.1378 7.53488 82.9263 5.04871 98.8445 10.7821C107.015 13.7243 119.284 27.3484 121.22 27.8122C124.792 27.906 161.101 35.6458 164.486 36.6276C168.402 37.7635 176.696 40.4991 179.009 45.041C176.696 39.4601 171.174 34.4718 167.259 33.0754C163.874 31.8681 134.097 24.7907 130.526 24.6747C128.59 24.1028 109.194 12.8314 101.025 9.21727C85.107 2.17326 53.6897 6.46733 48.2277 8.11951C43.9086 9.42537 32.1478 14.285 21.095 21.3417C18.6191 22.9224 8.77987 24.1298 7.39042 26.0044C5.43891 28.6383 3.90502 37.6173 2.93005 45.0426C3.90502 38.9994 5.43891 31.6901 7.39042 29.547C8.7783 28.0204 32.2655 26.9862 29.8367 25.6088Z" fill="white"/>
<path opacity="0.6" d="M70.5139 1.60293H80.3091C81.2009 1.60293 81.9592 2.16212 82.2732 2.95168C82.3721 2.70385 82.4333 2.43378 82.4333 2.15101C82.4333 0.964296 81.4819 0.00158691 80.3091 0.00158691H70.5139C69.3411 0.00158691 68.3896 0.964296 68.3896 2.15101C68.3896 2.43537 68.4509 2.70385 68.5498 2.95168C68.8638 2.16212 69.6205 1.60293 70.5139 1.60293Z" fill="#EDEDED"/>
<path opacity="0.6" d="M11.328 29.9362C20.7213 32.405 20.7213 32.405 20.7213 32.405C20.7213 32.405 110.276 40.1337 132.397 36.9834C97.6278 34.0524 11.328 29.9362 11.328 29.9362Z" fill="white"/>
<path opacity="0.6" d="M130.794 58.9305C130.376 57.5341 130.147 56.0551 130.147 54.522C130.147 46.0705 136.942 39.1964 145.293 39.1964C153.645 39.1964 160.439 46.0721 160.439 54.522C160.439 56.0551 160.21 57.5341 159.792 58.9305H160.189C161.108 56.8668 161.646 54.5935 161.646 52.1867C161.646 43.0632 154.309 35.6395 145.293 35.6395C136.276 35.6395 128.94 43.0616 128.94 52.1867C128.94 54.5935 129.478 56.8668 130.397 58.9305H130.794Z" fill="#EDEDED"/>
<path opacity="0.6" d="M0.237529 55.4577C0.237529 52.8507 2.25812 50.2756 4.75128 49.7037L16.0129 47.1253H4.64138C2.07757 47.1253 0.000457764 49.2382 0.000457764 51.8452V54.8382C0.00202776 55.8183 0.0349984 56.6921 0.239098 57.3879L0.237529 55.4577Z" fill="white"/>
<path opacity="0.6" d="M130.234 55.8501C130.212 55.5975 130.194 55.3433 130.185 55.0876L44.2839 51.3908C44.4927 52.4028 44.6042 53.4497 44.6042 54.522C44.6042 54.5347 44.601 54.5459 44.601 54.5586L130.234 55.8501Z" fill="white"/>
<path opacity="0.2" d="M145.295 42.2021C152.534 42.2021 158.434 47.9339 158.847 55.1559C158.862 54.8906 158.886 54.6269 158.886 54.3568C158.886 46.7615 152.801 40.6039 145.295 40.6039C137.788 40.6039 131.703 46.7615 131.703 54.3568C131.703 54.6269 131.728 54.8906 131.742 55.1559C132.154 47.9339 138.054 42.2021 145.295 42.2021Z" fill="#EDEDED"/>
<path opacity="0.2" d="M145.295 66.2318C139.052 66.3907 133.964 61.5787 133.611 55.3624C133.603 55.4926 133.598 55.6229 133.592 55.7516C133.75 62.157 138.923 67.1739 145.296 67.0103C151.669 66.8466 156.842 61.566 157 55.1527C156.993 55.024 156.988 54.8938 156.982 54.7635C156.624 61.0005 151.535 66.073 145.295 66.2318Z" fill="#EDEDED"/>
<path opacity="0.2" d="M29.5353 42.2609C36.7745 42.2609 42.6746 47.9927 43.0875 55.2147C43.1032 54.9494 43.1268 54.6856 43.1268 54.4155C43.1268 46.8203 37.0414 40.6628 29.5353 40.6628C22.0291 40.6628 15.9438 46.8203 15.9438 54.4155C15.9438 54.6856 15.9689 54.9494 15.983 55.2147C16.3959 47.9927 22.296 42.2609 29.5353 42.2609Z" fill="#EDEDED"/>
<path opacity="0.2" d="M29.5353 66.2906C23.2929 66.4511 18.2062 61.6375 17.8513 55.4212C17.8435 55.5515 17.8388 55.6817 17.8325 55.8104C17.9911 62.2158 23.1642 67.2327 29.5368 67.0691C35.9095 66.9055 41.0826 61.6248 41.2412 55.2115C41.2333 55.0828 41.2286 54.9525 41.2224 54.8223C40.866 61.0577 35.7776 66.1302 29.5353 66.2906Z" fill="#EDEDED"/>
</svg>
