<svg width="177" height="62" viewBox="0 0 177 62" fill="none" xmlns="http://www.w3.org/2000/svg">
<path d="M171.163 46.2704L167.741 32.5176C165.785 29.8662 163.911 25.8215 146.313 23.7118L118.578 20.2279C109.367 14.6979 95.7264 8.13361 86.2593 4.46069C80.4158 2.1937 53.7901 1.2167 43.863 2.14605C35.9361 2.88794 32.8087 4.35584 24.8566 12.6914C19.4009 18.4105 10.5602 17.8894 6.94604 23.7356C3.51402 25.3783 4.61303 33.7393 4.61303 33.7393C3.16549 39.838 3.22829 41.1105 6.75451 46.6994C10.8993 53.2668 14.3674 52.5106 16.6785 52.5106L163.59 52.7616C166.716 52.7632 173.578 50.6296 171.163 46.2704Z" fill="#191919"/>
<path d="M175.825 38.3002L171.25 30.7209C169.207 28.0694 167.251 24.0247 148.877 21.915L119.919 18.4312C110.301 12.9011 96.0593 6.33687 86.1745 2.66394C80.0735 0.396955 52.2735 -0.580058 41.9084 0.349294C33.6313 1.09119 30.3657 2.55909 22.0636 10.8947C16.3676 16.6138 7.13603 16.0927 3.36332 21.9389C-0.219421 23.5815 0.928258 31.9425 0.928258 31.9425C-0.583652 38.0413 -0.517732 39.3138 3.16549 44.9042C5.32895 48.1879 7.31657 49.6399 9.06398 50.2722C10.8114 50.9045 12.3202 44.4594 13.5275 44.4594C13.5275 44.4594 16.8449 50.9664 45.656 50.9664C66.9577 50.9664 105.705 50.8695 107.451 50.8695C114.441 50.8695 122.427 43.7143 128.77 43.7143C135.843 43.7143 151.355 43.4395 160.31 43.4395C162.307 43.4395 164.477 49.9576 170.133 49.9576C170.785 49.9576 178.346 42.6594 175.825 38.3002Z" fill="#689552"/>
<path opacity="0.2" d="M174.498 36.1032L171.25 30.7225C170.518 29.7724 169.797 28.6445 168.331 27.4912C163.934 27.3164 160.647 28.4809 159.578 30.5541C159.586 30.732 159.61 30.9147 159.651 31.1021C159.713 31.3881 159.815 31.674 159.949 31.9584C162.61 33.833 166.706 35.3597 171.061 35.9062C172.276 36.0571 173.424 36.1159 174.498 36.1032Z" fill="white"/>
<path d="M108.175 44.7294C108.14 43.8795 108.142 42.4402 108.145 40.6181C108.158 33.7853 108.18 22.3487 106.228 20.1151L105.979 20.3375C107.847 22.4742 107.825 34.2762 107.812 40.6165C107.809 42.4418 107.806 43.8843 107.842 44.7422C107.927 46.8058 107.748 47.8972 107.242 48.3944C106.812 48.817 106.104 48.8551 105.026 48.7773C103.765 48.6867 88.7321 48.6438 74.6869 48.6248C72.6349 48.6248 72.5894 48.2721 72.3711 46.5818L72.3162 46.1688C72.098 44.5579 71.729 41.3711 71.302 37.6807C70.5437 31.1339 69.6001 22.9874 69.0647 19.9547L68.7366 20.0134C69.2704 23.0366 70.214 31.1784 70.9707 37.7204C71.3977 41.4124 71.7683 44.6024 71.9865 46.2148L72.0399 46.6263C72.1733 47.6573 72.2581 48.2816 72.7825 48.6232C62.2541 48.6105 52.6724 48.6089 50.4273 48.6089L50.0614 48.6105C47.2527 48.628 46.4033 48.6264 45.9323 41.0216C45.5226 34.3922 40.7765 28.9432 36.2988 26.9875C35.6598 26.7079 35.1684 26.6079 34.7728 26.5269C34.0207 26.3728 33.6785 26.3029 33.275 25.1463C33.0018 24.3615 32.2781 22.2773 33.1902 17.0173L33.1996 16.0307C31.7034 21.6656 32.5198 23.9898 32.961 25.2575C33.4257 26.5952 33.9077 26.6937 34.7068 26.8557C35.0868 26.9335 35.5593 27.0304 36.1669 27.2957C39.7136 28.8447 45.152 33.7837 45.5995 41.0406C46.0893 48.9632 47.0894 48.9663 50.0614 48.9457L50.4257 48.9441C55.7731 48.9441 102.74 48.9489 104.999 49.1125C105.283 49.1331 105.544 49.1459 105.782 49.1459C106.533 49.1459 107.076 49.0235 107.47 48.6359C108.062 48.0592 108.266 46.9265 108.175 44.7294Z" fill="#4C7038"/>
<path d="M40.1814 3.82999C37.7966 6.01119 30.471 18.2564 33.9218 18.5948C43.0058 19.4828 88.4589 20.4376 106.616 20.5456C107.954 20.5536 87.7069 6.13192 84.6752 4.45115C81.5933 2.74177 43.9416 0.390595 40.1814 3.82999Z" fill="#D6D6D6"/>
<path d="M106.103 20.2279C87.6221 20.0992 42.9163 19.1413 33.8653 18.25C33.5356 18.2183 33.4649 18.0689 33.4304 17.9959C32.4633 15.9815 38.1906 6.18434 40.4279 4.14136C41.7592 2.92446 48.3909 2.3176 58.4421 2.47646C69.801 2.65598 82.8556 3.81409 84.581 4.76886C87.5609 6.41946 103.581 17.8704 106.103 20.2279Z" fill="#232122"/>
<path d="M67.9061 19.2302C57.599 18.9713 39.3446 18.4534 33.8088 17.9053C33.757 17.9006 33.724 17.8926 33.7021 17.8863C32.9657 16.0673 38.4011 6.5275 40.6729 4.45433C41.9414 3.29621 48.672 2.69571 58.5018 2.84504C60.3591 2.87363 62.3216 2.92924 64.339 3.01185C65.2669 8.23211 66.4413 13.5572 67.9061 19.2302Z" fill="#80C2DC"/>
<path d="M95.3371 19.7862C87.4933 19.6687 78.4549 19.4892 69.812 19.2779C68.3723 13.5985 67.2246 8.28611 66.3313 3.10239C75.3855 3.54244 83.2528 4.40824 84.4852 5.08977C86.2232 6.04931 92.5362 10.4467 97.568 14.091C96.805 16.1642 96.0734 18.0308 95.3371 19.7862Z" fill="#80C2DC"/>
<path d="M33.3126 2.15875C29.9544 3.5774 26.8442 6.09698 22.0652 10.8963C20.0603 12.9091 17.6174 14.1482 15.1289 15.1649C21.8045 16.4199 29.9528 6.68478 31.7897 4.71646C32.9154 3.51227 33.2875 2.90382 33.3126 2.15875Z" fill="#232122"/>
<path d="M31.4852 4.40826C32.3628 3.46778 32.7788 2.89111 32.9327 2.32874C29.7173 3.77598 26.6637 6.27967 22.0652 10.8962C20.1984 12.7708 17.9502 13.9719 15.6392 14.9489C22.1484 15.3317 29.7221 6.29556 31.4852 4.40826Z" fill="#80C2DC"/>
<path d="M86.264 3.8173C88.4824 4.71488 109.784 16.8394 113.113 18.1865C115.728 19.2445 119.713 20.1644 122.701 18.7648L119.92 18.4296C110.373 12.9393 96.2696 6.43219 86.3959 2.74496C85.6486 3.02298 85.2216 3.39631 86.264 3.8173Z" fill="#232122"/>
<path d="M120.977 18.5598L119.919 18.4328C110.44 12.9837 96.4769 6.53068 86.6126 2.83075C86.1212 3.09446 85.9736 3.41378 86.8183 3.75057C88.9786 4.61002 109.721 16.3691 112.962 17.6591C115.141 18.5233 118.29 19.2668 120.977 18.5598Z" fill="#80C2DC"/>
<path d="M28.3954 27.3736C37.0995 27.1559 44.3309 34.1189 44.546 42.9263C44.5586 43.4252 44.5476 51.64 49.6532 51.64C36.5798 51.9323 16.8983 50.69 13.1444 50.69C13.1444 49.2316 13.0408 44.345 13.0251 43.7143C12.8085 34.9069 19.6913 27.5912 28.3954 27.3736Z" fill="#191919"/>
<path d="M13.975 43.6365C14.1759 51.8545 20.9222 58.3504 29.0423 58.1471C37.1639 57.9437 43.5836 51.1174 43.3827 42.8993C43.1817 34.6813 36.4354 28.1854 28.3154 28.3887C20.1953 28.5921 13.774 35.4185 13.975 43.6365Z" fill="#070000"/>
<path d="M22.4059 47.724C25.5317 50.7345 24.9885 45.3236 27.9637 42.159C30.9388 38.9961 36.3082 39.2788 33.1823 36.2668C30.0565 33.2563 25.1094 33.3802 22.1343 36.5432C19.156 39.7078 19.2784 44.7136 22.4059 47.724Z" fill="#D60606"/>
<path d="M17.3207 43.5523C17.4761 49.9004 22.6869 54.919 28.9607 54.7617C35.2328 54.6044 40.1924 49.3317 40.0386 42.9851C39.8832 36.6369 34.6723 31.6184 28.4002 31.7757C22.1265 31.9314 17.1668 37.2057 17.3207 43.5523ZM19.492 46.9853L20.9238 46.7168L19.762 47.6144C19.6647 47.4095 19.5768 47.1998 19.492 46.9853ZM19.0037 45.3887C18.875 44.7834 18.7933 44.1591 18.7776 43.5157C18.7619 42.8882 18.8122 42.275 18.9064 41.6761L23.7546 42.3338L25.2507 43.3743L23.8079 44.4896L19.0037 45.3887ZM37.7385 47.2999L36.3491 46.3324L38.0259 46.5595C37.9379 46.8105 37.8437 47.0584 37.7385 47.2999ZM33.3598 44.2513L31.8652 43.2107L33.308 42.0955L38.3571 41.1518C38.4859 41.7571 38.5659 42.3798 38.5816 43.0217C38.5973 43.6778 38.5471 44.318 38.4435 44.9423L33.3598 44.2513ZM37.8688 39.5537L36.1905 39.8682L37.5454 38.8213C37.6632 39.0596 37.7699 39.3042 37.8688 39.5537ZM19.5469 39.4043L20.7668 40.2527L19.3083 40.0557C19.3821 39.8349 19.459 39.6172 19.5469 39.4043ZM22.8235 35.1929L25.8317 39.1787L26.1613 40.985L24.3621 40.7404L20.3068 37.9174C20.9694 36.8577 21.825 35.9347 22.8235 35.1929ZM24.2318 34.3239C24.4469 34.2143 24.6652 34.1126 24.8881 34.0173L25.1707 35.5694L24.2318 34.3239ZM28.4347 33.2499C29.0282 33.2357 29.6075 33.2833 30.1759 33.3707L29.5039 38.4353L28.4755 39.9476L27.3734 38.4877L26.4628 33.4994C27.0986 33.3516 27.758 33.2658 28.4347 33.2499ZM31.7804 33.7599C32.0253 33.8409 32.2655 33.9283 32.501 34.0284L31.5622 35.4105L31.7804 33.7599ZM36.6961 37.3884L32.6235 40.5354L30.8384 40.8691L31.0802 39.0485L33.9705 34.7973C35.0318 35.4772 35.9566 36.3589 36.6961 37.3884ZM34.3552 51.478L31.2827 47.4063L30.953 45.6L32.7522 45.8447L36.9535 48.7693C36.2643 49.829 35.3835 50.7504 34.3552 51.478ZM32.9249 52.3183C32.7004 52.4264 32.4681 52.5217 32.2341 52.6138L31.9421 51.0173L32.9249 52.3183ZM28.9246 53.2874C28.2495 53.3049 27.59 53.2509 26.9495 53.1365L27.6105 48.153L28.6388 46.639L29.7409 48.0989L30.6516 53.0809C30.0895 53.1953 29.5165 53.2715 28.9246 53.2874ZM25.3512 52.6996C25.1299 52.6202 24.9116 52.5312 24.6981 52.4359L25.5538 51.1777L25.3512 52.6996ZM20.5973 49.0601L24.4924 46.0512L26.2775 45.7176L26.0357 47.5382L23.2459 51.6416C22.2128 50.9537 21.3116 50.08 20.5973 49.0601Z" fill="#F9EFF0"/>
<path d="M26.2571 51.2158L25.0042 50.7281L26.6402 48.3229L26.2571 51.2158ZM31.2403 51.0904L30.7175 48.2197L32.468 50.5407L31.2403 51.0904ZM27.0044 47.3698L27.3765 44.5468L24.6117 45.0647L26.8474 43.3362L24.5301 41.7222L27.3184 42.1003L26.8082 39.2995L28.5163 41.5633L30.1114 39.2169L29.7362 42.0383L32.5057 41.5204L30.2669 43.2488L32.5858 44.8629L29.7959 44.4848L30.3077 47.2856L28.6011 45.0218L27.0044 47.3698ZM21.3948 47.249L20.8516 46.0083L23.6886 45.4777L21.3948 47.249ZM35.9032 46.8868L33.5262 45.233L36.3852 45.6207L35.9032 46.8868ZM33.4257 41.1089L35.7195 39.336L36.2643 40.5783L33.4257 41.1089ZM23.5881 41.3536L20.7291 40.966L21.2111 39.6998L23.5881 41.3536ZM26.3984 38.367L24.6463 36.046L25.874 35.4963L26.3984 38.367ZM30.4741 38.2653L30.8572 35.3724L32.1085 35.8601L30.4741 38.2653Z" fill="#999999"/>
<path d="M28.3672 30.5C20.8139 30.6891 14.8087 36.8387 14.5952 44.3911C14.5747 44.1353 14.5433 43.8811 14.5371 43.6206C14.344 35.7171 20.5187 29.1529 28.3295 28.9575C36.1402 28.7621 42.6275 35.0102 42.8206 42.9136C42.8269 43.1742 42.808 43.4283 42.8018 43.6857C42.2193 36.154 35.9204 30.311 28.3672 30.5Z" fill="#262626"/>
<path d="M28.9622 54.8157C35.0742 54.6632 39.9334 49.686 40.1061 43.5745C40.1218 43.7826 40.1469 43.9876 40.1532 44.1973C40.3086 50.5915 35.3129 55.9039 28.9921 56.0628C22.6728 56.2217 17.4227 51.165 17.2657 44.7708C17.261 44.5611 17.2751 44.3545 17.2814 44.1464C17.754 50.242 22.8502 54.9698 28.9622 54.8157Z" fill="#262626"/>
<path d="M144.144 27.3736C152.848 27.1559 160.079 34.1189 160.294 42.9263C160.307 43.4252 160.461 46.9758 160.662 50.9458C147.588 51.2381 132.398 52.0896 128.645 52.0896C128.645 50.6312 128.789 44.3466 128.773 43.7143C128.558 34.9069 135.44 27.5912 144.144 27.3736Z" fill="#191919"/>
<path d="M158.482 47.6031C160.861 39.743 156.492 31.4199 148.724 29.0131C140.956 26.6062 132.731 31.0269 130.352 38.8871C127.973 46.7472 132.342 55.0703 140.11 57.4771C147.878 59.884 156.103 55.4632 158.482 47.6031Z" fill="#070000"/>
<path d="M138.154 47.724C141.28 50.7345 140.737 45.3236 143.712 42.159C146.687 38.9961 152.056 39.2788 148.931 36.2668C145.805 33.2563 140.858 33.3802 137.882 36.5432C134.906 39.7078 135.028 44.7136 138.154 47.724Z" fill="#D60606"/>
<path d="M133.07 43.5523C133.226 49.9004 138.437 54.919 144.709 54.7617C150.983 54.6044 155.942 49.3317 155.787 42.9851C155.631 36.6369 150.421 31.6184 144.148 31.7757C137.876 31.933 132.915 37.2057 133.07 43.5523ZM135.242 46.9853L136.675 46.7168L135.513 47.6144C135.414 47.4095 135.325 47.1998 135.242 46.9853ZM134.753 45.3887C134.625 44.7834 134.543 44.1591 134.527 43.5157C134.512 42.8882 134.562 42.275 134.656 41.6761L139.504 42.3338L141.001 43.3743L139.558 44.4896L134.753 45.3887ZM153.487 47.2999L152.097 46.3324L153.774 46.5595C153.688 46.8105 153.592 47.0584 153.487 47.2999ZM149.108 44.2513L147.613 43.2107L149.056 42.0955L154.105 41.1518C154.234 41.7571 154.314 42.3798 154.33 43.0217C154.346 43.6778 154.295 44.318 154.192 44.9423L149.108 44.2513ZM153.617 39.5537L151.939 39.8682L153.294 38.8213C153.413 39.0596 153.52 39.3042 153.617 39.5537ZM135.297 39.4043L136.517 40.2527L135.058 40.0557C135.13 39.8349 135.207 39.6172 135.297 39.4043ZM138.572 35.1929L141.58 39.1787L141.91 40.985L140.11 40.7404L136.055 37.9174C136.718 36.8577 137.575 35.9347 138.572 35.1929ZM139.982 34.3239C140.197 34.2143 140.415 34.1126 140.638 34.0173L140.92 35.5694L139.982 34.3239ZM144.184 33.2499C144.778 33.2357 145.357 33.2833 145.926 33.3707L145.254 38.4353L144.225 39.9476L143.123 38.4877L142.213 33.4994C142.848 33.3516 143.506 33.2658 144.184 33.2499ZM147.529 33.7599C147.772 33.8409 148.014 33.9283 148.249 34.0284L147.31 35.4105L147.529 33.7599ZM152.446 37.3884L148.373 40.5354L146.588 40.8691L146.83 39.0485L149.72 34.7973C150.782 35.4772 151.706 36.3589 152.446 37.3884ZM150.105 51.478L147.032 47.4063L146.703 45.6L148.502 45.8447L152.703 48.7693C152.013 49.829 151.132 50.7504 150.105 51.478ZM148.673 52.3183C148.449 52.4264 148.216 52.5217 147.982 52.6138L147.69 51.0173L148.673 52.3183ZM144.674 53.2874C143.999 53.3049 143.34 53.2509 142.699 53.1365L143.36 48.153L144.39 46.639L145.492 48.0989L146.401 53.0809C145.839 53.1953 145.265 53.2715 144.674 53.2874ZM141.101 52.6996C140.88 52.6202 140.661 52.5312 140.448 52.4359L141.304 51.1777L141.101 52.6996ZM136.345 49.0601L140.241 46.0512L142.026 45.7176L141.784 47.5382L138.994 51.6416C137.963 50.9537 137.061 50.08 136.345 49.0601Z" fill="#F9EFF0"/>
<path d="M142.007 51.2158L140.754 50.7281L142.39 48.3229L142.007 51.2158ZM146.989 51.0904L146.466 48.2197L148.218 50.5407L146.989 51.0904ZM142.754 47.3698L143.126 44.5468L140.362 45.0647L142.597 43.3362L140.28 41.7222L143.068 42.1003L142.558 39.2995L144.266 41.5633L145.861 39.2169L145.486 42.0383L148.256 41.5204L146.017 43.2488L148.336 44.8629L145.546 44.4848L146.058 47.2856L144.349 45.0233L142.754 47.3698ZM137.145 47.249L136.601 46.0083L139.438 45.4777L137.145 47.249ZM151.653 46.8868L149.276 45.233L152.135 45.6207L151.653 46.8868ZM149.176 41.1089L151.469 39.336L152.014 40.5783L149.176 41.1089ZM139.336 41.3536L136.477 40.966L136.959 39.6998L139.336 41.3536ZM142.147 38.367L140.395 36.046L141.622 35.4963L142.147 38.367ZM146.222 38.2653L146.605 35.3724L147.857 35.8601L146.222 38.2653Z" fill="#999999"/>
<path d="M144.117 30.5C136.564 30.6891 130.558 36.8387 130.345 44.3911C130.325 44.1353 130.295 43.8811 130.287 43.6206C130.094 35.7171 136.269 29.1529 144.079 28.9575C151.89 28.7621 158.377 35.0102 158.57 42.9136C158.577 43.1742 158.558 43.4283 158.55 43.6857C157.968 36.154 151.67 30.311 144.117 30.5Z" fill="#262626"/>
<path d="M144.71 54.8157C150.822 54.6632 155.682 49.686 155.854 43.5745C155.87 43.7826 155.895 43.9875 155.901 44.1972C156.057 50.5915 151.061 55.9039 144.742 56.0628C138.421 56.2216 133.172 51.165 133.015 44.7707C133.011 44.561 133.025 44.3545 133.031 44.1464C133.502 50.242 138.598 54.9698 144.71 54.8157Z" fill="#262626"/>
<path d="M77.8442 22.4345C78.0059 23.178 77.5411 23.7626 76.8079 23.742L71.9096 23.6006C71.1764 23.5799 70.4494 22.9604 70.2877 22.2169C70.126 21.4734 70.5908 20.8872 71.3239 20.9094L76.2223 21.0508C76.9571 21.0715 77.6824 21.691 77.8442 22.4345Z" fill="#4C7038"/>
<path d="M76.1156 21.2415L71.4543 21.0985C70.8953 21.081 70.5076 21.4591 70.451 21.9945C70.7022 22.6045 71.2973 23.0716 71.8986 23.0906L76.5599 23.2336C77.1188 23.2511 77.5066 22.873 77.5631 22.3376C77.3119 21.7276 76.7169 21.2589 76.1156 21.2415Z" fill="#3D592C"/>
<path d="M76.1156 21.2144L71.4543 21.0985C70.8953 21.0842 70.5076 21.3924 70.451 21.8277C70.7022 22.3233 71.2973 22.703 71.8986 22.7189L76.5599 22.8349C77.1188 22.8492 77.5066 22.541 77.5631 22.1057C77.3119 21.61 76.7169 21.2287 76.1156 21.2144Z" fill="#689552"/>
<path d="M41.4829 21.2558C41.6447 21.9992 41.1799 22.5839 40.4467 22.5632L35.5484 22.4218C34.8152 22.4012 34.0882 21.7816 33.9265 21.0381C33.7648 20.2946 34.2295 19.71 34.9627 19.7307L39.8611 19.8721C40.5943 19.8927 41.3212 20.5123 41.4829 21.2558Z" fill="#4C7038"/>
<path d="M39.7544 20.0627L35.0931 19.9197C34.5342 19.9022 34.1464 20.2803 34.0898 20.8157C34.341 21.4257 34.9361 21.8928 35.5374 21.9119L40.1987 22.0548C40.7576 22.0723 41.1454 21.6942 41.2019 21.1588C40.9492 20.5488 40.3557 20.0802 39.7544 20.0627Z" fill="#3D592C"/>
<path d="M39.7544 20.0357L35.0931 19.9197C34.5342 19.9054 34.1464 20.2136 34.0898 20.6489C34.341 21.1446 34.9361 21.5242 35.5374 21.5401L40.1987 21.6561C40.7576 21.6704 41.1454 21.3622 41.2019 20.9269C40.9492 20.4313 40.3557 20.05 39.7544 20.0357Z" fill="#689552"/>
<path d="M173.118 33.8139L171.251 30.7208C170.402 29.6167 169.565 28.2712 167.554 26.9256C162.575 26.4411 159.052 27.9312 159.64 30.3173C159.691 30.5286 159.776 30.7383 159.886 30.948C162.079 32.3095 165.456 33.3993 169.045 33.7631C170.531 33.914 171.904 33.9219 173.118 33.8139Z" fill="#4E6D3D"/>
<path d="M173.118 33.8139L171.251 30.7208C170.56 29.8233 169.877 28.7652 168.563 27.677C164.061 27.21 160.599 28.1266 159.578 29.9122C159.585 30.0441 159.603 30.1791 159.638 30.3173C159.69 30.5286 159.775 30.7383 159.884 30.948C162.078 32.3095 165.455 33.3993 169.044 33.7631C170.531 33.914 171.904 33.9219 173.118 33.8139Z" fill="#F9EFF0"/>
<path d="M159.884 30.948C160.142 31.1085 160.418 31.2642 160.707 31.4167C161.863 30.1108 163.214 28.9289 164.408 27.6627C162.001 27.9344 160.253 28.7319 159.578 29.9138C159.585 30.0457 159.603 30.1807 159.638 30.3189C159.69 30.5286 159.775 30.7383 159.884 30.948Z" fill="white"/>
<path d="M164.769 30.9305C165.854 29.863 166.945 28.8034 167.981 27.6865C167.997 27.6691 168.012 27.6516 168.028 27.6341C167.505 27.5928 166.995 27.5658 166.504 27.561C166.395 27.6929 166.289 27.8248 166.179 27.955C164.978 29.3768 163.452 30.67 162.145 32.0839C162.511 32.2348 162.896 32.3746 163.29 32.5112C163.788 31.9917 164.255 31.4373 164.769 30.9305Z" fill="white"/>
<path d="M169.873 29.4055C169.937 29.3308 169.998 29.2561 170.061 29.1815C169.848 28.9257 169.617 28.6651 169.353 28.4014C169.115 28.6572 168.882 28.9193 168.64 29.1719C167.461 30.4079 166.386 31.4183 164.897 33.0005C165.287 33.1054 165.687 33.1991 166.092 33.2865C167.298 31.9504 168.697 30.7637 169.873 29.4055Z" fill="white"/>
<path d="M171.003 30.3936C170.014 31.4993 168.879 32.5223 167.838 33.609C168.237 33.6678 168.639 33.7218 169.044 33.7615C170.529 33.9124 171.904 33.9204 173.116 33.8123L171.25 30.7193C171.168 30.6144 171.086 30.5048 171.003 30.3936Z" fill="white"/>
<path d="M170.292 32.3508C166.315 32.2078 162.522 31.5183 159.709 30.5397C159.756 30.6764 159.812 30.813 159.883 30.948C162.076 32.3095 165.453 33.3993 169.042 33.7631C170.528 33.914 171.903 33.9219 173.115 33.8139L172.245 32.373C171.616 32.381 170.964 32.3746 170.292 32.3508Z" fill="#D86B32"/>
<path opacity="0.2" d="M159.542 38.4225C164.852 38.4225 174.573 38.3383 175.322 38.3383C176.071 38.3383 176.487 41.0327 175.156 43.306C175.156 41.6364 174.895 40.3289 173.146 40.3289C171.484 40.3289 160.315 39.8348 159.542 38.4225Z" fill="white"/>
<path opacity="0.2" d="M1.24383 32.0855C4.17188 32.0855 12.8728 32.678 15.8417 32.678C15.0473 33.4819 14.4193 36.5718 10.7392 36.6989C7.05754 36.826 0.631538 35.7521 0.0883179 37.1072C0.171528 35.8791 0.407016 33.7361 1.24383 32.0855Z" fill="white"/>
<path d="M12.4301 22.1073H3.05873C0.648779 23.5879 0.65978 28.3967 0.81364 30.697H6.71056C7.62901 30.697 8.87716 29.9424 9.49574 29.0131L12.9717 23.7912C13.5919 22.8603 13.3485 22.1073 12.4301 22.1073Z" fill="#4E6D3D"/>
<path d="M11.4347 22.7538H2.30985C0.732 24.5855 0.678626 28.2887 0.794806 30.392H5.71675C6.6352 30.392 7.88335 29.7216 8.50193 28.8939L11.9795 24.2503C12.5981 23.4242 12.3547 22.7538 11.4347 22.7538Z" fill="#D60606"/>
<path d="M125.607 24.7619C125.607 24.7619 129.704 26.951 127.271 28.6461C128.792 28.627 130.199 27.9217 130.199 26.7969C130.199 26.0455 128.249 24.7619 125.607 24.7619Z" fill="#191919"/>
<path d="M11.4111 25.0081L11.9779 24.2519C12.5965 23.4242 12.3547 22.7538 11.4347 22.7538H7.51282C7.24592 23.5021 6.99628 24.2535 6.75293 25.0081H11.4111Z" fill="#D86B32"/>
<path d="M6.28038 26.5221C5.90044 27.7993 5.55503 29.0893 5.24731 30.392H5.71518C6.63363 30.392 7.88178 29.7216 8.50036 28.8939L10.276 26.5221H6.28038Z" fill="#D86B32"/>
<g opacity="0.2">
<path d="M131.488 25.5022C131.488 22.0247 118.137 22.846 111.767 23.5196C111.767 23.5196 131.29 23.6292 131.142 26.4522C131.13 26.6921 131.095 26.9113 131.044 27.1146C131.325 26.6921 131.488 26.1631 131.488 25.5022Z" fill="white"/>
</g>
<path d="M111.67 23.5196C119.995 23.5196 131.141 23.1351 131.141 26.1662C131.141 30.3078 124.792 29.2911 122.462 29.2911C125.531 28.9591 129.351 28.878 129.351 26.7969C129.35 24.9938 124.98 24.3742 111.67 23.5196Z" fill="#4C7038"/>
<path opacity="0.2" d="M175.824 38.3002L171.249 30.7209C169.207 28.0694 167.251 24.0247 148.877 21.915L119.918 18.4312C110.301 12.9011 96.059 6.33687 86.1743 2.66394C80.0733 0.396955 52.2733 -0.580058 41.9082 0.349294C33.6311 1.09119 30.3655 2.55909 22.0634 10.8947C16.3674 16.6138 7.13581 16.0927 3.3631 21.9389C-0.219643 23.5815 0.928035 31.9425 0.928035 31.9425C-0.499095 37.7029 -0.519516 39.1597 2.58437 44.0114C2.61734 44.0003 2.65189 43.9891 2.68643 43.9812C2.7194 43.9462 2.75865 43.9176 2.7979 43.889C1.08817 40.8214 1.30011 39.1104 2.46819 34.6035C2.46819 34.6035 1.33779 26.7207 4.86715 25.1733C8.58334 19.6608 28.6087 22.6681 32.5667 15.9402C38.1135 6.51003 37.5059 3.61712 45.6573 2.91812C55.8655 2.04119 78.833 1.98717 84.5792 4.76888C90.6535 7.70785 98.9777 15.4429 108.451 20.6552L136.852 23.124C154.951 25.113 166.593 31.2117 168.604 33.7122L174.733 40.5942C175.537 41.9255 175.297 43.5475 174.586 45.133C176.024 42.8946 176.977 40.2908 175.824 38.3002Z" fill="white"/>
<path opacity="0.2" d="M144.098 27.4848C135.575 27.6977 128.797 34.6384 128.557 43.1615C128.535 42.8723 128.499 42.5864 128.492 42.2925C128.274 33.3739 135.243 25.9661 144.056 25.7453C152.87 25.5244 160.191 32.5764 160.409 41.4934C160.417 41.7873 160.395 42.0748 160.387 42.364C159.729 33.8648 152.62 27.2719 144.098 27.4848Z" fill="white"/>
<path opacity="0.2" d="M28.3373 27.4848C19.8138 27.6977 13.0361 34.6384 12.7959 43.1615C12.7739 42.8723 12.7378 42.5864 12.7315 42.2925C12.5133 33.3739 19.4825 25.9661 28.2949 25.7453C37.1073 25.5244 44.4298 32.5764 44.648 41.4934C44.6559 41.7873 44.6339 42.0748 44.626 42.364C43.9682 33.8648 36.8608 27.2719 28.3373 27.4848Z" fill="white"/>
<path opacity="0.2" d="M33.1211 19.9832L113.332 23.3512C113.332 23.3512 81.0485 26.7191 33.7852 24.0247C31.7898 22.6776 33.1211 19.9832 33.1211 19.9832Z" fill="white"/>
<path opacity="0.2" d="M47.1004 42.2115C65.7347 42.2115 74.3917 43.5586 85.0426 39.5171C95.6935 35.4756 114.362 31.5342 131.306 32.7813C129.974 35.4756 128.976 36.486 128.31 40.1907C122.652 40.1907 112.001 39.1803 97.0248 43.2218C82.0486 47.2633 68.735 44.569 47.1004 42.2115Z" fill="white"/>
<path opacity="0.7" d="M83.3988 4.74982C81.251 4.26688 76.5504 3.7458 70.9031 3.36771C69.6314 4.65291 68.3613 5.93971 67.0912 7.22492C67.8118 10.9121 68.6659 14.6979 69.6581 18.6552L83.3988 4.74982Z" fill="white"/>
<path opacity="0.7" d="M91.6476 9.87319C89.6239 8.45612 87.7414 7.16615 86.3536 6.25427L73.3995 19.3621C76.2946 19.4288 79.2085 19.4924 82.0832 19.5496C85.2718 16.3246 88.4605 13.0997 91.6476 9.87319Z" fill="white"/>
<path opacity="0.7" d="M33.8088 17.9069C34.8497 18.0102 36.3412 18.1118 38.1436 18.2103L53.3349 2.83868C46.3499 2.93877 41.7043 3.51226 40.6744 4.45432C38.4026 6.52908 32.9657 16.0688 33.7036 17.8862C33.724 17.8942 33.7585 17.9021 33.8088 17.9069Z" fill="white"/>
<path opacity="0.7" d="M59.6306 2.86729C59.2506 2.85935 58.8722 2.85141 58.5017 2.84664C57.4514 2.83076 56.4403 2.8244 55.4638 2.8244C50.3613 7.98747 45.2572 13.1521 40.1547 18.3152C41.4076 18.3756 42.7641 18.4359 44.1881 18.4931L59.6306 2.86729Z" fill="white"/>
<path opacity="0.7" d="M55.5627 18.8903C60.0513 19.0285 64.43 19.1444 67.906 19.2318C66.9844 15.6574 66.1759 12.2212 65.4741 8.86279C62.1692 12.2037 58.866 15.5462 55.5627 18.8903Z" fill="white"/>
<path d="M102.228 19.7259C101.848 21.6735 97.802 22.506 95.8897 22.1247C93.9759 21.7434 92.7324 19.8546 93.1124 17.9085C93.4923 15.9624 95.3496 14.6915 97.2634 15.0728C99.1757 15.454 102.606 17.7798 102.228 19.7259Z" fill="#547C3E"/>
<g opacity="0.5">
<path d="M94.1878 16.6471C94.5599 17.5908 95.3763 18.3311 96.4298 18.5408C97.6214 18.7791 99.766 18.4693 101 17.6495C100.093 16.5311 98.4111 15.5637 97.3074 15.3444C96.0687 15.0966 94.8582 15.6479 94.1878 16.6471Z" fill="white"/>
</g>
</svg>
