<svg width="184" height="58" viewBox="0 0 184 58" fill="none" xmlns="http://www.w3.org/2000/svg">
<path d="M7.71371 11.8152C7.71371 11.8152 2.01775 17.18 2.04758 21.9713C2.05543 23.2915 2.53114 28.8883 1.72102 30.1989C0.910901 31.5095 -0.792552 32.7423 0.428908 35.4017C-0.0562223 38.6775 0.174569 42.6125 4.38374 44.4156C8.59291 46.2171 24.2254 48.0155 52.8779 48.5063C81.5304 48.9972 134.628 48.9972 135.923 49.1625C137.218 49.3261 172.669 49.9806 176.555 49.4897C180.44 48.9988 183.497 49.4166 183.335 46.9606C183.174 44.503 182.293 42.5664 181.249 38.3518C181.163 38.0007 180.349 36.9204 178.85 35.3223C181.296 35.3223 166.279 24.6593 162.308 22.7101C152.49 17.8886 147.459 16.311 125.723 15.1084C120.553 14.8225 120.057 15.1704 120.057 15.1704C116.918 14.5461 114.722 13.8312 112.61 12.6365C109.387 10.8096 83.6609 -0.275914 71.3301 0.515227C48.3437 1.98948 25.0324 10.0153 21.3083 10.0153C18.845 10.0137 6.30542 7.15256 7.71371 11.8152Z" fill="#D60606"/>
<path d="M176.555 45.4498C172.669 45.9407 137.218 45.2862 135.923 45.1225C134.628 44.9589 81.532 44.9589 52.8779 44.468C24.2254 43.9771 10.9589 42.3281 6.74973 40.5266C4.25186 39.4575 0.79472 37.4844 0.41635 35.4954C-0.0515097 38.7537 0.212251 42.6316 4.38374 44.4172C8.59291 46.2187 24.2254 48.017 52.8779 48.5079C81.5304 48.9988 134.628 48.9988 135.923 49.164C137.218 49.3277 172.669 49.9822 176.555 49.4913C180.44 49.0004 183.497 49.4182 183.335 46.9622C183.276 46.0471 183.114 45.2036 182.883 44.2901C181.907 45.2226 179.462 45.0812 176.555 45.4498Z" fill="#341115"/>
<path d="M143.996 25.2614C134.684 25.2614 127.136 32.8996 127.136 42.3218C127.136 44.7206 127.63 47.0019 128.513 49.0735C132.909 49.1005 135.64 49.1291 135.921 49.164C136.659 49.2577 148.466 49.5087 159.217 49.6184C160.256 47.4038 160.855 44.9367 160.855 42.3218C160.855 32.8996 153.308 25.2614 143.996 25.2614Z" fill="#200000"/>
<path d="M58.6115 35.3365C56.0462 29.3426 49.4773 21.7251 36.3662 21.7251C27.0545 21.7251 16.6972 31.0615 18.3976 43.3464C18.6802 45.3847 21.3947 47.1195 21.3947 47.1195C36.8137 48.4078 119.655 47.2767 127.345 45.0002C98.7706 43.348 61.6197 42.3647 58.6115 35.3365Z" fill="#341115"/>
<path d="M54.0758 41.2733C54.0758 31.8511 46.5272 24.2129 37.2156 24.2129C27.9039 24.2129 20.3553 31.8511 20.3553 41.2733C20.3553 43.3306 20.7337 45.2941 21.3931 47.1211C29.1442 47.7692 39.4513 48.2696 52.4713 48.5C53.4902 46.3029 54.0758 43.8596 54.0758 41.2733Z" fill="#200000"/>
<path d="M120.058 15.1688C117.35 14.5826 114.533 13.7231 112.612 12.6349C109.388 10.808 81.8366 -0.750935 69.5073 0.0386168C46.521 1.51287 25.0355 10.0137 21.3115 10.0137C20.8342 10.0137 48.2181 6.87928 70.3614 14.8463C81.2871 18.7766 115.378 16.2459 120.058 15.1688Z" fill="#341115"/>
<path d="M99.2855 16.7241C99.2855 16.7241 95.3731 12.492 79.2649 6.65849C72.5217 4.21676 69.2263 4.46776 61.852 4.78231C42.6164 9.59111 52.9705 10.4823 64.9559 14.7971C77.3464 19.2564 102.218 16.1299 99.2855 16.7241Z" fill="#200000"/>
<path d="M78.8802 5.77675C72.7007 3.96094 67.9311 3.79255 61.8536 4.78068C62.6716 8.13906 63.8475 11.4911 64.9575 14.7954C65.1349 14.8574 65.3139 14.9178 65.4913 14.9781C79.2272 19.5915 102.286 16.7018 101.807 16.7415C101.807 16.7415 96.0733 10.8286 78.8802 5.77675Z" fill="#80C2DC"/>
<path opacity="0.7" d="M64.7973 14.3205C64.521 13.5007 64.2447 12.681 63.97 11.8565C66.4521 9.34487 68.9343 6.83323 71.418 4.32001C72.3647 4.40262 73.324 4.53924 74.2974 4.70764L64.7973 14.3205ZM83.3532 7.19386C81.9559 6.71886 80.4675 6.24384 78.8787 5.77837C78.392 5.6354 77.9225 5.51467 77.4515 5.39234L67.4082 15.5549C69.4273 16.1061 71.6017 16.5176 73.8358 16.8242L83.3532 7.19386ZM87.8669 8.86351C87.3206 8.64587 86.7679 8.42664 86.1839 8.20741L77.282 17.215C78.0042 17.2801 78.728 17.3341 79.4502 17.3818L87.8669 8.86351ZM88.5499 17.5804C96.1816 17.4612 102.052 16.7225 101.807 16.7431C101.807 16.7431 99.7032 14.5921 94.2819 11.7786L88.5499 17.5804ZM91.7009 10.5141C91.3335 10.3441 90.9645 10.1725 90.5736 9.99938C88.0867 12.5158 85.5998 15.0322 83.113 17.5486C83.6515 17.5645 84.1837 17.574 84.7159 17.5804L91.7009 10.5141Z" fill="white"/>
<path d="M112.111 16.1045C116.026 15.8741 118.97 15.4198 120.057 15.1688C117.348 14.5826 114.532 13.7231 112.61 12.6349C109.902 11.1003 91.3084 3.0316 78.1219 0.960022C96.4234 6.81891 112.111 16.1045 112.111 16.1045Z" fill="#80C2DC"/>
<path d="M128.104 25.9414C125.023 28.6833 120.135 30.8217 117.187 30.7184L60.4029 28.731C57.4544 28.6277 115.02 29.2997 119.141 27.9605C120.827 27.4124 123.296 26.1479 125.723 23.1994C127.47 21.077 68.6109 18.6988 71.5593 18.802C71.5593 18.802 111.153 18.5304 128.343 20.7894C131.271 21.1755 131.186 23.201 128.104 25.9414Z" fill="#EA454B"/>
<path d="M124.435 22.4543C124.192 22.4225 123.939 22.3939 123.682 22.3637C124.52 22.88 124.129 23.9603 122.509 25.3234C121.047 26.553 116.857 27.9128 115.1 28.3863C115.736 28.4673 118.597 28.2766 119.6 28.0733C121.306 27.5745 122.799 26.8834 124.2 25.7046C126.253 23.9746 126.341 22.6973 124.435 22.4543Z" fill="#341115"/>
<path d="M10.9071 24.6244L4.77624 23.4392L9.3889 24.9961C10.5303 25.3805 11.7706 27.1852 12.2008 29.0408L13.1993 33.3428C13.6295 35.1967 12.923 36.8712 11.8365 36.7202L5.12792 35.2523L12.8099 37.6194C16.5167 38.3724 16.5512 36.5804 16.0441 34.3913L14.8666 29.3156C14.3564 27.128 12.5854 25.0279 10.9071 24.6244Z" fill="#EA454B"/>
<path d="M9.45013 24.5624L4.77624 23.4377L7.93194 24.9342C9.07333 25.3186 10.3136 27.1233 10.7438 28.9772L11.7423 33.2793C12.1725 35.1332 11.6717 36.5201 10.5852 36.3692L4.9772 35.2206L12.4661 37.5591C14.1444 37.9626 15.0927 36.5153 14.5856 34.3277L13.4081 29.2521C12.8994 27.0661 11.1285 24.9659 9.45013 24.5624Z" fill="#341115"/>
<path d="M2.03031 20.4971L5.75592 21.0245C7.94607 21.3343 10.9385 19.6313 12.4394 17.2197C13.9403 14.8082 13.3814 12.6032 11.1913 12.2918L7.51903 11.7723C7.52374 11.7866 7.52375 11.8009 7.52846 11.8152C7.52846 11.8152 2.94405 16.1442 2.03031 20.4971Z" fill="#341115"/>
<path d="M9.58986 12.3172L7.31179 12.0281C6.42003 12.8796 2.94405 16.3873 2.21871 19.922L4.45282 20.2064C6.65396 20.486 9.58829 18.9482 11.006 16.7686C12.4237 14.5889 11.7894 12.5968 9.58986 12.3172Z" fill="#F43B3B"/>
<path d="M10.5052 15.5676C10.5052 13.9615 9.07019 12.6794 7.06059 12.2711C6.80154 12.5269 6.45143 12.8891 6.05265 13.3308C7.66033 13.4992 8.85981 14.4444 8.85981 15.6629C8.85981 17.0799 7.238 18.3238 5.23782 18.4414C4.3335 18.4938 3.5171 18.2984 2.88282 17.9473C2.69756 18.354 2.53742 18.7671 2.41025 19.1833C3.22822 19.5058 4.19691 19.6662 5.23939 19.6059C8.14703 19.4375 10.5052 17.628 10.5052 15.5676Z" fill="#D60606"/>
<path d="M22.2943 9.90247C21.6082 9.9676 21.255 10.0137 21.3115 10.0137C21.5595 10.0137 21.8924 9.97395 22.2943 9.90247Z" fill="#80C2DC"/>
<path d="M182.808 44.0026C182.42 42.5267 181.864 40.838 181.249 38.3518C181.164 38.0086 180.294 36.8696 178.85 35.3222H173.964C172.355 35.3222 171.628 36.6424 172.342 38.2707L173.562 41.0556C174.275 42.684 176.159 44.0041 177.768 44.0041L182.808 44.0026Z" fill="#341115"/>
<g opacity="0.5">
<path d="M112.612 12.6349C109.388 10.808 81.8366 -0.750935 69.5073 0.0386169C48.0533 1.41438 27.9133 8.90797 22.2943 9.90246C23.5346 9.78331 25.8943 9.60063 29.0406 9.4926C38.4245 7.63389 62.4471 0.87583 74.098 1.5796C81.5288 2.02759 107.464 15.2737 110.07 16.2634C114.981 15.9028 118.721 15.477 120.058 15.1704C117.348 14.5826 114.532 13.7231 112.612 12.6349Z" fill="white"/>
</g>
<g opacity="0.5">
<path d="M178.85 35.3207C181.296 35.3207 166.279 24.6577 162.308 22.7085C152.49 17.887 147.459 16.3094 125.723 15.1068C120.553 14.8209 120.057 15.1688 120.057 15.1688C115.378 16.2443 77.2396 20.4145 66.3124 16.4842C47.0202 9.54345 27.8034 9.39095 22.4466 9.88819C21.9662 9.96921 21.5831 10.0137 21.3099 10.0137C18.8466 10.0137 6.33682 7.16048 7.709 11.7993L7.51746 11.7723C7.52217 11.7866 7.52217 11.8009 7.52688 11.8152C7.52688 11.8152 2.79647 16.1347 2.03031 20.4971L2.21086 20.5225C2.11038 21.0071 2.04287 21.4916 2.04601 21.9713C2.05386 23.2915 2.52957 28.8883 1.71945 30.1989C0.909329 31.5095 -0.794124 32.7423 0.427336 35.4017C0.425766 35.4128 0.425768 35.4239 0.424198 35.435C0.432048 35.4541 0.45717 35.4668 0.45246 35.4875C0.36768 35.8529 3.03825 38.7203 5.5267 39.1699C-0.057792 35.9148 2.87654 33.9894 3.00371 25.657C3.0775 20.8657 8.63059 15.5008 8.63059 15.5008C7.23329 10.8382 19.6865 13.6993 22.1357 13.6993C22.4089 13.6993 22.7888 13.6548 23.2646 13.5738C28.5837 13.0766 45.0452 10.3632 64.207 17.3039C75.0604 21.2358 115.565 19.9315 120.212 18.856C120.212 18.856 120.705 18.5081 125.841 18.7941C147.43 19.9967 152.425 21.5742 162.178 26.3957C164.593 27.5904 171.108 32.0433 175.25 35.3223H178.85V35.3207Z" fill="white"/>
</g>
<path d="M102.474 14.6827C102.474 16.3476 99.2777 17.6963 97.6433 17.6963C96.0074 17.6963 94.6823 16.346 94.6823 14.6827C94.6823 13.0194 96.0074 11.669 97.6433 11.669C99.2777 11.6674 102.474 13.0178 102.474 14.6827Z" fill="#200000"/>
<g opacity="0.5">
<path d="M95.3652 13.4674C95.8221 14.1822 96.6118 14.6573 97.513 14.6573C98.5319 14.6573 100.246 14.0504 101.132 13.1735C100.206 12.4014 98.667 11.8819 97.7234 11.8819C96.6652 11.8819 95.7562 12.5348 95.3652 13.4674Z" fill="white"/>
</g>
<path d="M52.5435 41.3352C52.5435 49.8487 45.7234 56.7498 37.3098 56.7498C28.8961 56.7498 22.0745 49.8487 22.0745 41.3352C22.0745 32.8217 28.8946 25.9207 37.3098 25.9207C45.7234 25.9207 52.5435 32.8217 52.5435 41.3352Z" fill="#070000"/>
<path d="M43.9195 45.7866C40.7591 48.9845 41.1861 43.3671 38.0241 40.1691C34.8637 36.9712 29.3122 37.4018 32.4726 34.2038C35.633 31.0059 40.7591 31.0059 43.9195 34.2038C47.0799 37.4018 47.0799 42.5871 43.9195 45.7866Z" fill="#D60606"/>
<path d="M37.3098 29.4284C30.8116 29.4284 25.5426 34.7599 25.5426 41.3352C25.5426 47.9106 30.8116 53.242 37.3098 53.242C43.808 53.242 49.0769 47.9106 49.0769 41.3352C49.0769 34.7599 43.8096 29.4284 37.3098 29.4284ZM46.6529 45.6055L45.4267 44.7063L46.9166 44.9462C46.835 45.1702 46.7486 45.391 46.6529 45.6055ZM42.384 42.4743L40.8627 41.3574L42.3856 40.2406L47.3892 39.4336C47.5022 40.0516 47.5682 40.6839 47.5682 41.3352C47.5682 42.0009 47.5007 42.649 47.3813 43.2797L42.384 42.4743ZM27.7171 44.9859L29.4472 44.7063L28.0327 45.7437C27.918 45.4958 27.8129 45.2432 27.7171 44.9859ZM27.2445 43.321C27.1205 42.6776 27.053 42.0151 27.053 41.3368C27.053 40.6727 27.1205 40.0246 27.2382 39.3955L32.4899 40.2422L34.0128 41.359L32.4915 42.4759L27.2445 43.321ZM28.017 36.9601L29.4457 38.0086L27.6998 37.7274C27.7972 37.4669 27.9023 37.2111 28.017 36.9601ZM46.9323 37.7671L45.4267 38.0102L46.667 37.0999C46.7643 37.3176 46.8507 37.54 46.9323 37.7671ZM45.8443 35.578L41.7168 38.6059L39.8595 38.9046L40.1546 37.0253L43.169 32.8201C44.2209 33.5652 45.1315 34.4993 45.8443 35.578ZM40.7465 33.2729L41.0008 31.6588C41.2348 31.751 41.4624 31.851 41.6885 31.9591L40.7465 33.2729ZM39.3586 31.1632L38.5422 36.3517L37.4385 37.8911L36.3348 36.3517L35.5121 31.1251C36.0977 31.0202 36.6959 30.9551 37.3114 30.9551C38.0116 30.9551 38.6961 31.0281 39.3586 31.1632ZM34.1274 33.2729L33.1195 31.8669C33.3612 31.7573 33.6077 31.6604 33.8589 31.5699L34.1274 33.2729ZM31.6185 32.701L34.7193 37.0284L35.0144 38.9062L33.1571 38.6059L28.86 35.4541C29.5995 34.369 30.5352 33.4333 31.6185 32.701ZM28.882 47.2449L33.1571 44.1074L35.0144 43.8087L34.7193 45.6865L31.6405 49.9822C30.5588 49.2562 29.6231 48.3252 28.882 47.2449ZM34.1274 49.442L33.8652 51.1021C33.6203 51.0132 33.3785 50.921 33.143 50.8146L34.1274 49.442ZM35.5184 51.547L36.3348 46.3648L37.4385 44.8254L38.5422 46.3664L39.3524 51.5104C38.693 51.6455 38.01 51.717 37.3114 51.717C36.6975 51.7154 36.1009 51.6518 35.5184 51.547ZM40.7465 49.4436L41.6634 50.7241C41.4436 50.8289 41.2207 50.9258 40.993 51.0148L40.7465 49.4436ZM43.1486 49.8646L40.1562 45.6881L39.861 43.8087L41.7168 44.1074L45.8255 47.1226C45.1111 48.1981 44.2005 49.1259 43.1486 49.8646Z" fill="#DCDFE2"/>
<path d="M39.5486 46.5158L41.3039 48.9639L40.0196 49.5024L39.5486 46.5158ZM33.5716 48.9623L35.3269 46.5142L34.8574 49.5008L33.5716 48.9623ZM37.4369 43.1495L35.7272 45.5372L36.1857 42.6252L33.3063 43.0891L35.666 41.3575L33.3047 39.6259L36.1857 40.0897L35.7272 37.1778L37.4369 39.5655L39.1482 37.1778L38.6914 40.0913L41.5676 39.6275L39.2095 41.3591L41.5676 43.0907L38.6914 42.6268L39.1482 45.5404L37.4369 43.1495ZM42.5332 43.4942L45.4848 43.9692L44.9541 45.2687L42.5332 43.4942ZM29.3907 43.9692L32.3407 43.4942L29.9214 45.2687L29.3907 43.9692ZM29.3891 38.7457L29.9214 37.4463L32.3407 39.2223L29.3891 38.7457ZM44.9525 37.4478L45.4832 38.7473L42.5332 39.2223L44.9525 37.4478ZM40.018 33.2157L41.3039 33.7543L39.5486 36.2023L40.018 33.2157ZM33.5732 33.7527L34.8559 33.2157L35.3269 36.2007L33.5732 33.7527Z" fill="#CBCFD1"/>
<path d="M37.3098 28.1082C45.1347 28.1082 51.5089 34.3214 51.9218 42.1343C51.9359 41.869 51.961 41.6053 51.961 41.3352C51.961 33.1474 45.4016 26.5101 37.3098 26.5101C29.218 26.5101 22.6585 33.1474 22.6585 41.3352C22.6585 41.6053 22.6837 41.8674 22.6978 42.1343C23.1107 34.3198 29.4849 28.1082 37.3098 28.1082Z" fill="#262626"/>
<path d="M37.3098 53.2992C30.978 53.2992 25.8205 48.2728 25.4861 41.9485C25.4751 42.1629 25.4531 42.3774 25.4531 42.595C25.4531 49.2196 30.7613 54.5908 37.3082 54.5908C43.8551 54.5908 49.1633 49.2196 49.1633 42.595C49.1633 42.3774 49.1429 42.1645 49.1303 41.9485C48.799 48.2728 43.6416 53.2992 37.3098 53.2992Z" fill="#262626"/>
<path d="M159.319 42.6004C160.014 34.1161 153.78 26.6682 145.396 25.965C137.011 25.2618 129.65 31.5696 128.956 40.0539C128.261 48.5381 134.494 55.9861 142.879 56.6893C151.264 57.3924 158.624 51.0846 159.319 42.6004Z" fill="#070000"/>
<path d="M150.744 45.7866C147.583 48.9845 148.009 43.3671 144.848 40.1692C141.688 36.9713 136.137 37.4018 139.297 34.2039C142.457 31.0059 147.583 31.0059 150.744 34.2039C153.906 37.4018 153.906 42.5871 150.744 45.7866Z" fill="#D60606"/>
<path d="M144.136 29.4284C137.636 29.4284 132.369 34.7599 132.369 41.3353C132.369 47.9106 137.638 53.2421 144.136 53.2421C150.634 53.2421 155.903 47.9106 155.903 41.3353C155.903 34.7599 150.634 29.4284 144.136 29.4284ZM153.477 45.6055L152.251 44.7063L153.741 44.9462C153.661 45.1702 153.575 45.391 153.477 45.6055ZM149.21 42.4743L147.689 41.3575L149.212 40.2407L154.215 39.4336C154.328 40.0516 154.394 40.6839 154.394 41.3353C154.394 42.0009 154.327 42.6491 154.207 43.2797L149.21 42.4743ZM134.541 44.9859L136.272 44.7063L134.857 45.7437C134.744 45.4959 134.639 45.2433 134.541 44.9859ZM134.069 43.321C133.946 42.6776 133.877 42.0152 133.877 41.3368C133.877 40.6728 133.945 40.0246 134.063 39.3955L139.314 40.2423L140.837 41.3591L139.316 42.4759L134.069 43.321ZM134.843 36.9602L136.272 38.0086L134.526 37.7275C134.623 37.4669 134.727 37.2112 134.843 36.9602ZM153.758 37.7672L152.253 38.0102L153.493 37.0999C153.59 37.3176 153.675 37.54 153.758 37.7672ZM152.669 35.578L148.541 38.606L146.685 38.9046L146.981 37.0253L149.995 32.8202C151.047 33.5652 151.956 34.4993 152.669 35.578ZM147.572 33.2729L147.827 31.6589C148.061 31.751 148.29 31.8511 148.514 31.9591L147.572 33.2729ZM146.183 31.1632L145.367 36.3517L144.263 37.8911L143.159 36.3517L142.336 31.1251C142.922 31.0202 143.52 30.9551 144.136 30.9551C144.836 30.9551 145.52 31.0282 146.183 31.1632ZM140.953 33.2729L139.945 31.867C140.187 31.7574 140.434 31.6605 140.685 31.5699L140.953 33.2729ZM138.444 32.701L141.545 37.0285L141.84 38.9062L139.983 38.606L135.686 35.4541C136.425 34.3691 137.361 33.4334 138.444 32.701ZM135.708 47.245L139.983 44.1074L141.84 43.8087L141.545 45.6865L138.466 49.9822C137.385 49.2562 136.449 48.3253 135.708 47.245ZM140.953 49.4421L140.691 51.1022C140.446 51.0132 140.204 50.9211 139.969 50.8146L140.953 49.4421ZM142.343 51.547L143.159 46.3649L144.263 44.8255L145.367 46.3664L146.177 51.5105C145.517 51.6455 144.834 51.717 144.136 51.717C143.523 51.7154 142.925 51.6518 142.343 51.547ZM147.572 49.4437L148.489 50.7241C148.27 50.8289 148.047 50.9259 147.819 51.0148L147.572 49.4437ZM149.973 49.8646L146.981 45.6881L146.685 43.8087L148.541 44.1074L152.65 47.1226C151.935 48.1981 151.025 49.1259 149.973 49.8646Z" fill="#DCDFE2"/>
<path d="M146.373 46.5158L148.128 48.9639L146.844 49.5024L146.373 46.5158ZM140.398 48.9623L142.153 46.5142L141.683 49.5009L140.398 48.9623ZM144.261 43.1495L142.552 45.5372L143.01 42.6252L140.132 43.0891L142.492 41.3575L140.131 39.6259L143.012 40.0898L142.553 37.1778L144.263 39.5655L145.974 37.1778L145.517 40.0914L148.394 39.6275L146.034 41.3591L148.392 43.0907L145.516 42.6268L145.973 45.5404L144.261 43.1495ZM149.358 43.4942L152.309 43.9692L151.778 45.2687L149.358 43.4942ZM136.215 43.9692L139.165 43.4942L136.747 45.2687L136.215 43.9692ZM136.215 38.7458L136.747 37.4463L139.167 39.2224L136.215 38.7458ZM151.778 37.4479L152.309 38.7474L149.359 39.2224L151.778 37.4479ZM146.842 33.2157L148.128 33.7543L146.373 36.2024L146.842 33.2157ZM140.398 33.7527L141.68 33.2157L142.151 36.2008L140.398 33.7527Z" fill="#CBCFD1"/>
<path d="M144.136 28.1083C151.961 28.1083 158.335 34.3214 158.746 42.1343C158.76 41.869 158.785 41.6053 158.785 41.3353C158.785 33.1474 152.226 26.5101 144.134 26.5101C136.042 26.5101 129.483 33.1474 129.483 41.3353C129.483 41.6053 129.51 41.8674 129.522 42.1343C129.937 34.3198 136.309 28.1083 144.136 28.1083Z" fill="#262626"/>
<path d="M144.136 53.2993C137.804 53.2993 132.646 48.2728 132.312 41.9485C132.301 42.163 132.279 42.3774 132.279 42.5951C132.279 49.2197 137.587 54.5908 144.134 54.5908C150.681 54.5908 155.989 49.2197 155.989 42.5951C155.989 42.3774 155.969 42.1645 155.956 41.9485C155.625 48.2728 150.468 53.2993 144.136 53.2993Z" fill="#262626"/>
<g opacity="0.5">
<path d="M58.6115 35.3365C56.0462 29.3426 49.4773 18.0395 29.5665 20.4955C45.3498 17.3007 54.7446 22.8911 60.6478 33.7638C64.2306 40.363 98.5272 40.8888 127.345 45.0018C112.612 45.3132 61.6197 42.3647 58.6115 35.3365Z" fill="white"/>
</g>
<path d="M125.439 44.8938C125.511 44.8747 125.591 44.8573 125.654 44.8382C111.946 44.0439 96.2727 43.4036 83.3343 42.1772C95.998 43.4545 111.591 44.1153 125.439 44.8938Z" fill="#341115"/>
<g opacity="0.5">
<path d="M18.3332 42.7523C17.0427 30.7629 27.2068 21.7251 36.3662 21.7251C37.0602 21.7251 37.7258 21.7569 38.3837 21.7982C37.2046 21.6568 35.9816 21.5615 34.6753 21.5615C25.5222 21.5615 15.369 30.5833 16.6392 42.5585C17.1808 42.6252 17.7476 42.6887 18.3332 42.7523Z" fill="white"/>
</g>
<g opacity="0.5">
<path d="M143.996 25.2614C153.122 25.2614 160.536 32.6041 160.828 41.7674C160.847 41.4465 160.856 41.1224 160.856 40.7967C160.856 31.3745 153.308 23.7363 143.996 23.7363C134.684 23.7363 127.136 31.3745 127.136 40.7967C127.136 41.0509 127.164 41.2971 127.173 41.5481C127.575 32.4881 134.942 25.2614 143.996 25.2614Z" fill="white"/>
</g>
</svg>
