<svg width="187" height="85" viewBox="0 0 187 85" fill="none" xmlns="http://www.w3.org/2000/svg">
<path d="M104.936 29.6721L143.032 29.6006C137.735 23.559 126.173 10.3273 120.662 3.70741C118.728 3.34837 115.329 2.82412 98.6148 2.46033L104.936 29.6721Z" fill="#2D2D2D"/>
<path d="M100.742 3.31821C116.241 3.67406 119.7 4.17766 121.367 4.47791C126.631 10.788 137.075 22.7536 142.404 28.8396L106.688 28.9048L100.742 3.31821Z" fill="#80C2DC"/>
<path d="M14.0358 49.6047C14.0358 50.4308 13.3748 51.0996 12.5584 51.0996H1.47737C0.660973 51.0996 0 50.4308 0 49.6047V19.705C0 18.8789 0.660973 18.2101 1.47737 18.2101H12.5584C13.3748 18.2101 14.0358 18.8789 14.0358 19.705V49.6047Z" fill="#2D2D2D"/>
<path d="M12.0874 18.5056H1.9468C1.19948 18.5056 0.595032 19.1188 0.595032 19.8734V24.8903C0.595032 24.1341 1.20105 23.5225 1.9468 23.5225H12.0874C12.8348 23.5225 13.4392 24.1357 13.4392 24.8903V19.8734C13.4408 19.1172 12.8348 18.5056 12.0874 18.5056Z" fill="#383838"/>
<path d="M12.0874 50.5547H1.9468C1.19948 50.5547 0.595032 49.9415 0.595032 49.1869V44.17C0.595032 44.9262 1.20105 45.5378 1.9468 45.5378H12.0874C12.8348 45.5378 13.4392 44.9246 13.4392 44.17V49.1869C13.4408 49.9415 12.8348 50.5547 12.0874 50.5547Z" fill="#111111"/>
<path d="M126.261 64.4918C126.261 66.3489 124.773 67.855 122.937 67.855H71.9641C70.1288 67.855 68.6404 66.3489 68.6404 64.4918C68.6404 62.6347 70.1288 61.1287 71.9641 61.1287H122.936C124.773 61.1287 126.261 62.6347 126.261 64.4918Z" fill="#2D2D2D"/>
<path d="M16.9968 63.8707H184.893C185.949 63.0906 186.651 61.8992 186.651 60.069C186.651 55.3349 186.897 50.1019 184.927 49.8525V41.7552C184.927 35.7756 180.495 36.8972 180.495 36.8972C180.495 36.8972 180.249 35.1529 177.294 32.4125C171.631 31.167 138.881 28.9238 138.881 28.9238C138.881 28.9238 123.042 8.17148 118.483 1.66442C116.759 -1.07598 23.762 0.393512 23.762 0.393512C20.9485 6.92599 11.819 30.4203 11.819 30.4203C9.98207 41.5011 10.6509 51.5968 10.0951 51.5968C8.86423 51.5968 10.3416 62.0612 10.3416 62.0612C10.3416 62.0612 13.2037 63.0033 16.9968 63.8707Z" fill="#E3E5E5"/>
<path opacity="0.7" d="M179.266 37.3944L13.0498 31.7897L13.7893 28.425L137.896 30.2948L176.68 33.2846L179.266 37.3944Z" fill="white"/>
<path d="M134.942 32.287H12.0655V31.5387H134.942V32.287ZM134.942 41.5058H58.8515V42.2541H134.942V41.5058ZM134.348 39.2643H57.3741V40.0125H134.348V39.2643Z" fill="#CECECE"/>
<path d="M93.203 59.8879V3.94253L95.0823 3.97589C111.812 4.27138 115.632 4.69078 117.901 5.06093L118.654 5.18326L119.102 5.80918C123.097 11.3901 131.844 22.8139 135.419 27.4671L135.5 27.5735L134.91 43.7109L127.98 59.8196L93.203 59.8879ZM93.9409 4.70349V59.1381L127.495 59.073L134.204 43.4773L134.75 27.8181C131.123 23.0967 122.473 11.7967 118.5 6.24764L118.232 5.87272L117.78 5.79806C115.538 5.43267 111.748 5.01804 95.0666 4.72414L93.9409 4.70349ZM92.8341 59.8196H70.4741L56.8246 39.7663L56.0129 28.2042L56.0317 28.1391C58.4479 19.9592 60.8265 12.3877 63.3008 4.99262L63.7263 3.7233H65.0529C76.7369 3.73283 83.3858 3.80114 91.5671 3.92188L92.8325 3.95206L92.8341 59.8196ZM70.8619 59.073H92.0946V4.68283L91.553 4.67013C83.378 4.54939 76.7322 4.48108 65.0529 4.47155L64.2569 4.46996L64.0026 5.2325C61.5377 12.599 59.1686 20.1419 56.7602 28.2884L57.5483 39.5105L70.8619 59.073Z" fill="#BFBFBF"/>
<path d="M95.0494 5.84412C112.401 6.14914 115.725 6.59872 117.606 6.90532C121.578 12.4544 130.067 23.5479 133.96 28.614L95.0494 28.6744V5.84412ZM61.7199 5.58994C47.8363 5.59152 30.3779 5.61694 25.3728 5.65825C22.9032 11.7046 18.5527 23.1031 16.4615 28.6124L54.5183 28.6728C56.7885 20.9393 59.1765 13.2408 61.7199 5.58994ZM65.2398 5.59152C62.6791 13.2408 60.2755 20.9393 57.9911 28.6744H91.7288V5.79169C84.1033 5.67731 77.3633 5.60264 65.2398 5.59152Z" fill="#2D2D2D"/>
<path d="M59.0508 27.8753C61.2975 20.3118 63.5112 13.2678 65.805 6.39221C76.8123 6.40492 83.2932 6.46847 90.936 6.58126V27.8753H59.0508ZM17.6091 27.815C19.8935 21.8083 23.6018 12.1224 25.9034 6.45258C31.3404 6.41605 47.3732 6.3938 60.6224 6.38904C58.3506 13.2694 56.1542 20.315 53.9279 27.8722L17.6091 27.815ZM95.8391 6.65752C111.944 6.95459 115.495 7.38035 117.157 7.64089C120.821 12.7372 127.855 21.9624 132.346 27.8166L95.8391 27.8722V6.65752Z" fill="#80C2DC"/>
<path d="M131.101 63.7181C131.473 63.6895 131.695 63.6594 131.714 63.626L139.545 49.9002C139.692 49.6428 139.876 49.395 140.079 49.1551C140.678 48.6992 141.254 48.2178 141.795 47.7031C142.832 47.0676 144.016 46.6641 145.085 46.6641H160.748C162.787 46.6641 165.268 48.113 166.288 49.9002L174.119 63.626C177.418 63.1828 183.839 65.6801 183.839 65.6801L153.902 74.5193L123.912 65.8183C123.922 65.7691 131.092 63.769 131.101 63.7181ZM68.6483 63.7022C68.642 63.7022 68.6326 63.7007 68.6263 63.7007C68.598 63.6975 68.5745 63.6959 68.5494 63.6927C68.4803 63.6848 68.4222 63.6768 68.3767 63.6689C68.3594 63.6657 68.339 63.6625 68.3248 63.6594C68.2762 63.6482 68.2401 63.6387 68.2338 63.6276L60.4026 49.9018C59.3821 48.1146 56.9015 46.6657 54.8621 46.6657H39.1998C37.1603 46.6657 34.6797 48.1146 33.6592 49.9018L25.8281 63.6276C25.8077 63.6625 25.77 63.7007 25.7166 63.742C25.6648 63.7817 25.5973 63.8262 25.5172 63.8706L11.9414 65.302L47.0309 75.0197L82.7359 63.0589C82.717 63.0032 68.6702 63.7578 68.6483 63.7022Z" fill="#2D2D2D"/>
<path d="M24.8515 66.2949L32.1473 49.9017C33.0187 48.1145 35.3784 46.6657 37.4194 46.6657H53.0817C55.1211 46.6657 57.7226 48.1145 58.8907 49.9017L67.8617 63.6275C68.2479 64.2169 131.053 64.2169 131.34 63.6275L138.031 49.9017C138.903 48.1145 141.262 46.6657 143.303 46.6657H158.966C161.005 46.6657 163.607 48.1145 164.775 49.9017L173.746 63.6275C174.132 64.2169 183.635 65.6816 183.635 65.6816C185.21 64.9493 186.279 63.6593 186.091 61.3828C186.061 61.0317 186.034 60.6774 186.007 60.3232H176.704L168.426 47.6617C166.351 44.4876 162.216 42.1825 158.592 42.1825H142.93C139.308 42.1825 135.554 44.4876 134.006 47.6617L127.834 60.3232H70.8196L62.5425 47.6617C60.467 44.4876 56.3316 42.1825 52.7081 42.1825H37.0457C33.4222 42.1825 29.6699 44.4876 28.1219 47.6617L21.9502 60.3232H9.32111C9.66808 62.0405 10.417 66.0518 10.417 66.0518C10.417 66.0518 13.3811 67.1495 18.862 68.1059C18.862 68.1059 24.5642 66.8858 24.8515 66.2949Z" fill="#D4D6D6"/>
<path d="M22.0601 61.6338L28.2318 48.9724C29.7798 45.7983 33.5321 43.4932 37.1556 43.4932H52.818C56.4415 43.4932 60.5769 45.7983 62.6524 48.9724L70.9295 61.6338H127.944L134.117 48.9724C135.665 45.7983 139.418 43.4932 143.041 43.4932H158.703C162.327 43.4932 166.462 45.7983 168.538 48.9724L176.815 61.6338H186.098C186.095 61.5481 186.102 61.4702 186.094 61.3813C186.064 61.0302 186.037 60.6759 186.01 60.3216H176.707L168.43 47.6602C166.354 44.4861 162.219 42.181 158.595 42.181H142.933C139.311 42.181 135.557 44.4861 134.009 47.6602L127.837 60.3216H70.8196L62.5425 47.6602C60.467 44.4861 56.3316 42.181 52.7081 42.181H37.0457C33.4222 42.181 29.6699 44.4861 28.1219 47.6602L21.9502 60.3216H9.32111C9.41688 60.7966 9.51107 61.2367 9.59585 61.6338H22.0601Z" fill="white"/>
<path d="M47.0325 84.2386C56.5522 84.2386 64.2695 76.4297 64.2695 66.7969C64.2695 57.1642 56.5522 49.3553 47.0325 49.3553C37.5127 49.3553 29.7954 57.1642 29.7954 66.7969C29.7954 76.4297 37.5127 84.2386 47.0325 84.2386Z" fill="#242424"/>
<path d="M47.0325 54.2149C40.1653 54.2149 34.5965 59.8482 34.5965 66.7969C34.5965 73.7472 40.1637 79.3805 47.0325 79.3805C53.8996 79.3805 59.4684 73.7472 59.4684 66.7969C59.4669 59.8482 53.8996 54.2149 47.0325 54.2149ZM58.4825 66.7969C58.4825 67.3387 58.4322 67.8677 58.3616 68.3887L54.4727 68.2219L52.1632 66.673L54.468 65.1273L58.3255 64.9621C58.4197 65.561 58.4825 66.171 58.4825 66.7969ZM49.9056 69.2609C50.0955 69.3816 50.2682 69.5421 50.3985 69.7502L50.9716 70.6637L50.0641 70.0806C49.8632 69.952 49.7077 69.7836 49.59 69.5961C49.5492 69.4166 49.488 69.2466 49.4079 69.083C49.568 69.1608 49.7329 69.2196 49.9056 69.2609ZM49.3969 64.2726C49.4738 64.1121 49.5319 63.9453 49.5727 63.7706C49.6921 63.5784 49.8506 63.4036 50.0563 63.2718L50.959 62.6919L50.3829 63.6085C50.2557 63.8119 50.0893 63.9692 49.904 64.0883C49.7266 64.1296 49.5586 64.1916 49.3969 64.2726ZM50.6859 67.909C50.5618 67.7755 50.4237 67.658 50.2745 67.5563C50.4504 67.5436 50.6231 67.5118 50.7926 67.4594C51.0171 67.4673 51.2448 67.5198 51.4614 67.6326L52.4097 68.133L51.3358 68.0869C51.0988 68.0774 50.8805 68.0107 50.6859 67.909ZM51.452 65.7182C51.2416 65.8295 51.0187 65.8819 50.8005 65.8914C50.6262 65.8374 50.4504 65.8056 50.2698 65.7945C50.4158 65.6944 50.5493 65.58 50.6702 65.4482C50.868 65.3417 51.0909 65.2718 51.3343 65.2607L52.4019 65.2147L51.452 65.7182ZM51.4693 64.0756L52.7002 61.5719L55.9202 59.5019C56.6299 60.3868 57.2092 61.3781 57.6394 62.4504L54.2341 64.2504L51.4693 64.0756ZM52.0659 60.9269L49.5853 62.1772L49.4142 59.3859L51.1616 56.0006C52.2276 56.4184 53.2151 56.9903 54.0975 57.6925L52.0659 60.9269ZM49.3278 57.9562L49.1724 55.4191C49.7015 55.5208 50.2164 55.6622 50.7173 55.8338L49.3278 57.9562ZM49.3451 75.4058L50.8538 77.7077C50.3106 77.9031 49.7533 78.062 49.1771 78.1732L49.3451 75.4058ZM49.433 73.9792L49.6041 71.18L52.0784 72.4255L54.2074 75.8172C53.3282 76.5337 52.3406 77.1199 51.2746 77.5504L49.433 73.9792ZM51.4803 69.2736L54.2388 69.1005L57.7148 70.9369C57.3034 72.0204 56.7398 73.026 56.0443 73.9251L52.7127 71.7837L51.4803 69.2736ZM55.6502 69.0115L58.2925 68.8463C58.192 69.415 58.0523 69.9663 57.8733 70.5032L55.6502 69.0115ZM55.6455 64.3361L57.8011 62.8905C57.9864 63.4115 58.1449 63.9453 58.2564 64.4998L55.6455 64.3361ZM55.6109 59.1413L53.3313 60.2899L54.4617 57.9911C54.8715 58.3454 55.2546 58.7314 55.6109 59.1413ZM48.7061 55.3476L48.5475 59.1477L47.0168 61.4845L45.4892 59.154L45.329 55.3524C45.8864 55.2682 46.4516 55.2094 47.0325 55.2094C47.6024 55.211 48.1582 55.2666 48.7061 55.3476ZM47.9038 69.9679C48.0027 70.1156 48.1158 70.2506 48.2461 70.373C48.3513 70.5731 48.4203 70.7987 48.4313 71.045L48.4769 72.1268L47.9792 71.1625C47.8693 70.9496 47.8175 70.724 47.8081 70.5032C47.8614 70.3285 47.8928 70.149 47.9038 69.9679ZM47.7924 62.8714C47.8002 62.6442 47.852 62.4139 47.9651 62.1947L48.4596 61.2351L48.4141 62.3217C48.4046 62.5616 48.3371 62.7824 48.2367 62.9794C48.1032 63.1049 47.9886 63.2447 47.8881 63.3957C47.8756 63.2177 47.8442 63.043 47.7924 62.8714ZM45.6383 71.045C45.6493 70.8051 45.7152 70.5842 45.8157 70.3873C45.9492 70.2618 46.0638 70.1235 46.1643 69.971C46.1768 70.1474 46.2082 70.3221 46.26 70.4953C46.2522 70.7225 46.2004 70.9528 46.0873 71.172L45.5928 72.1316L45.6383 71.045ZM45.5755 61.2415L46.0732 62.2058C46.1831 62.4187 46.2349 62.6427 46.2443 62.8651C46.191 63.0414 46.1595 63.2193 46.1486 63.402C46.0496 63.2543 45.9366 63.1192 45.8063 62.9969C45.7011 62.7967 45.632 62.5712 45.621 62.3249L45.5755 61.2415ZM35.5825 66.7969C35.5825 66.1774 35.6437 65.5737 35.7363 64.9811L39.5797 65.1463L41.8891 66.6953L39.5844 68.241L35.7049 68.4078C35.6327 67.8788 35.5825 67.345 35.5825 66.7969ZM42.5988 67.6484C42.8092 67.5372 43.0321 67.4848 43.2503 67.4753C43.4246 67.5293 43.6005 67.5611 43.781 67.5722C43.635 67.6723 43.5015 67.7867 43.3807 67.9185C43.1828 68.025 42.9599 68.0949 42.7165 68.106L41.6474 68.152L42.5988 67.6484ZM42.5909 65.7357L41.6427 65.2353L42.7165 65.2814C42.9536 65.2909 43.1718 65.3592 43.3665 65.4609C43.4906 65.5959 43.6287 65.7119 43.7779 65.8136C43.602 65.8263 43.4293 65.8581 43.2598 65.9105C43.0337 65.9009 42.806 65.8485 42.5909 65.7357ZM43.6695 69.7582C43.7967 69.5548 43.9631 69.3975 44.1484 69.2784C44.3258 69.2371 44.4938 69.1751 44.6555 69.0941C44.5786 69.2546 44.5205 69.4214 44.4797 69.5961C44.3603 69.7883 44.2018 69.9631 43.9961 70.0949L43.0933 70.6748L43.6695 69.7582ZM44.1468 64.1074C43.9568 63.9866 43.7841 63.8262 43.6538 63.6181L43.0808 62.7046L43.9882 63.2876C44.1892 63.4163 44.3446 63.5847 44.4624 63.7722C44.5032 63.9517 44.5644 64.1217 44.6445 64.2853C44.4844 64.2075 44.3195 64.1471 44.1468 64.1074ZM44.4483 62.1883L41.9739 60.9412L39.9439 57.7083C40.8263 57.003 41.8122 56.4295 42.8767 56.0085L44.6209 59.3875L44.4483 62.1883ZM42.5721 64.0947L39.8136 64.2678L36.4161 62.4727C36.8432 61.4003 37.4209 60.4074 38.129 59.521L41.3381 61.5846L42.5721 64.0947ZM38.4006 64.3552L35.8054 64.5172C35.9137 63.966 36.0707 63.4338 36.2544 62.9143L38.4006 64.3552ZM38.4069 69.0306L36.1948 70.5143C36.0158 69.9806 35.8745 69.4309 35.774 68.8669L38.4069 69.0306ZM39.8167 69.1195L42.5831 69.2927L41.3522 71.7964L38.0269 73.9347C37.3299 73.0371 36.7662 72.0331 36.3549 70.9496L39.8167 69.1195ZM41.9849 72.4414L44.4655 71.1927L44.6366 73.9839L42.7935 77.5552C41.7274 77.1247 40.7399 76.5416 39.8607 75.8236L41.9849 72.4414ZM44.7246 75.4105L44.8941 78.1732C44.3179 78.0635 43.7606 77.9047 43.2189 77.7093L44.7246 75.4105ZM44.7057 57.9609L43.3194 55.8449C43.8203 55.6717 44.3321 55.5272 44.8612 55.4239L44.7057 57.9609ZM39.5797 58.0118L40.7069 60.3042L38.4352 59.1604C38.7915 58.7505 39.1715 58.366 39.5797 58.0118ZM38.3095 74.2921L40.7211 73.0768L39.5169 75.5233C39.0851 75.1436 38.6801 74.7338 38.3095 74.2921ZM45.3369 78.2431L45.5049 74.219L47.0356 71.8822L48.5632 74.2127L48.7328 78.2399C48.177 78.3241 47.6118 78.3813 47.0309 78.3813C46.4547 78.3829 45.8911 78.3257 45.3369 78.2431ZM54.5528 75.5201L53.3454 73.0641L55.7648 74.2826C55.3927 74.7258 54.9861 75.1373 54.5528 75.5201Z" fill="#E3E5E5"/>
<path d="M47.0325 52.5691C55.523 52.5691 62.4797 59.1937 63.1422 67.6119C63.1768 67.1782 63.1988 66.7397 63.1988 66.2981C63.1988 57.2635 55.9611 49.9399 47.0325 49.9399C38.1039 49.9399 30.8662 57.2635 30.8662 66.2981C30.8662 66.7413 30.8882 67.1782 30.9227 67.6119C31.5852 59.1937 38.5419 52.5691 47.0325 52.5691Z" fill="#383838"/>
<path d="M47.0325 82.4323C37.8119 82.4323 30.2822 75.1071 29.8174 65.8946C29.8017 66.1932 29.7939 66.4951 29.7939 66.7985C29.7939 76.4304 37.512 84.2401 47.0309 84.2401C56.5514 84.2401 64.2679 76.4304 64.2679 66.7985C64.2679 66.4951 64.2601 66.1948 64.246 65.8946C63.7812 75.1071 56.2531 82.4323 47.0325 82.4323Z" fill="#111111"/>
<path d="M47.0325 54.2149C53.7756 54.2149 59.2518 59.6496 59.4496 66.4236C59.4527 66.2981 59.4684 66.1758 59.4684 66.0503C59.4684 59.1016 53.9012 53.4667 47.0325 53.4667C40.1653 53.4667 34.5965 59.1 34.5965 66.0503C34.5965 66.1758 34.6122 66.2997 34.6153 66.4236C34.8132 59.6481 40.2893 54.2149 47.0325 54.2149Z" fill="#111111"/>
<path d="M47.0325 79.4186C53.7756 79.4186 59.2518 73.9839 59.4496 67.21C59.4527 67.3355 59.4684 67.4578 59.4684 67.5833C59.4684 74.532 53.9012 80.1669 47.0325 80.1669C40.1653 80.1669 34.5965 74.5336 34.5965 67.5833C34.5965 67.4578 34.6122 67.3355 34.6153 67.21C34.8132 73.9855 40.2893 79.4186 47.0325 79.4186Z" fill="#383838"/>
<path d="M153.317 84.2386C162.837 84.2386 170.554 76.4297 170.554 66.7969C170.554 57.1642 162.837 49.3553 153.317 49.3553C143.797 49.3553 136.08 57.1642 136.08 66.7969C136.08 76.4297 143.797 84.2386 153.317 84.2386Z" fill="#242424"/>
<path d="M153.317 54.2149C146.45 54.2149 140.881 59.8482 140.881 66.7969C140.881 73.7472 146.448 79.3805 153.317 79.3805C160.184 79.3805 165.753 73.7472 165.753 66.7969C165.753 59.8482 160.186 54.2149 153.317 54.2149ZM164.767 66.7969C164.767 67.3387 164.718 67.8677 164.646 68.3887L160.757 68.2219L158.448 66.673L160.752 65.1273L164.61 64.9621C164.704 65.561 164.767 66.171 164.767 66.7969ZM156.19 69.2609C156.38 69.3816 156.553 69.5421 156.683 69.7502L157.256 70.6637L156.348 70.0806C156.148 69.952 155.992 69.7836 155.874 69.5961C155.833 69.4166 155.772 69.2466 155.692 69.083C155.852 69.1608 156.017 69.2196 156.19 69.2609ZM155.683 64.2726C155.76 64.1121 155.818 63.9453 155.859 63.7706C155.978 63.5784 156.136 63.4036 156.342 63.2718L157.245 62.6919L156.669 63.6085C156.542 63.8119 156.375 63.9692 156.191 64.0883C156.012 64.1296 155.843 64.1916 155.683 64.2726ZM156.972 67.909C156.848 67.7755 156.71 67.658 156.56 67.5563C156.736 67.5436 156.909 67.5118 157.079 67.4594C157.303 67.4673 157.531 67.5198 157.747 67.6326L158.696 68.133L157.622 68.0869C157.385 68.0774 157.166 68.0107 156.972 67.909ZM157.738 65.7182C157.528 65.8295 157.306 65.8819 157.086 65.8914C156.912 65.8374 156.736 65.8056 156.556 65.7945C156.702 65.6944 156.835 65.58 156.956 65.4482C157.154 65.3417 157.377 65.2718 157.62 65.2607L158.689 65.2147L157.738 65.7182ZM157.754 64.0756L158.986 61.5719L162.206 59.5019C162.916 60.3868 163.495 61.3781 163.925 62.4504L160.52 64.2504L157.754 64.0756ZM158.352 60.9269L155.871 62.1772L155.7 59.3859L157.447 56.0006C158.513 56.4184 159.501 56.9903 160.383 57.6925L158.352 60.9269ZM155.612 57.9562L155.457 55.4191C155.986 55.5208 156.501 55.6622 157.002 55.8338L155.612 57.9562ZM155.631 75.4058L157.14 77.7077C156.597 77.9031 156.039 78.062 155.463 78.1732L155.631 75.4058ZM155.717 73.9792L155.888 71.18L158.363 72.4255L160.492 75.8172C159.612 76.5337 158.625 77.1199 157.559 77.5504L155.717 73.9792ZM157.766 69.2736L160.525 69.1005L164.001 70.9369C163.589 72.0204 163.026 73.026 162.33 73.9251L158.999 71.7837L157.766 69.2736ZM161.936 69.0115L164.578 68.8463C164.478 69.415 164.338 69.9663 164.159 70.5032L161.936 69.0115ZM161.931 64.3361L164.087 62.8905C164.272 63.4115 164.431 63.9453 164.542 64.4998L161.931 64.3361ZM161.897 59.1413L159.617 60.2899L160.748 57.9911C161.157 58.3454 161.539 58.7314 161.897 59.1413ZM154.99 55.3476L154.832 59.1477L153.301 61.4845L151.773 59.154L151.613 55.3524C152.171 55.2682 152.736 55.2094 153.317 55.2094C153.887 55.211 154.442 55.2666 154.99 55.3476ZM154.19 69.9679C154.289 70.1156 154.402 70.2506 154.532 70.373C154.637 70.5731 154.706 70.7987 154.717 71.045L154.763 72.1268L154.265 71.1625C154.155 70.9496 154.103 70.724 154.094 70.5032C154.146 70.3285 154.177 70.149 154.19 69.9679ZM154.077 62.8714C154.085 62.6442 154.136 62.4139 154.249 62.1947L154.744 61.2351L154.698 62.3217C154.689 62.5616 154.621 62.7824 154.521 62.9794C154.388 63.1049 154.273 63.2447 154.172 63.3957C154.16 63.2177 154.128 63.043 154.077 62.8714ZM151.924 71.045C151.934 70.8051 152.001 70.5842 152.102 70.3873C152.235 70.2618 152.35 70.1235 152.45 69.971C152.463 70.1474 152.494 70.3221 152.546 70.4953C152.538 70.7225 152.486 70.9528 152.375 71.172L151.88 72.1316L151.924 71.045ZM151.86 61.2415L152.358 62.2058C152.467 62.4187 152.519 62.6427 152.529 62.8651C152.475 63.0414 152.444 63.2193 152.433 63.402C152.334 63.2543 152.221 63.1192 152.091 62.9969C151.985 62.7967 151.916 62.5712 151.905 62.3249L151.86 61.2415ZM141.867 66.7969C141.867 66.1774 141.928 65.5737 142.021 64.9811L145.864 65.1463L148.173 66.6953L145.87 68.241L141.991 68.4078C141.917 67.8788 141.867 67.345 141.867 66.7969ZM148.885 67.6484C149.095 67.5372 149.316 67.4848 149.536 67.4753C149.71 67.5293 149.886 67.5611 150.067 67.5722C149.921 67.6723 149.787 67.7867 149.667 67.9185C149.469 68.025 149.246 68.0949 149.002 68.106L147.933 68.152L148.885 67.6484ZM148.875 65.7357L147.927 65.2353L149.001 65.2814C149.238 65.2909 149.456 65.3592 149.651 65.4609C149.775 65.5959 149.911 65.7119 150.062 65.8136C149.886 65.8263 149.715 65.8581 149.544 65.9105C149.32 65.9009 149.09 65.8485 148.875 65.7357ZM149.954 69.7582C150.081 69.5548 150.247 69.3975 150.433 69.2784C150.61 69.2371 150.778 69.1751 150.94 69.0941C150.863 69.2546 150.805 69.4214 150.764 69.5961C150.645 69.7883 150.486 69.9631 150.28 70.0949L149.378 70.6748L149.954 69.7582ZM150.431 64.1074C150.241 63.9866 150.068 63.8262 149.938 63.6181L149.365 62.7046L150.273 63.2876C150.474 63.4163 150.629 63.5847 150.747 63.7722C150.788 63.9517 150.849 64.1217 150.929 64.2853C150.769 64.2075 150.604 64.1471 150.431 64.1074ZM150.733 62.1883L148.258 60.9412L146.228 57.7083C147.111 57.003 148.097 56.4295 149.159 56.0085L150.904 59.3875L150.733 62.1883ZM148.856 64.0947L146.098 64.2678L142.7 62.4727C143.127 61.4003 143.705 60.4074 144.413 59.521L147.622 61.5846L148.856 64.0947ZM144.686 64.3552L142.091 64.5172C142.2 63.966 142.357 63.4338 142.54 62.9143L144.686 64.3552ZM144.691 69.0306L142.479 70.5143C142.3 69.9806 142.159 69.4309 142.058 68.8669L144.691 69.0306ZM146.101 69.1195L148.867 69.2927L147.637 71.7964L144.311 73.9347C143.616 73.0371 143.051 72.0331 142.639 70.9496L146.101 69.1195ZM148.271 72.4414L150.751 71.1927L150.923 73.9839L149.079 77.5552C148.013 77.1247 147.026 76.5416 146.147 75.8236L148.271 72.4414ZM151.01 75.4105L151.18 78.1732C150.604 78.0635 150.046 77.9047 149.503 77.7093L151.01 75.4105ZM150.992 57.9609L149.605 55.8449C150.106 55.6717 150.618 55.5272 151.147 55.4239L150.992 57.9609ZM145.866 58.0118L146.993 60.3042L144.721 59.1604C145.076 58.7505 145.456 58.366 145.866 58.0118ZM144.594 74.2921L147.005 73.0768L145.801 75.5233C145.371 75.1436 144.964 74.7338 144.594 74.2921ZM151.623 78.2431L151.791 74.219L153.321 71.8822L154.849 74.2127L155.017 78.2399C154.461 78.3241 153.896 78.3813 153.315 78.3813C152.739 78.3829 152.177 78.3257 151.623 78.2431ZM160.837 75.5201L159.63 73.0641L162.049 74.2826C161.677 74.7258 161.27 75.1373 160.837 75.5201Z" fill="#E3E5E5"/>
<path d="M153.317 52.5691C161.807 52.5691 168.764 59.1937 169.427 67.6119C169.461 67.1782 169.483 66.7397 169.483 66.2981C169.483 57.2635 162.245 49.9399 153.317 49.9399C144.388 49.9399 137.15 57.2635 137.15 66.2981C137.15 66.7413 137.172 67.1782 137.207 67.6119C137.87 59.1937 144.826 52.5691 153.317 52.5691Z" fill="#383838"/>
<path d="M153.317 82.4323C144.096 82.4323 136.566 75.1071 136.103 65.8946C136.088 66.1932 136.08 66.4951 136.08 66.7985C136.08 76.4304 143.796 84.2401 153.317 84.2401C162.837 84.2401 170.554 76.4304 170.554 66.7985C170.554 66.4951 170.546 66.1948 170.53 65.8946C170.067 75.1071 162.537 82.4323 153.317 82.4323Z" fill="#111111"/>
<path d="M153.317 54.2149C160.06 54.2149 165.536 59.6496 165.734 66.4236C165.737 66.2981 165.753 66.1758 165.753 66.0503C165.753 59.1016 160.186 53.4667 153.317 53.4667C146.45 53.4667 140.881 59.1 140.881 66.0503C140.881 66.1758 140.897 66.2997 140.9 66.4236C141.097 59.6481 146.574 54.2149 153.317 54.2149Z" fill="#111111"/>
<path d="M153.317 79.4186C160.06 79.4186 165.536 73.9839 165.734 67.21C165.737 67.3355 165.753 67.4578 165.753 67.5833C165.753 74.532 160.186 80.1669 153.317 80.1669C146.45 80.1669 140.881 74.5336 140.881 67.5833C140.881 67.4578 140.897 67.3355 140.9 67.21C141.097 73.9855 146.574 79.4186 153.317 79.4186Z" fill="#383838"/>
<path d="M133.709 64.9287C133.709 65.6865 133.103 66.2997 132.354 66.2997H68.3327C67.5854 66.2997 66.9778 65.6865 66.9778 64.9287C66.9778 64.1725 67.5838 63.5577 68.3327 63.5577H132.356C133.103 63.5577 133.709 64.1709 133.709 64.9287Z" fill="#B2B2B2"/>
<path d="M133.671 64.6173C133.532 64.0105 132.998 63.5577 132.356 63.5577H68.3327C67.6905 63.5577 67.1552 64.0105 67.017 64.6173H133.671Z" fill="white"/>
<path d="M67.2227 65.7055C67.466 66.063 67.8711 66.2981 68.3327 66.2981H132.356C132.817 66.2981 133.222 66.063 133.466 65.7055H67.2227Z" fill="#939393"/>
<path d="M67.1238 32.808C67.1081 32.5443 66.8961 32.333 66.6308 32.333H58.572C58.3051 32.333 58.09 32.5475 58.0774 32.8144H58.0727V32.8382V33.8565V34.7923C58.0727 35.0703 58.2972 35.2974 58.572 35.2974H66.6308C66.9056 35.2974 67.1301 35.0719 67.1301 34.7923V33.8565V32.8366V32.808C67.1269 32.808 67.1238 32.808 67.1238 32.808ZM58.572 32.5348H66.6308C66.7956 32.5348 66.9307 32.6714 66.9307 32.8382V33.8565C66.9307 34.0233 66.7956 34.16 66.6308 34.16H58.572C58.4071 34.16 58.2721 34.0233 58.2721 33.8565V32.8366C58.2721 32.6714 58.4056 32.5348 58.572 32.5348ZM66.6292 35.0957H58.5704C58.4056 35.0957 58.2705 34.9591 58.2705 34.7923V34.2505C58.3553 34.3157 58.4558 34.3617 58.5704 34.3617H66.6292C66.7438 34.3617 66.8443 34.3157 66.9291 34.2505V34.7923C66.9291 34.9591 66.7957 35.0957 66.6292 35.0957Z" fill="#BFBFBF"/>
<path d="M104.039 32.808C104.023 32.5443 103.81 32.333 103.546 32.333H95.4874C95.2205 32.333 95.0054 32.5475 94.9928 32.8144H94.9881V32.8382V33.8565V34.7923C94.9881 35.0703 95.2126 35.2974 95.4874 35.2974H103.546C103.821 35.2974 104.045 35.0719 104.045 34.7923V33.8565V32.8366V32.808C104.042 32.808 104.039 32.808 104.039 32.808ZM95.4858 32.5348H103.545C103.709 32.5348 103.844 32.6714 103.844 32.8382V33.8565C103.844 34.0233 103.709 34.16 103.545 34.16H95.4858C95.321 34.16 95.1859 34.0233 95.1859 33.8565V32.8366C95.1875 32.6714 95.321 32.5348 95.4858 32.5348ZM103.545 35.0957H95.4858C95.321 35.0957 95.1859 34.9591 95.1859 34.7923V34.2505C95.2707 34.3157 95.3712 34.3617 95.4858 34.3617H103.545C103.659 34.3617 103.76 34.3157 103.844 34.2505V34.7923C103.844 34.9591 103.709 35.0957 103.545 35.0957Z" fill="#BFBFBF"/>
<path opacity="0.7" d="M172.124 51.0996C172.124 51.0996 181.728 51.0996 184.189 51.0996C186.651 51.0996 185.651 56.6011 185.651 56.6011L174.586 56.3326L172.124 51.0996Z" fill="white"/>
<path d="M16.3139 58.6377V51.7827H9.85647C9.40588 52.5913 9.64767 55.9704 9.92713 58.6377H16.3139Z" fill="#7F374D"/>
<path d="M16.3139 53.4063V49.7906H9.85647C9.58015 50.2847 9.56445 51.7414 9.65708 53.4063H16.3139Z" fill="#70221E"/>
<path d="M176.065 36.9608V36.3984C176.065 35.5723 175.404 34.9035 174.587 34.9035H169.169C168.353 34.9035 167.692 35.5723 167.692 36.3984V36.9608H176.065Z" fill="#E37333"/>
<path d="M135.232 27.7721C134.967 31.6658 132.086 30.665 130.701 30.6046C129.316 30.5442 128.933 29.2749 129.101 27.61C129.338 25.2652 130.194 24.5265 131.579 24.5853C132.965 24.6472 135.458 24.4344 135.232 27.7721Z" fill="#200000"/>
<path d="M129.388 26.301C129.671 27.0318 130.271 27.5354 131.034 27.5671C131.897 27.6037 135.714 28.4885 134.331 25.5289C133.659 24.7251 132.415 24.8379 131.616 24.8045C130.721 24.7664 129.856 25.3844 129.388 26.301Z" fill="#2D2D2D"/>
<path opacity="0.7" d="M149.061 37.4913L182.958 38.5287L183.627 43.5679L149.061 37.4913Z" fill="white"/>
<path opacity="0.7" d="M95.8391 12.0986V6.65752C97.7733 6.69247 99.516 6.73059 101.105 6.76872C99.3512 8.5464 97.5959 10.3225 95.8391 12.0986ZM110.812 7.10551L95.8406 22.2547V27.8738L106.344 27.8579L121.069 12.958C119.577 10.9611 118.224 9.12626 117.158 7.64247C116.235 7.49791 114.721 7.30092 110.812 7.10551ZM116.395 27.842L124.017 27.8309L128.718 23.0745C127.643 21.6654 126.525 20.1959 125.408 18.7216L116.395 27.842ZM20.4084 20.4914C19.6485 22.4692 18.9154 24.3867 18.2622 26.0993L37.7145 6.41604C36.526 6.41763 35.3925 6.42081 34.3108 6.42399L20.4084 20.4914ZM47.7673 6.39857L26.588 27.8293L43.3917 27.8563L58.6756 12.3909C59.3193 10.3733 59.9677 8.37007 60.6224 6.38904C56.4729 6.39063 52.0518 6.3938 47.7673 6.39857ZM74.6174 6.41604L61.5566 19.6319C60.7229 22.3262 59.8892 25.0555 59.0508 27.8753H80.249C83.8113 24.2707 87.3752 20.6645 90.9375 17.0599V6.57967C85.5807 6.50183 80.7906 6.44623 74.6174 6.41604Z" fill="white"/>
</svg>
