<svg width="182" height="73" viewBox="0 0 182 73" fill="none" xmlns="http://www.w3.org/2000/svg">
<path d="M95.8426 7.84307C96.9385 11.0188 96.1896 13.8196 94.0732 13.8196H53.7776C51.6613 13.8196 50.804 11.0188 51.7774 7.84307L52.765 4.62294C53.5751 1.9858 55.5769 0 57.296 0H90.0195C91.7387 0 93.8173 1.98421 94.7279 4.62294L95.8426 7.84307Z" fill="#DB3535"/>
<path d="M179.58 59.272L180.01 52.1057C179.137 45.1935 172.01 38.2131 167.259 36.5196C163.874 35.3122 134.097 28.2348 130.525 28.1188C128.59 27.5469 105.358 14.0372 97.0405 10.7869C94.7059 9.8734 51.8638 9.46194 50.68 10.1292C46.7393 12.3437 32.1493 17.7276 21.0949 24.7843C18.619 26.365 8.77985 27.5724 7.3904 29.4469C3.89244 34.1668 1.73526 59.2736 1.73526 59.2736C1.34747 62.5828 3.28328 65.3104 6.06375 65.3104H162.123C164.905 65.3088 180.803 62.5812 179.58 59.272Z" fill="#F4CC25"/>
<path d="M67.3754 33.4487C40.6964 33.4487 17.699 42.2307 7.09839 54.9001C6.69176 58.0424 6.47354 60.2808 6.47354 60.2808C6.1093 63.0371 7.92892 65.3088 10.5461 65.3088H30.8101C42.9164 56.0868 62.4378 50.0961 84.4711 50.0961C102.926 50.0961 119.623 54.298 131.675 61.083C124.132 45.1744 98.2086 33.4487 67.3754 33.4487Z" fill="#F2A927"/>
<path d="M112.956 28.1363C115.647 28.184 115.625 26.8304 111.204 23.6198C107.131 20.6634 101.876 16.8475 98.6011 14.9459C94.7578 12.717 83.2717 11.3921 73.0965 11.3254C64.35 11.2682 58.7153 12.2055 54.1073 13.648C50.9202 14.6472 37.076 19.7531 31.0597 24.5158C30.2355 25.1688 29.361 26.7479 33.5215 26.8209C42.111 26.9703 87.5201 27.6947 112.956 28.1363Z" fill="#2A2A2B"/>
<path d="M181.681 60.7415V57.9487C181.681 51.942 181.149 50.5679 177.04 50.5679H149.656V54.4473C149.656 57.0543 147.568 59.1672 144.991 59.1672H39.2614C36.685 59.1672 34.597 57.0543 34.597 54.4473V50.5679H4.64293C2.07912 50.5679 0.00199786 52.6808 0.00199786 55.2877V60.7399C0.00199786 63.3469 -0.0922052 65.4597 2.4716 65.4597H167.07C175.038 65.4613 181.681 63.3468 181.681 60.7415Z" fill="#F29B27"/>
<path d="M46.317 58.4094C46.317 49.0031 38.7543 41.3506 29.4583 41.3506C20.1624 41.3506 12.5997 49.0031 12.5997 58.4094C12.5997 60.8146 13.1052 63.099 14.0001 65.1754H44.9165C45.8099 63.099 46.317 60.8146 46.317 58.4094Z" fill="#F29B27"/>
<path d="M162.153 58.4094C162.153 49.0031 154.59 41.3506 145.295 41.3506C135.999 41.3506 128.436 49.0031 128.436 58.4094C128.436 60.8146 128.941 63.099 129.836 65.1754H160.753C161.648 63.099 162.153 60.8146 162.153 58.4094Z" fill="#F29B27"/>
<path d="M167.069 62.373H2.47005C0.116619 62.373 0.00358146 60.5906 0.000441459 58.2807V60.7399C0.000441459 63.3469 -0.0937616 65.4597 2.47005 65.4597H167.069C175.038 65.4597 181.679 63.3469 181.679 60.7399V57.9471C181.679 57.847 181.678 57.7597 181.678 57.6643C181.659 60.2665 175.026 62.373 167.069 62.373Z" fill="#CE7305"/>
<path d="M44.6041 57.9646C44.6041 49.513 37.8092 42.639 29.4583 42.639C21.1059 42.639 14.3125 49.5146 14.3125 57.9646C14.3125 60.6716 15.0159 63.2118 16.2389 65.4216H42.6793C43.9008 63.2118 44.6041 60.6716 44.6041 57.9646Z" fill="#070707"/>
<path d="M43.0498 57.9646C43.0498 65.5598 36.9645 71.7174 29.4583 71.7174C21.9522 71.7174 15.8669 65.5598 15.8669 57.9646C15.8669 50.3693 21.9522 44.2117 29.4583 44.2117C36.9645 44.2117 43.0498 50.3693 43.0498 57.9646Z" fill="#2A2A2B"/>
<path d="M41.0905 57.9646C41.0905 64.4653 35.8828 69.7348 29.4583 69.7348C23.0339 69.7348 17.8262 64.4653 17.8262 57.9646C17.8262 51.4639 23.0339 46.1944 29.4583 46.1944C35.8828 46.1944 41.0905 51.4639 41.0905 57.9646Z" fill="#091119"/>
<path d="M29.4583 47.6464C23.8267 47.6464 19.2612 52.2661 19.2612 57.9646C19.2612 63.663 23.8267 68.2828 29.4583 68.2828C35.0899 68.2828 39.6555 63.663 39.6555 57.9646C39.6555 52.2661 35.0899 47.6464 29.4583 47.6464ZM36.5218 50.9317C37.7401 52.1645 37.5674 53.7038 36.5218 54.1884L33.0191 55.8152C32.8778 55.8803 32.5073 55.6594 32.1791 55.3258C31.851 54.9938 31.6312 54.6189 31.6956 54.4759L33.3032 50.9317C33.7821 49.8752 35.3034 49.6989 36.5218 50.9317ZM29.5667 47.9752C31.2905 47.9752 32.2419 49.1873 31.8432 50.2787L30.5024 53.9342C30.4474 54.0819 30.0314 54.19 29.5667 54.19C29.1019 54.19 28.6843 54.0819 28.6309 53.9342L27.2901 50.2787C26.8898 49.1873 27.8428 47.9752 29.5667 47.9752ZM22.5817 50.8618C23.8 49.629 25.3214 49.8037 25.8002 50.8618L27.4079 54.406C27.4723 54.549 27.2541 54.9239 26.9244 55.2559C26.5962 55.5895 26.2257 55.8104 26.0844 55.7452L22.5817 54.1185C21.5361 53.634 21.3634 52.0946 22.5817 50.8618ZM19.6584 57.8994C19.6584 56.1551 20.8563 55.1908 21.9349 55.5959L25.549 56.9526C25.695 57.0082 25.8018 57.4292 25.8018 57.8994C25.8018 58.3697 25.695 58.7907 25.549 58.8463L21.9349 60.203C20.8579 60.6065 19.6584 59.6437 19.6584 57.8994ZM22.5111 64.9673C21.2928 63.7345 21.4655 62.1951 22.5111 61.7106L26.0138 60.0838C26.1551 60.0187 26.5256 60.2395 26.8537 60.5731C27.1818 60.9051 27.4016 61.2801 27.3373 61.423L25.7296 64.9673C25.2507 66.0237 23.7294 66.2001 22.5111 64.9673ZM29.4662 67.9237C27.7423 67.9237 26.7909 66.7116 27.1897 65.6202L28.5305 61.9632C28.5838 61.8154 29.0014 61.7074 29.4662 61.7074C29.9309 61.7074 30.3485 61.8154 30.4019 61.9632L31.7427 65.6202C32.143 66.7116 31.19 67.9237 29.4662 67.9237ZM36.4511 65.0372C35.2328 66.27 33.7115 66.0952 33.2326 65.0372L31.6249 61.493C31.5605 61.35 31.7788 60.9751 32.1085 60.643C32.4366 60.311 32.8071 60.0886 32.9484 60.1537L36.4511 61.7805C37.4967 62.265 37.6694 63.8044 36.4511 65.0372ZM37.098 60.303L33.4838 58.9463C33.3378 58.8923 33.231 58.4698 33.231 57.9995C33.231 57.5293 33.3378 57.1083 33.4838 57.0527L37.098 55.696C38.1765 55.2909 39.3744 56.2552 39.3744 57.9995C39.3729 59.7439 38.175 60.7081 37.098 60.303Z" fill="#2A2A2B"/>
<path d="M160.44 57.9646C160.44 49.513 153.645 42.639 145.295 42.639C136.942 42.639 130.149 49.5146 130.149 57.9646C130.149 60.6716 130.852 63.2118 132.075 65.4216H158.515C159.737 63.2118 160.44 60.6716 160.44 57.9646Z" fill="#070707"/>
<path d="M158.886 57.9646C158.886 65.5599 152.801 71.7174 145.295 71.7174C137.788 71.7174 131.703 65.5599 131.703 57.9646C131.703 50.3693 137.788 44.2118 145.295 44.2118C152.801 44.2118 158.886 50.3693 158.886 57.9646Z" fill="#2A2A2B"/>
<path d="M156.604 60.5765C158.039 54.2405 154.126 47.9269 147.864 46.4747C141.603 45.0225 135.363 48.9816 133.928 55.3176C132.493 61.6537 136.405 67.9673 142.667 69.4195C148.929 70.8717 155.168 66.9126 156.604 60.5765Z" fill="#091119"/>
<path d="M145.295 47.6464C139.663 47.6464 135.097 52.2661 135.097 57.9646C135.097 63.663 139.663 68.2828 145.295 68.2828C150.926 68.2828 155.492 63.663 155.492 57.9646C155.492 52.2661 150.926 47.6464 145.295 47.6464ZM152.358 50.9317C153.576 52.1645 153.404 53.7038 152.358 54.1884L148.855 55.8152C148.714 55.8803 148.343 55.6594 148.015 55.3258C147.687 54.9938 147.467 54.6189 147.532 54.4759L149.139 50.9317C149.618 49.8752 151.14 49.6989 152.358 50.9317ZM145.403 47.9752C147.127 47.9752 148.078 49.1873 147.679 50.2787L146.339 53.9342C146.285 54.0819 145.868 54.19 145.403 54.19C144.938 54.19 144.521 54.0819 144.467 53.9342L143.126 50.2787C142.726 49.1873 143.679 47.9752 145.403 47.9752ZM138.418 50.8618C139.636 49.629 141.158 49.8037 141.636 50.8618L143.244 54.406C143.308 54.549 143.09 54.9239 142.761 55.2559C142.432 55.5895 142.062 55.8104 141.921 55.7452L138.418 54.1185C137.372 53.634 137.2 52.0946 138.418 50.8618ZM135.496 57.8994C135.496 56.1551 136.694 55.1908 137.773 55.5959L141.385 56.9526C141.531 57.0082 141.638 57.4292 141.638 57.8994C141.638 58.3697 141.531 58.7907 141.385 58.8463L137.773 60.203C136.694 60.6065 135.496 59.6437 135.496 57.8994ZM138.347 64.9673C137.129 63.7345 137.302 62.1951 138.347 61.7106L141.85 60.0838C141.991 60.0187 142.362 60.2395 142.69 60.5731C143.018 60.9051 143.238 61.2801 143.173 61.423L141.566 64.9673C141.087 66.0237 139.566 66.2001 138.347 64.9673ZM145.304 67.9237C143.58 67.9237 142.627 66.7116 143.027 65.6202L144.368 61.9632C144.422 61.8154 144.839 61.7074 145.304 61.7074C145.769 61.7074 146.185 61.8154 146.24 61.9632L147.58 65.6202C147.979 66.7116 147.026 67.9237 145.304 67.9237ZM152.287 65.0372C151.069 66.27 149.548 66.0952 149.069 65.0372L147.461 61.493C147.397 61.35 147.615 60.9751 147.945 60.643C148.273 60.311 148.643 60.0886 148.785 60.1537L152.287 61.7805C153.333 62.265 153.507 63.8044 152.287 65.0372ZM152.934 60.303L149.32 58.9463C149.174 58.8923 149.067 58.4698 149.067 57.9995C149.067 57.5293 149.174 57.1083 149.32 57.0527L152.934 55.696C154.013 55.2909 155.211 56.2552 155.211 57.9995C155.211 59.7439 154.011 60.7081 152.934 60.303Z" fill="#2A2A2B"/>
<path opacity="0.3" d="M173.57 40.8248L160.593 40.9677C160.085 40.9677 160.034 41.5269 160.443 42.191L163.23 46.6408C163.524 47.1174 164.116 47.5606 164.574 47.6495L179.462 50.1199C179.119 47.4509 177.977 43.8622 173.57 40.8248Z" fill="#091119"/>
<path d="M179.472 49.7863C179.205 48.4709 178.682 44.7837 174.448 41.4682H161.69C161.173 41.4602 161.064 41.94 161.414 42.5198L163.61 46.1483C163.872 46.5804 164.448 46.9887 164.918 47.0761L179.472 49.7863Z" fill="white"/>
<path d="M164.196 41.5111L161.69 41.4682C161.173 41.4602 161.064 41.94 161.414 42.5198L163.61 46.1483C163.872 46.5804 164.448 46.9887 164.918 47.0761L168.581 47.7576L164.196 41.5111Z" fill="#F49625"/>
<path d="M180.139 55.391C180.139 56.4236 179.312 57.2592 178.293 57.2592H172.9C171.879 57.2592 171.053 56.4236 171.053 55.391C171.053 54.3584 171.881 53.5228 172.9 53.5228H178.293C179.313 53.5228 180.139 54.36 180.139 55.391Z" fill="#CE7305"/>
<path d="M176.446 55.3179C176.446 56.1186 175.804 56.7683 175.013 56.7683H173.652C172.861 56.7683 172.218 56.1186 172.218 55.3179C172.218 54.5172 172.861 53.8675 173.652 53.8675H175.013C175.804 53.8675 176.446 54.5172 176.446 55.3179Z" fill="white"/>
<path opacity="0.3" d="M4.21744 39.5157H6.96494C8.68252 39.5157 10.375 38.1066 10.7471 36.3687L11.3296 33.6442C11.7001 31.9062 10.6089 30.497 8.89134 30.497H6.59285C5.65399 32.5686 4.86271 35.9127 4.21744 39.5157Z" fill="#091119"/>
<path d="M4.34776 38.7294C4.96791 35.4441 5.62418 32.9451 6.30085 31.285H8.90861C9.48009 31.285 9.96366 31.4947 10.2698 31.8776C10.5948 32.2827 10.7 32.845 10.5681 33.463L9.98564 36.1875C9.69048 37.5665 8.29945 38.7294 6.94611 38.7294H4.34776Z" fill="#DB3535"/>
<path d="M4.85173 36.2765C4.68217 37.039 4.51418 37.854 4.34776 38.731H6.94769C8.2712 38.731 9.62454 37.6157 9.95895 36.2765H4.85173Z" fill="#F49625"/>
<path d="M130.526 28.1188C128.59 27.5469 109.195 16.2756 101.025 12.6598C100.743 12.5359 100.446 12.4215 100.154 12.304L115.494 23.2418C118.265 25.218 121.27 26.9179 122.206 27.0402C122.206 27.0402 130.923 28.1315 130.526 28.1188Z" fill="#2A2A2B"/>
<path opacity="0.3" d="M72.3476 27.3198H71.952V59.2021H72.3476V27.3198Z" fill="#2A2A2B"/>
<path opacity="0.3" d="M113.086 59.2021H112.69L114.303 27.3198H114.697L113.086 59.2021Z" fill="#2A2A2B"/>
<path opacity="0.3" d="M33.0489 41.3109C33.162 41.322 33.2467 41.3744 33.3472 41.4046L30.763 25.5215H30.3674L32.9359 41.3125C32.9751 41.3125 33.0128 41.3061 33.0489 41.3109Z" fill="#2A2A2B"/>
<path d="M41.8927 29.6503C41.8927 30.1285 41.5097 30.5161 41.0371 30.5161H34.0569C33.5843 30.5161 33.2012 30.1285 33.2012 29.6503C33.2012 29.1721 33.5843 28.7845 34.0569 28.7845H41.0371C41.5097 28.7845 41.8927 29.1721 41.8927 29.6503Z" fill="#2A2A2B"/>
<path d="M82.0596 29.7837C82.0596 30.2619 81.6765 30.6496 81.204 30.6496H74.2238C73.7512 30.6496 73.3681 30.2619 73.3681 29.7837C73.3681 29.3056 73.7512 28.918 74.2238 28.918H81.204C81.6765 28.918 82.0596 29.3056 82.0596 29.7837Z" fill="#2A2A2B"/>
<path opacity="0.2" d="M29.4583 42.5754C34.06 42.5754 38.2001 44.7376 41.1109 48.169C38.7543 43.7955 34.4195 40.847 29.4583 40.847C24.4971 40.847 20.1624 43.7955 17.8058 48.169C20.7166 44.7376 24.8567 42.5754 29.4583 42.5754Z" fill="#F9F9F9"/>
<path opacity="0.2" d="M145.295 41.3506C149.896 41.3506 154.036 43.5127 156.947 46.9442C154.59 42.5707 150.256 39.6222 145.295 39.6222C140.333 39.6222 135.999 42.5707 133.642 46.9442C136.553 43.5127 140.693 41.3506 145.295 41.3506Z" fill="#F9F9F9"/>
<path d="M69.6315 27.1577L37.2989 26.5C34.9 26.4587 33.7806 23.5722 34.1228 23.3212C39.9507 19.0239 50.9972 14.957 54.2015 13.9546C58.3934 12.6408 62.9747 11.7495 70.922 11.6526L69.6315 27.1577ZM109.167 22.5364C105.42 19.8246 101.234 16.8443 98.4457 15.2239C94.7876 13.1015 83.9374 11.8305 74.3933 11.6637L75.2254 27.2181L107.826 27.7551C108.677 27.7551 109.791 22.9876 109.167 22.5364ZM122.272 26.8035C122.272 26.8035 127.486 27.4564 129.66 27.7455C125.373 25.6835 108.605 16.0293 101.097 12.6932L115.56 23.005C118.331 24.9813 121.336 26.6812 122.272 26.8035Z" fill="#80C2DC"/>
<path d="M87.8765 36.6864H83.8447V40.766H87.8765V36.6864Z" fill="#091119"/>
<path d="M80.0061 40.7644V36.6864H75.9743V40.7644H79.8145V44.6153H75.9743V40.7644H72.1356V36.6864H68.1039V40.7644H71.9425V44.6153H68.1039V40.7644H64.2637V36.6864H60.2319V40.7644H64.0721V44.6153H60.2319V48.6933H64.2637V44.844H68.1039V48.6933H72.1356V44.844H75.9743V48.6933H80.0061V44.844H83.8447V48.6933H87.8765V44.6153H83.8447V40.7644H80.0061Z" fill="#091119"/>
<path opacity="0.6" d="M93.9194 2.90878C92.8675 1.17399 91.3414 0 90.0226 0H57.2992C55.9804 0 54.4998 1.1724 53.5139 2.90878H93.9194Z" fill="white"/>
<path d="M81.3515 1.3376H79.0201V3.69675H81.3515V1.3376Z" fill="#091119"/>
<path d="M76.8001 3.69515V1.3376H74.4702V3.69515H76.6902V5.92083H74.4702V3.69515H72.2503V1.3376H69.9188V3.69515H72.1388V5.92083H69.9188V3.69515H67.6988V1.3376H65.369V3.69515H67.5889V5.92083H65.369V8.27998H67.6988V6.0543H69.9188V8.27998H72.2503V6.0543H74.4702V8.27998H76.8001V6.0543H79.0201V8.27998H81.3515V5.92083H79.0201V3.69515H76.8001Z" fill="#091119"/>
<path opacity="0.7" d="M70.4024 17.8881L69.6315 27.1577L61.4063 26.9909L70.4024 17.8881ZM35.4196 25.7613L42.5097 18.5886C39.4373 20.0216 36.3868 21.6515 34.1228 23.3212C33.8889 23.4927 34.352 24.8765 35.4196 25.7613ZM44.2478 26.6414L50.4084 26.7669L65.0911 11.91C62.207 12.1404 59.8457 12.5137 57.734 12.995L44.2478 26.6414ZM85.7036 12.358C82.7473 12.0419 79.5916 11.8242 76.4987 11.7193L74.5032 13.7385L75.0088 23.1798C78.5742 19.572 82.1381 15.9658 85.7036 12.358ZM102.76 18.0024C101.159 16.9094 99.6656 15.9324 98.4457 15.2239C97.8475 14.876 97.0531 14.5535 96.1049 14.2532L83.1618 27.35L93.3574 27.5183L102.76 18.0024ZM100.977 27.6423L102.16 27.6613L108.031 21.7214C107.797 21.553 107.561 21.3846 107.327 21.2162C105.211 23.3593 103.093 25.5008 100.977 27.6423ZM92.1484 13.2921C91.4749 13.1634 90.7778 13.038 90.0462 12.9236L75.9084 27.2292L78.3356 27.269L92.1484 13.2921ZM116.73 23.812L118.678 21.8406C117.433 21.159 116.16 20.4632 114.87 19.7642C114.339 20.3012 113.808 20.8381 113.278 21.3751L115.562 23.0034C115.948 23.2814 116.339 23.5499 116.73 23.812ZM121.859 23.5817C121.164 24.2855 120.47 24.9877 119.774 25.6914C120.906 26.3237 121.826 26.7447 122.272 26.8035C122.272 26.8035 127.486 27.4564 129.66 27.7455C128.208 27.0481 125.324 25.4785 121.859 23.5817Z" fill="white"/>
<g opacity="0.6">
<path d="M16.2013 50.5679H4.64294C2.07913 50.5679 0.00200359 52.6808 0.00200359 55.2877V60.7399C0.00200359 62.3715 -0.0340926 63.8076 0.565647 64.6559C0.565647 64.4303 0.565647 64.2047 0.565647 63.9696V58.5174C0.565647 55.9105 2.64275 53.7976 5.20656 53.7976H14.8966C15.2137 52.6633 15.6471 51.5798 16.2013 50.5679Z" fill="#EDEDED"/>
</g>
<path opacity="0.6" d="M46.0626 55.4498C45.9747 56.565 45.6655 60.006 45.6655 60.006L128.455 59.191C127.006 58.1536 46.0626 55.4498 46.0626 55.4498Z" fill="white"/>
<path opacity="0.6" d="M177.038 50.5679H158.552C159.104 51.5798 178.277 52.3424 178.277 52.3424C180.528 52.3424 181.028 54.217 181.632 55.5784C181.441 51.5751 180.538 50.5679 177.038 50.5679Z" fill="white"/>
<g opacity="0.6">
<path d="M167.259 36.518C163.874 35.3106 134.097 28.2333 130.526 28.1173C128.59 27.5454 105.358 14.0356 97.0405 10.7853C94.706 9.8718 51.8638 9.46034 50.68 10.1276C46.7393 12.3421 32.1493 17.726 21.0949 24.7827C18.619 26.3634 8.77987 27.5708 7.39042 29.4454C5.25051 32.3335 3.613 42.8439 2.66315 50.5758H2.90963C3.88303 43.9973 5.42477 35.9826 7.38884 33.6426C8.77829 31.9872 27.4315 28.2825 29.3343 26.1569C34.2767 20.6348 51.6911 14.2294 55.9395 13.1174C65.5589 10.601 79.9024 10.6105 95.2523 13.6654C101.082 14.5614 115.72 27.9918 120.733 29.6217C129.795 31.8204 157.384 37.2837 160.77 38.3497C164.719 39.5936 176.773 45.5986 179.046 50.5758H179.709C178.089 44.1927 171.66 38.0876 167.259 36.518Z" fill="white"/>
</g>
<path opacity="0.2" d="M29.4583 45.8099C36.6976 45.8099 42.5976 51.5417 43.0106 58.7636C43.0263 58.4983 43.0498 58.2346 43.0498 57.9646C43.0498 50.3693 36.9645 44.2117 29.4583 44.2117C21.9522 44.2117 15.8669 50.3693 15.8669 57.9646C15.8669 58.2346 15.892 58.4983 15.9061 58.7636C16.3174 51.5433 22.2191 45.8099 29.4583 45.8099Z" fill="#EDEDED"/>
<path opacity="0.2" d="M29.4583 69.8412C23.216 70.0016 18.1276 65.1881 17.7728 58.9718C17.765 59.102 17.7603 59.2323 17.754 59.361C17.9126 65.7664 23.0857 70.7833 29.4583 70.6197C35.831 70.456 41.0041 65.1754 41.1627 58.762C41.1548 58.6334 41.1501 58.5031 41.1438 58.3728C40.7874 64.6082 35.7007 69.6807 29.4583 69.8412Z" fill="#EDEDED"/>
<path opacity="0.2" d="M145.221 45.8099C152.46 45.8099 158.36 51.5417 158.773 58.7636C158.789 58.4983 158.812 58.2346 158.812 57.9646C158.812 50.3693 152.727 44.2117 145.221 44.2117C137.715 44.2117 131.629 50.3693 131.629 57.9646C131.629 58.2346 131.654 58.4983 131.668 58.7636C132.081 51.5433 137.981 45.8099 145.221 45.8099Z" fill="#EDEDED"/>
<path opacity="0.2" d="M145.221 69.8412C138.978 70.0016 133.89 65.1881 133.535 58.9718C133.527 59.102 133.523 59.2323 133.516 59.361C133.675 65.7664 138.848 70.7833 145.221 70.6197C151.593 70.456 156.767 65.1754 156.925 58.762C156.917 58.6334 156.913 58.5031 156.906 58.3728C156.55 64.6082 151.463 69.6807 145.221 69.8412Z" fill="#EDEDED"/>
</svg>
