<svg width="182" height="68" viewBox="0 0 182 68" fill="none" xmlns="http://www.w3.org/2000/svg">
<path d="M19.6835 10.1234C11.9669 15.9188 6.55671 21.7411 7.59919 23.1296C8.64167 24.5181 15.7412 20.9468 23.4578 15.1515C31.1743 9.35612 36.5845 3.53377 35.5421 2.1453C34.4996 0.75683 27.4 4.32968 19.6835 10.1234Z" fill="#80C2DC"/>
<path d="M143.509 22.0938C138.445 19.9698 96.9149 4.12474 96.9149 4.12474C95.1832 3.28435 92.6916 2.68225 91.2629 2.73944L75.3117 3.3749C75.3117 3.3749 88.0727 24.1972 97.6513 24.6324L143.432 23.7412C143.465 23.1931 143.491 22.6435 143.509 22.0938Z" fill="#80C2DC"/>
<path d="M179.976 49.0021L179.816 42.0598C178.943 35.1476 175.955 31.0728 169.268 28.4674C165.918 27.1616 146.174 21.6252 142.602 21.5092C135.98 22.0303 103.239 7.64357 95.2005 3.74188C92.0071 2.19137 85.3111 0.219874 74.9444 0.219874C64.8367 0.219874 43.4141 -0.693593 36.0727 1.20324C30.4568 2.65366 14.121 13.7376 7.87238 22.1685C4.37442 26.8883 2.12929 49.0021 2.12929 49.0021C1.7415 52.3113 3.67734 55.0389 6.45781 55.0389H162.517C165.299 55.0405 181.199 52.3129 179.976 49.0021Z" fill="#C8E064"/>
<path d="M181.681 50.6051V47.8122C181.681 41.8056 181.149 40.4314 177.04 40.4314H149.656V44.3109C149.656 46.9178 147.568 49.0307 144.991 49.0307H39.2614C36.685 49.0307 34.5969 46.9178 34.5969 44.3109V40.4314H4.6429C2.07909 40.4314 0.00199023 42.5443 0.00199023 45.1513V50.6035C0.00199023 53.2104 -0.0922128 55.3233 2.4716 55.3233H167.07C175.038 55.3249 181.681 53.212 181.681 50.6051Z" fill="#B2C443"/>
<path d="M46.317 48.2729C46.317 38.8666 38.7543 31.2142 29.4583 31.2142C20.1623 31.2142 12.5996 38.8666 12.5996 48.2729C12.5996 50.6781 13.1052 52.9626 14.0001 55.0389H44.9165C45.8099 52.9626 46.317 50.6781 46.317 48.2729Z" fill="#B2C443"/>
<path d="M162.153 48.2729C162.153 38.8666 154.59 31.2142 145.294 31.2142C135.999 31.2142 128.436 38.8666 128.436 48.2729C128.436 50.6781 128.943 52.9626 129.836 55.0389H160.753C161.648 52.9626 162.153 50.6781 162.153 48.2729Z" fill="#B2C443"/>
<path d="M167.069 52.2366H2.47002C0.116588 52.2366 0.00355094 50.4542 0.000410941 48.1443V50.6035C0.000410941 53.2104 -0.0937921 55.3233 2.47002 55.3233H167.069C175.038 55.3233 181.679 53.2104 181.679 50.6035V47.8107C181.679 47.7106 181.678 47.6232 181.678 47.5279C181.659 50.1301 175.026 52.2366 167.069 52.2366Z" fill="#2A2A2B"/>
<path d="M44.6041 47.8281C44.6041 39.3766 37.8091 32.5026 29.4583 32.5026C21.1075 32.5026 14.3125 39.3782 14.3125 47.8281C14.3125 50.5352 15.0159 53.0754 16.2389 55.2852H42.6793C43.9007 53.0754 44.6041 50.5352 44.6041 47.8281Z" fill="#070707"/>
<path d="M39.8585 56.6479C44.6859 50.8312 43.9392 42.1561 38.1909 37.2715C32.4425 32.3868 23.8691 33.1424 19.0418 38.959C14.2144 44.7756 14.9611 53.4507 20.7095 58.3354C26.4578 63.22 35.0312 62.4645 39.8585 56.6479Z" fill="#2A2A2B"/>
<path d="M40.9517 49.709C41.9809 43.2924 37.6745 37.2465 31.3331 36.2051C24.9917 35.1637 19.0167 39.5212 17.9876 45.9378C16.9584 52.3545 21.2648 58.4004 27.6062 59.4418C33.9476 60.4832 39.9226 56.1257 40.9517 49.709Z" fill="#091119"/>
<path d="M29.4583 37.5099C23.8267 37.5099 19.2612 42.1297 19.2612 47.8281C19.2612 53.5266 23.8267 58.1463 29.4583 58.1463C35.0899 58.1463 39.6555 53.5266 39.6555 47.8281C39.6555 42.1297 35.0899 37.5099 29.4583 37.5099ZM36.5217 40.7952C37.7401 42.028 37.5674 43.5674 36.5217 44.0519L33.0191 45.6787C32.8778 45.7438 32.5073 45.523 32.1791 45.1894C31.8494 44.8574 31.6312 44.4824 31.6956 44.3395L33.3033 40.7952C33.7821 39.7388 35.3034 39.5624 36.5217 40.7952ZM29.5667 37.8388C31.2905 37.8388 32.2419 39.0509 31.8432 40.1423L30.5024 43.7993C30.449 43.9471 30.0314 44.0551 29.5667 44.0551C29.1019 44.0551 28.6843 43.9471 28.6309 43.7993L27.2901 40.1423C26.8898 39.0509 27.8428 37.8388 29.5667 37.8388ZM22.5817 40.7253C23.8 39.4925 25.3214 39.6673 25.8002 40.7253L27.4079 44.2696C27.4723 44.4125 27.2541 44.7875 26.9244 45.1195C26.5947 45.4515 26.2257 45.6739 26.0844 45.6088L22.5817 43.982C21.5361 43.4975 21.3634 41.9581 22.5817 40.7253ZM19.66 47.763C19.66 46.0187 20.8579 45.0543 21.9365 45.4595L25.5506 46.8162C25.6966 46.8718 25.8034 47.2927 25.8034 47.763C25.8034 48.2332 25.6966 48.6558 25.5506 48.7098L21.9365 50.0665C20.8579 50.4716 19.66 49.5073 19.66 47.763ZM22.5111 54.8308C21.2928 53.598 21.4655 52.0586 22.5111 51.5741L26.0137 49.9474C26.155 49.8822 26.5256 50.103 26.8537 50.4367C27.1818 50.7703 27.4016 51.1436 27.3372 51.2866L25.7296 54.8308C25.2507 55.8889 23.7294 56.0636 22.5111 54.8308ZM29.4678 57.7873C27.7439 57.7873 26.7909 56.5751 27.1912 55.4837L28.532 51.8267C28.587 51.679 29.003 51.5709 29.4678 51.5709C29.9325 51.5709 30.3485 51.679 30.4034 51.8267L31.7442 55.4837C32.143 56.5751 31.19 57.7873 29.4678 57.7873ZM36.4511 54.9023C35.2328 56.1351 33.7114 55.9603 33.2326 54.9023L31.6249 51.3581C31.5606 51.2151 31.7788 50.8402 32.1085 50.5081C32.4382 50.1761 32.8071 49.9537 32.9484 50.0188L36.4511 51.6456C37.4967 52.1301 37.6694 53.6679 36.4511 54.9023ZM37.0979 50.1666L33.4838 48.8099C33.3378 48.7543 33.2311 48.3333 33.2311 47.8631C33.2311 47.3928 33.3378 46.9702 33.4838 46.9162L37.0979 45.5595C38.1765 45.1544 39.3745 46.1187 39.3745 47.8631C39.3729 49.6074 38.175 50.5717 37.0979 50.1666Z" fill="#DCDFE2"/>
<path d="M160.44 47.8281C160.44 39.3766 153.645 32.5025 145.294 32.5025C136.944 32.5025 130.149 39.3782 130.149 47.8281C130.149 50.5351 130.852 53.0754 132.075 55.2852H158.515C159.737 53.0754 160.44 50.5351 160.44 47.8281Z" fill="#070707"/>
<path d="M158.696 50.0471C159.902 42.5503 154.873 35.4842 147.464 34.2643C140.055 33.0445 133.072 38.1329 131.866 45.6296C130.661 53.1264 135.69 60.1926 143.099 61.4124C150.507 62.6322 157.491 57.5438 158.696 50.0471Z" fill="#2A2A2B"/>
<path d="M153.514 56.155C158.056 51.5585 158.056 44.1061 153.514 39.5095C148.971 34.913 141.606 34.913 137.064 39.5095C132.521 44.106 132.521 51.5585 137.064 56.155C141.606 60.7515 148.971 60.7515 153.514 56.155Z" fill="#091119"/>
<path d="M145.294 37.5099C139.663 37.5099 135.097 42.1297 135.097 47.8281C135.097 53.5266 139.663 58.1463 145.294 58.1463C150.926 58.1463 155.492 53.5266 155.492 47.8281C155.492 42.1297 150.926 37.5099 145.294 37.5099ZM152.358 40.7952C153.576 42.028 153.404 43.5674 152.358 44.0519L148.855 45.6787C148.714 45.7438 148.343 45.523 148.015 45.1894C147.687 44.8574 147.467 44.4824 147.532 44.3395L149.139 40.7952C149.618 39.7388 151.14 39.5624 152.358 40.7952ZM145.403 37.8388C147.127 37.8388 148.078 39.0509 147.679 40.1423L146.339 43.7993C146.285 43.9471 145.868 44.0551 145.403 44.0551C144.938 44.0551 144.522 43.9471 144.467 43.7993L143.126 40.1423C142.726 39.0509 143.679 37.8388 145.403 37.8388ZM138.418 40.7253C139.636 39.4925 141.158 39.6673 141.636 40.7253L143.244 44.2696C143.308 44.4125 143.09 44.7875 142.76 45.1195C142.432 45.4515 142.062 45.6739 141.921 45.6088L138.418 43.982C137.372 43.4975 137.2 41.9581 138.418 40.7253ZM135.496 47.763C135.496 46.0187 136.694 45.0543 137.773 45.4595L141.387 46.8162C141.533 46.8718 141.64 47.2927 141.64 47.763C141.64 48.2332 141.533 48.6558 141.387 48.7098L137.773 50.0665C136.694 50.4716 135.496 49.5073 135.496 47.763ZM138.347 54.8308C137.129 53.598 137.302 52.0586 138.347 51.5741L141.85 49.9474C141.991 49.8822 142.362 50.103 142.69 50.4367C143.02 50.7703 143.238 51.1436 143.173 51.2866L141.566 54.8308C141.087 55.8889 139.567 56.0636 138.347 54.8308ZM145.304 57.7873C143.58 57.7873 142.629 56.5751 143.027 55.4837L144.368 51.8267C144.422 51.679 144.839 51.5709 145.304 51.5709C145.769 51.5709 146.186 51.679 146.24 51.8267L147.58 55.4837C147.979 56.5751 147.026 57.7873 145.304 57.7873ZM152.287 54.9023C151.069 56.1351 149.548 55.9603 149.069 54.9023L147.461 51.3581C147.397 51.2151 147.615 50.8402 147.945 50.5081C148.274 50.1761 148.643 49.9537 148.785 50.0188L152.287 51.6456C153.333 52.1301 153.507 53.6679 152.287 54.9023ZM152.934 50.1666L149.32 48.8099C149.174 48.7543 149.067 48.3333 149.067 47.8631C149.067 47.3928 149.174 46.9702 149.32 46.9162L152.934 45.5595C154.013 45.1544 155.211 46.1187 155.211 47.8631C155.211 49.6074 154.011 50.5717 152.934 50.1666Z" fill="#DCDFE2"/>
<path d="M93.4311 5.93896C92.0244 5.18912 89.7008 4.61404 88.1747 4.61245L71.8593 4.5918C71.8593 4.5918 74.3258 21.2947 74.3525 21.6442L133.598 24.2305C135.725 24.3242 135.526 23.4759 133.631 22.2161C132.675 21.5791 93.4311 5.93896 93.4311 5.93896Z" fill="#80C2DC"/>
<path opacity="0.3" d="M21.2535 19.9047C18.5908 19.7823 17.71 18.8323 17.4196 18.2795C16.8261 17.1452 17.5499 15.7393 19.4119 14.4096L33.2091 4.56639C34.0145 3.9913 35.8749 3.74665 37.2691 3.76253L44.221 3.84038C44.221 3.84038 42.4673 12.4587 41.7624 16.0157C41.227 18.7148 40.9476 20.1287 40.9036 20.2939L40.7717 20.8007L21.2535 19.9047Z" fill="#124F2A"/>
<path d="M43.2492 4.46152L37.2691 4.38685C35.8608 4.36938 34.3284 4.63786 33.7978 5.01595L19.9676 14.8576C17.06 16.9275 17.3159 19.1231 21.2535 19.2994L40.0542 20.1382C40.1798 19.6584 43.1628 4.26294 43.2492 4.46152Z" fill="#80C2DC"/>
<path opacity="0.3" d="M70.3568 3.91345L44.7438 3.92457L44.6465 4.44565C44.5884 4.75543 42.5616 18.5909 42.3323 20.1588L42.3261 20.2017L42.0011 35.6973L42.2255 35.9006C44.9024 38.3217 46.9214 43.7009 47.0596 47.987C47.0659 48.1808 47.0502 48.3841 47.0376 48.597L73.4842 48.848L72.9269 21.3106L70.3568 3.91345ZM72.7181 48.0934L47.7331 48.0267C47.6013 43.9884 45.8115 38.3011 42.6573 35.4558L42.9823 20.2732C43.4502 17.0785 45.2337 4.95084 45.3012 4.55685L69.6927 4.58863L72.1608 21.3217L72.7181 48.0934Z" fill="#124F2A"/>
<path d="M72.1608 21.649V21.3201L69.6927 4.58703L45.3012 4.55527C45.2447 4.86187 42.9823 20.2716 42.9823 20.2716V20.367L72.1608 21.649Z" fill="#80C2DC"/>
<path d="M50.1556 22.9104L43.7783 22.5927V21.0962L50.1556 21.3885V22.9104Z" fill="#0D5E56"/>
<path d="M83.3266 24.5625L75.7937 24.186V22.5609L83.3266 22.9056V24.5625Z" fill="#0D5E56"/>
<path opacity="0.3" d="M129.036 48.9291L136.134 23.8524C136.178 23.2059 135.584 22.4989 134.275 21.6315C133.301 20.9881 96.5538 6.81113 93.8817 5.33529C92.3415 4.51714 89.886 3.90552 88.1747 3.90711L70.9926 3.91346L71.1057 4.6776C71.7777 9.23539 73.5408 21.2296 73.5847 21.6569L73.5926 21.7395L73.9709 48.767L129.036 48.9291ZM71.8593 4.59022L88.1747 4.61087C89.7008 4.61246 92.0244 5.18914 93.4311 5.93738C93.4311 5.93738 132.675 21.5775 133.631 22.213C134.618 22.8691 135.132 23.4092 135.108 23.7682L128.02 48.049L75.0229 47.8631L74.3619 21.6426H74.3525C74.3258 21.2931 71.8593 4.59022 71.8593 4.59022Z" fill="#124F2A"/>
<path opacity="0.7" d="M33.388 19.8427L40.0558 20.1398C40.1217 19.884 40.9962 15.4184 41.8126 11.3181L33.388 19.8427Z" fill="white"/>
<path opacity="0.7" d="M22.0244 13.3944L19.9661 14.8592C18.7007 15.7599 18.0366 16.6829 18.0115 17.455L22.0244 13.3944Z" fill="white"/>
<path opacity="0.7" d="M33.7962 5.01595L32.0127 6.28527C27.8224 10.5253 23.632 14.7654 19.4401 19.0071C19.9205 19.1643 20.5219 19.2676 21.2519 19.301L25.0874 19.4725C30.0455 14.4556 35.0036 9.43871 39.9616 4.4218L37.2675 4.38844C35.8608 4.36937 34.3285 4.63785 33.7962 5.01595Z" fill="white"/>
<path opacity="0.7" d="M55.624 4.56956L48.4899 4.56003L44.736 8.35846C44.3529 10.9495 43.8536 14.346 43.4863 16.8513L55.624 4.56956Z" fill="white"/>
<path opacity="0.7" d="M61.3167 4.57749L58.5818 4.57431C53.382 9.83587 48.1822 15.0974 42.9823 20.359V20.3685L45.5963 20.4829L61.3167 4.57749Z" fill="white"/>
<path opacity="0.7" d="M70.5562 10.4364L70.2344 8.2536C66.0315 12.5064 61.8302 16.7576 57.6273 21.0103L60.0027 21.1152C63.521 17.5567 67.0394 13.9965 70.5562 10.4364Z" fill="white"/>
<path opacity="0.7" d="M62.8428 21.2407L72.1608 21.6506V21.3217L70.9408 13.0465C68.242 15.7774 65.5432 18.5082 62.8428 21.2407Z" fill="white"/>
<path opacity="0.7" d="M76.3291 4.59656L73.8532 4.59338L72.1199 6.34724C72.211 6.95886 72.3209 7.70552 72.4418 8.53002L76.3291 4.59656Z" fill="white"/>
<path opacity="0.7" d="M89.4292 4.71252C88.9801 4.64739 88.5515 4.61244 88.1747 4.61085L79.2886 4.59973L72.8249 11.1401C73.3116 14.4477 73.8579 18.1714 74.1468 20.1763L89.4292 4.71252Z" fill="white"/>
<path opacity="0.7" d="M101.771 9.26874C98.7251 8.05026 96.2336 7.05577 94.7907 6.48068C89.7212 11.6104 84.6516 16.7401 79.5805 21.8698L88.9126 22.2781C93.2003 17.9427 97.4848 13.6057 101.771 9.26874Z" fill="white"/>
<path opacity="0.7" d="M114.207 14.2539C113.056 13.7916 111.904 13.3277 110.762 12.8702L100.947 22.8023L105.559 23.0041L114.207 14.2539Z" fill="white"/>
<path opacity="0.7" d="M122.362 17.5408C120.452 16.7671 118.411 15.9442 116.328 15.107L108.399 23.1296L116.49 23.4823L122.362 17.5408Z" fill="white"/>
<path d="M173.572 30.6883L161.02 30.8313C160.514 30.8313 160.461 31.3905 160.87 32.0546L163.232 36.5043C163.525 36.9809 164.117 37.4241 164.576 37.5131L179.464 39.9834C179.119 37.3161 177.977 33.7258 173.572 30.6883Z" fill="#0D5E56"/>
<path d="M179.472 39.6514C179.205 38.336 178.682 34.6488 174.448 31.3333H161.69C161.173 31.3238 161.062 31.8052 161.414 32.385L163.61 36.0135C163.871 36.4456 164.448 36.8538 164.918 36.9412L179.472 39.6514Z" fill="#F9F9F9"/>
<path d="M164.196 31.3746L161.69 31.3317C161.173 31.3222 161.062 31.8036 161.414 32.3834L163.61 36.0119C163.871 36.444 164.448 36.8523 164.918 36.9396L168.581 37.6212L164.196 31.3746Z" fill="#F49625"/>
<path d="M180.139 45.2561C180.139 46.2871 179.313 47.1244 178.293 47.1244H172.9C171.879 47.1244 171.053 46.2871 171.053 45.2561C171.053 44.2235 171.881 43.3879 172.9 43.3879H178.293C179.313 43.3879 180.139 44.2235 180.139 45.2561Z" fill="#2A2A2B"/>
<path d="M176.446 45.1815C176.446 45.9821 175.804 46.6319 175.013 46.6319H173.652C172.861 46.6319 172.218 45.9821 172.218 45.1815C172.218 44.3808 172.861 43.731 173.652 43.731H175.013C175.806 43.731 176.446 44.3808 176.446 45.1815Z" fill="#F9F9F9"/>
<path d="M4.57539 32.4485H7.32289C9.04047 32.4485 10.7643 31.0394 11.1741 29.3014L11.8162 26.5769C12.226 24.839 11.1647 23.4298 9.44709 23.4298H7.14863C6.16581 25.4998 5.29916 28.8439 4.57539 32.4485Z" fill="#124F2A"/>
<path d="M4.72295 31.6606C5.41532 28.3753 6.12652 25.8779 6.8393 24.2146H9.44709C10.0186 24.2146 10.4974 24.4243 10.7957 24.8072C11.1113 25.2123 11.2055 25.7747 11.0595 26.3927L10.4174 29.1172C10.0924 30.4961 8.67622 31.659 7.32288 31.659L4.72295 31.6606Z" fill="#DB3535"/>
<path d="M5.28032 29.2077C5.09349 29.9703 4.90821 30.7852 4.72295 31.6622H7.32288C8.64639 31.6622 10.0233 30.547 10.3875 29.2077H5.28032Z" fill="#F49625"/>
<path opacity="0.3" d="M14.1728 24.0335C21.3163 23.9303 118.286 27.9495 150.549 30.3229C128.196 30.1784 40.7607 29.1029 38.7763 29.1315C36.7918 29.1585 14.1728 24.0335 14.1728 24.0335Z" fill="#124F2A"/>
<path opacity="0.6" d="M11.3311 23.5156C16.9517 25.4554 118.286 27.9495 150.549 30.3229C127.282 26.7676 28.4441 24.4355 16.5686 19.7665C14.7192 19.0389 11.3311 23.5156 11.3311 23.5156Z" fill="white"/>
<path opacity="0.6" d="M179.55 40.5347C178.434 34.5567 175.438 30.871 169.268 28.4674C165.918 27.1616 146.174 21.6252 142.602 21.5092C134.545 17.7028 100.978 6.16455 96.8663 4.39798C93.6729 2.84747 85.3095 0.219874 74.9444 0.219874C64.8367 0.219874 43.4141 -0.693593 36.0727 1.20324C30.4568 2.65366 14.121 13.7376 7.87081 22.1685C5.81725 24.9391 4.19701 33.6956 3.20791 40.4616C3.30368 40.441 3.401 40.4251 3.49677 40.406C4.49843 34.7123 6.00722 28.0957 7.87081 25.8636C14.121 18.3796 29.4913 7.2623 34.7995 3.6831C36.2815 2.68385 79.8726 2.52657 89.9143 3.6831C94.1878 4.17558 128.139 17.9761 136.931 22.1732C141.574 25.7715 165.918 30.2959 169.268 31.454C174.776 33.3588 177.746 36.1739 179.12 40.5252C179.261 40.5172 179.406 40.5188 179.55 40.5347Z" fill="white"/>
<path opacity="0.6" d="M0.3301 54.0349L0.438431 48.5827C0.490241 45.9758 2.67414 43.3227 5.31488 42.6555L14.1132 40.433H4.64291C2.07909 40.433 0.00199489 42.5459 0.00199489 45.1529V50.6051C0.00199489 51.9713 -0.0137296 53.1898 0.3301 54.0524C0.3301 54.046 0.3301 54.0413 0.3301 54.0349Z" fill="white"/>
<path opacity="0.6" d="M181.31 48.4112C181.423 48.2698 181.546 48.1411 181.679 48.0299V47.8138C181.679 41.8072 181.147 40.433 177.038 40.433H161.34L176.762 42.5173C180.02 43.1258 181.017 44.9273 181.31 48.4112Z" fill="white"/>
<path opacity="0.6" d="M44.5272 49.0307C44.4487 50.0411 44.2901 51.0261 44.0248 51.9713H130.728C130.543 51.3057 44.5272 49.0307 44.5272 49.0307Z" fill="white"/>
<path opacity="0.6" d="M29.4583 31.2142C38.467 31.2142 45.8271 38.4075 46.273 47.4135C46.2871 47.1387 46.3154 46.8686 46.3154 46.5906C46.3154 37.1843 38.7527 29.5318 29.4567 29.5318C20.1608 29.5318 12.5981 37.1843 12.5981 46.5906C12.5981 46.8686 12.6279 47.1387 12.6405 47.4135C13.0895 38.4091 20.4497 31.2142 29.4583 31.2142Z" fill="white"/>
<path opacity="0.6" d="M145.294 31.2142C154.305 31.2142 161.663 38.4075 162.109 47.4135C162.123 47.1387 162.152 46.8686 162.152 46.5906C162.152 37.1843 154.589 29.5318 145.293 29.5318C135.997 29.5318 128.434 37.1843 128.434 46.5906C128.434 46.8686 128.464 47.1387 128.477 47.4135C128.926 38.4091 136.286 31.2142 145.294 31.2142Z" fill="white"/>
<path opacity="0.2" d="M15.9014 48.524C15.8904 48.292 15.8668 48.0633 15.8668 47.8297C15.8668 40.2345 21.9521 34.0769 29.4583 34.0769C36.9645 34.0769 43.0498 40.2345 43.0498 47.8297C43.0498 48.0649 43.0263 48.292 43.0153 48.524C42.6558 41.2528 36.7337 35.4654 29.4583 35.4654C22.1845 35.4654 16.2609 41.2528 15.9014 48.524ZM17.7634 48.0077C17.754 48.2078 17.7336 48.4048 17.7336 48.6066C17.7336 55.1581 22.9836 60.4705 29.4583 60.4705C35.933 60.4705 41.1831 55.1581 41.1831 48.6066C41.1831 48.4048 41.1627 48.2062 41.1533 48.0077C40.8424 54.2796 35.7336 59.2727 29.4583 59.2727C23.183 59.2727 18.0742 54.2796 17.7634 48.0077Z" fill="#EDEDED"/>
<path opacity="0.2" d="M131.629 48.524C131.618 48.292 131.595 48.0633 131.595 47.8297C131.595 40.2345 137.68 34.0769 145.186 34.0769C152.692 34.0769 158.778 40.2345 158.778 47.8297C158.778 48.0649 158.754 48.292 158.743 48.524C158.384 41.2528 152.462 35.4654 145.186 35.4654C137.912 35.4654 131.99 41.2528 131.629 48.524ZM133.491 48.0077C133.482 48.2078 133.461 48.4048 133.461 48.6066C133.461 55.1581 138.711 60.4705 145.186 60.4705C151.662 60.4705 156.911 55.1581 156.911 48.6066C156.911 48.4048 156.891 48.2062 156.881 48.0077C156.57 54.2796 151.461 59.2727 145.186 59.2727C138.911 59.2727 133.802 54.2796 133.491 48.0077Z" fill="#EDEDED"/>
</svg>
